<svg width="100" height="100" viewBox="0 0 100 100" fill="none" xmlns="http://www.w3.org/2000/svg">
<path d="M28.0459 0.691406C34.2028 0.145047 39.5558 2.90733 43.792 7.2832C47.8167 11.4406 50.8546 17.0746 52.6582 22.7979C56.3206 15.7423 60.6937 9.32482 67.3125 5.38184L67.3145 5.37988C73.3458 1.84862 80.367 1.17862 86.8359 3.52148C92.8559 5.67164 96.5604 10.0497 98.2627 15.4258C99.9611 20.7899 99.6656 27.137 97.7295 33.2676C91.0026 54.5685 71.868 72.2549 54.8506 82.4473C56.3344 83.2328 57.7847 84.0784 59.2422 84.9053C60.6923 85.7279 62.1539 86.535 63.6816 87.2617L64.3408 87.5684L64.3535 87.5742C65.8534 88.3218 67.3794 88.9944 68.9141 89.6777C70.4461 90.3599 71.9861 91.0523 73.4971 91.833C74.2364 92.215 74.8183 92.7278 75.1377 93.4121C75.4588 94.1001 75.4909 94.9095 75.2266 95.835C75.0075 96.6018 74.7099 97.1824 74.332 97.5957C73.9484 98.0152 73.4954 98.247 73.001 98.335C72.0537 98.5035 70.9847 98.134 69.9814 97.709C69.4992 97.5731 68.5034 97.1499 67.542 96.7217C66.5486 96.2792 65.5482 95.8115 65.084 95.5967L63.9717 95.083C58.4865 92.5195 53.1456 89.5729 47.9795 86.2598L47.7139 86.3945C36.0024 92.1591 23.1724 95.9486 10.3232 96.0146H10.3057C9.58548 95.9838 8.6517 96.0375 7.60059 96.0469C6.57403 96.056 5.46594 96.0208 4.49219 95.7959C3.52136 95.5717 2.62313 95.1448 2.09473 94.3242C1.56231 93.4973 1.46388 92.3613 1.8877 90.8525C2.27343 89.4802 3.62972 89.0471 4.89453 88.9229C6.17338 88.7972 7.61973 88.9648 8.40527 88.9893C20.0183 89.3501 30.5772 86.1599 41.3975 81.7412C40.0916 80.9191 38.6132 79.7465 37.1641 78.5117C35.4626 77.0618 33.7701 75.5024 32.4209 74.3047C24.4369 67.2169 16.2787 56.3612 11.8613 44.5195C7.44343 32.6764 6.75088 19.7932 13.7979 8.7207C16.9305 3.79853 22.7716 1.26406 28.0391 0.692383L28.0459 0.691406ZM28.4756 7.625C24.2991 8.28992 20.9412 9.69862 18.3604 13.5254C15.0228 18.4743 14.2904 26.2329 15.2031 32.1738C18.244 51.9667 32.49 66.8931 46.792 77.2842C47.0722 77.4877 47.3559 77.7101 47.6592 77.8926C47.9354 78.0588 48.1785 78.1588 48.3848 78.1777C48.9181 77.9748 49.6482 77.5637 50.4102 77.0977C50.8028 76.8574 51.1968 76.6082 51.5674 76.373C51.9364 76.1389 52.2844 75.9177 52.5811 75.7383C61.7619 70.1851 73.1321 60.7546 79.9873 51.8623L79.9902 51.8594C86.3537 43.7887 93.2468 32.9787 93.0361 21.7246L93.0186 21.292C92.7761 16.8662 90.7754 13.7779 87.9805 11.8262C85.082 9.80216 81.3051 8.98566 77.7002 9.21875C72.7929 9.53617 68.6152 12.1423 65.1396 15.8799C61.6629 19.6188 58.9117 24.4661 56.8682 29.2002C56.6824 29.6304 56.4586 30.2497 56.1865 30.9658C55.9176 31.6735 55.6067 32.462 55.2568 33.2002C54.9086 33.9349 54.5122 34.6401 54.0664 35.1719C53.6277 35.6951 53.0869 36.1154 52.4424 36.1416C51.4685 36.1812 50.7213 35.6985 50.1514 34.9814C49.59 34.275 49.1756 33.3138 48.8418 32.3096C48.5067 31.3013 48.2406 30.2099 47.9922 29.2344C47.7401 28.2444 47.5094 27.3889 47.2451 26.8018L47.2393 26.7891L47.2344 26.7754C45.4863 21.9155 43.3176 17.0095 40.3115 13.376C37.3201 9.76023 33.5195 7.42441 28.4756 7.625Z" fill="#F73476" stroke="#F73476" stroke-width="0.753846"/>
</svg>
