<svg width="37" height="37" viewBox="0 0 37 37" fill="none" xmlns="http://www.w3.org/2000/svg">
<path d="M10.5267 1.13883C12.6572 0.949772 14.5051 1.90623 15.9593 3.40836C17.2881 4.78102 18.3 6.62033 18.9241 8.50114C20.1506 6.1775 21.6273 4.06222 23.8362 2.74625L23.8382 2.74528C25.9134 1.5304 28.3308 1.29975 30.5579 2.10661H30.5569C32.6345 2.84866 33.9141 4.36112 34.5013 6.215C35.0861 8.06201 34.9834 10.2413 34.3206 12.34C32.0426 19.5535 25.6027 25.5417 19.8431 29.0265C20.2978 29.2716 20.7442 29.5306 21.1898 29.7834C21.6122 30.023 22.0364 30.2579 22.4739 30.4748L22.9163 30.6847L22.9232 30.6886C23.4309 30.9417 23.9475 31.1699 24.47 31.4025C24.9908 31.6344 25.517 31.87 26.0335 32.1369C26.2974 32.2732 26.5147 32.4611 26.6351 32.7189C26.7564 32.9789 26.7648 33.2793 26.6702 33.6105C26.5932 33.8803 26.4858 34.0931 26.3441 34.2482C26.1989 34.4068 26.0256 34.4959 25.8372 34.5295C25.486 34.5919 25.1008 34.4554 24.763 34.3127C24.5886 34.2626 24.246 34.1167 23.9251 33.9738C23.5862 33.8228 23.2445 33.6638 23.0872 33.591V33.59C21.1021 32.6841 19.1719 31.631 17.3079 30.4386C17.2937 30.4457 17.2802 30.4541 17.2659 30.4611C13.2746 32.4257 8.89712 33.7188 4.51007 33.7414H4.49933C4.25734 33.731 3.95009 33.7498 3.58527 33.7531C3.23486 33.7562 2.84799 33.7444 2.50519 33.6652C2.16421 33.5864 1.83047 33.4318 1.63116 33.1222C1.42946 32.8089 1.40002 32.3908 1.54816 31.8634C1.69728 31.3331 2.22016 31.1796 2.6546 31.1369C3.09742 31.0934 3.60661 31.1514 3.86066 31.1593C7.72749 31.2795 11.2519 30.2363 14.8655 28.7726C14.456 28.4983 14.0088 28.1395 13.5726 27.7677C12.9933 27.2741 12.416 26.7415 11.9593 26.3361C9.23435 23.917 6.44982 20.2128 4.94171 16.1701C3.43349 12.1267 3.19187 7.71224 5.60968 3.91325C6.69566 2.20683 8.71355 1.33519 10.5228 1.13883H10.5267ZM10.6868 3.68864C9.28734 3.91281 8.1779 4.38426 7.32257 5.6525C6.20665 7.30714 5.95666 9.91702 6.26495 11.924C7.29296 18.6155 12.111 23.6709 16.9661 27.1984C17.0654 27.2705 17.1559 27.3414 17.2542 27.4006C17.3315 27.447 17.3921 27.4707 17.4378 27.4797C17.6075 27.4116 17.8401 27.2833 18.0892 27.131C18.2219 27.0498 18.3547 26.9649 18.4808 26.8849C18.606 26.8055 18.7255 26.7298 18.8275 26.6681C21.941 24.7849 25.7975 21.5864 28.1194 18.5744L28.1204 18.5724C30.2829 15.8298 32.6061 12.1782 32.5355 8.38883C32.4913 6.83606 31.8135 5.76723 30.8577 5.09977C29.8939 4.42688 28.6325 4.1525 27.4241 4.23063C25.7884 4.33649 24.3893 5.20548 23.2181 6.465C22.0462 7.72528 21.1164 9.36317 20.4241 10.967C20.3622 11.1106 20.2871 11.3167 20.1937 11.5627C20.1021 11.8036 19.9959 12.0748 19.8753 12.3293C19.7556 12.5818 19.6158 12.8305 19.4564 13.0207C19.3012 13.2057 19.0945 13.3744 18.8343 13.3849C18.4636 13.4 18.1826 13.2142 17.9759 12.9543C17.7743 12.7005 17.6285 12.3604 17.514 12.0158C17.3987 11.669 17.308 11.294 17.2239 10.964C17.1377 10.6253 17.0606 10.343 16.9749 10.1525L16.972 10.1447L16.9691 10.1359C16.3756 8.48593 15.6421 6.83144 14.6312 5.60954C13.6281 4.3971 12.3631 3.6224 10.6868 3.68864Z" fill="currentColor" stroke="currentColor" stroke-width="0.45"/>
</svg>
