<svg width="659" height="646" viewBox="0 0 659 646" fill="none" xmlns="http://www.w3.org/2000/svg">
<path d="M656.078 646H3.92174C3.67728 646 3.44283 645.842 3.26997 645.561C3.09711 645.279 3 644.898 3 644.5C3 644.102 3.09711 643.721 3.26997 643.439C3.44283 643.158 3.67728 643 3.92174 643H656.078C656.323 643 656.557 643.158 656.73 643.439C656.903 643.721 657 644.102 657 644.5C657 644.898 656.903 645.279 656.73 645.561C656.557 645.842 656.323 646 656.078 646Z" fill="#E6E6E6"/>
<path d="M526.448 126.344L497.896 135.727V94.6379H523.804L526.448 126.344Z" fill="#F8A8AB"/>
<path d="M501.432 106.015C517.144 106.015 529.882 93.278 529.882 77.5659C529.882 61.8537 517.144 49.1164 501.432 49.1164C485.72 49.1164 472.983 61.8537 472.983 77.5659C472.983 93.278 485.72 106.015 501.432 106.015Z" fill="#F8A8AB"/>
<path d="M509.246 74.7404C504.483 74.5997 501.354 69.7857 499.509 65.394C497.664 61.0023 495.756 55.9568 491.337 54.1453C487.723 52.6637 481.349 62.6881 478.505 60.0186C475.53 57.234 478.429 42.9435 481.583 40.3799C484.737 37.8163 489.053 37.3154 493.115 37.1247C503.042 36.6683 512.987 37.4661 522.715 39.4991C528.729 40.7507 534.909 42.6408 539.249 46.9781C544.74 52.4942 546.144 60.8086 546.541 68.5841C546.949 76.5398 546.489 84.8632 542.62 91.8246C538.75 98.786 530.655 103.918 522.892 102.143C522.112 97.9295 522.904 93.5998 523.211 89.311C523.518 85.0221 523.199 80.4109 520.581 77.0029C517.963 73.5948 512.383 72.2404 509.344 75.2656" fill="#090814"/>
<path d="M544.246 84.6014C547.094 82.5206 550.504 80.7711 554.001 81.204C555.89 81.5098 557.649 82.3598 559.062 83.6501C560.475 84.9403 561.481 86.6147 561.957 88.468C562.388 90.3317 562.39 92.269 561.963 94.1337C561.537 95.9983 560.692 97.7418 559.493 99.2325C557.055 102.203 553.723 104.306 549.992 105.228C547.878 105.936 545.588 105.918 543.485 105.177C542.009 104.481 540.842 103.265 540.208 101.762C539.573 100.258 539.517 98.5731 540.05 97.0306" fill="#090814"/>
<path d="M517.021 583.601H490.283V621.537H517.021V583.601Z" fill="#F8A8AB"/>
<path d="M464.236 644.496C461.425 644.496 458.924 644.433 457.038 644.254C449.939 643.603 443.159 638.352 439.75 635.29C439.004 634.619 438.486 633.732 438.266 632.753C438.046 631.773 438.136 630.75 438.524 629.824C438.802 629.156 439.228 628.56 439.77 628.079C440.312 627.599 440.955 627.248 441.652 627.052L460.417 621.69L490.802 601.184L491.147 601.789C492.803 604.732 494.179 607.822 495.259 611.021C495.46 611.579 495.538 612.173 495.487 612.764C495.436 613.355 495.258 613.927 494.966 614.443C494.617 614.961 494.127 615.369 493.554 615.617C494.103 616.19 495.824 617.366 501.138 618.209C508.888 619.435 510.521 611.399 510.594 611.071L510.645 610.803L510.875 610.652C514.566 608.277 516.839 607.192 517.617 607.422C518.103 607.563 518.92 607.819 521.128 629.691C522.2 633.096 522.445 636.707 521.844 640.225C520.708 645.462 497.826 643.661 493.242 643.252C493.115 643.264 475.979 644.492 464.245 644.492H464.232L464.236 644.496Z" fill="#2F2E43"/>
<path d="M593.16 553.77L570.473 567.919L590.548 600.109L613.235 585.96L593.16 553.77Z" fill="#F8A8AB"/>
<path d="M563.013 639.298C560.304 639.28 557.6 639.032 554.932 638.556C553.945 638.379 553.038 637.901 552.333 637.188C551.629 636.474 551.162 635.56 550.997 634.572C550.88 633.857 550.926 633.125 551.131 632.431C551.337 631.737 551.696 631.098 552.184 630.563L565.283 616.083L580.223 582.603L580.829 582.935C583.791 584.555 586.595 586.449 589.205 588.592C589.672 588.958 590.052 589.423 590.32 589.952C590.589 590.481 590.738 591.063 590.758 591.656C590.74 592.282 590.541 592.89 590.184 593.405C590.95 593.61 593.032 593.688 597.985 591.589C605.212 588.537 602.351 580.845 602.223 580.531L602.121 580.276L602.236 580.034C604.113 576.063 605.454 573.942 606.245 573.726C606.743 573.585 607.56 573.369 621.006 590.772C623.718 593.091 625.837 596.024 627.185 599.327C628.986 604.371 608.62 614.957 604.52 617.026C604.393 617.127 583.08 632.613 574.32 637.022C570.769 638.64 566.894 639.423 562.994 639.308L563.013 639.298Z" fill="#2F2E43"/>
<path d="M536.713 266.356H461.848L455.054 336L484.779 593.321H522.996L507.711 444.702L569.704 578.879L603.669 555.103L555.27 429.835C555.27 429.835 572.558 320.711 558.973 293.527C545.387 266.342 536.716 266.353 536.716 266.353L536.713 266.356Z" fill="#2F2E41"/>
<path d="M573.949 270.593H455.056L490.718 116.881H542.524L573.949 270.593Z" fill="#F73476"/>
<path d="M425.52 113.857C423.617 104.511 427.103 95.9682 433.282 94.7802C439.461 93.5922 446.012 100.221 447.902 109.567C448.706 113.294 448.579 117.162 447.533 120.828L455.053 160.552L435.618 163.63L430.269 124.148C427.868 121.158 426.239 117.624 425.52 113.857Z" fill="#F8A8AB"/>
<path d="M541.258 116.881H495.577L464.779 178.474L453.16 132.317L427.636 135.025C427.636 135.025 433.676 225.211 460.068 222.16C486.461 219.109 548.021 137.867 541.253 116.867H541.265L541.258 116.881Z" fill="#F73476"/>
<path d="M592.271 351.129C594.173 360.476 590.688 369.02 584.509 370.206C578.33 371.393 571.779 364.766 569.888 355.42C569.084 351.692 569.211 347.824 570.258 344.157L562.738 304.433L582.172 301.355L587.522 340.837C589.922 343.828 591.553 347.361 592.272 351.128L592.271 351.129Z" fill="#F8A8AB"/>
<path d="M515.21 116.883C515.21 116.883 541.17 115.785 542.523 116.883C549.61 122.668 591.174 331.453 591.174 331.453H564.842L515.21 116.883Z" fill="#F73476"/>
<path d="M119.068 207.665L146.535 262.037L228.643 299.368C237.412 314.189 265.28 315.323 267.307 305.743C269.582 294.992 233.465 277.689 233.465 277.689L164.78 231.232L158.768 191.237L119.068 207.665Z" fill="#ED9DA0"/>
<path d="M122.31 572.534L117.245 613.052L146.621 615.079L149.657 572.535L122.31 572.534Z" fill="#ED9DA0"/>
<path d="M126.286 607.678C123.673 605.079 121.263 602.307 119.075 599.382C114.889 593.929 111.17 621.899 111.17 621.899C111.17 621.899 107.136 633.275 108.148 638.964C109.161 644.652 132.347 644.652 136.38 643.707C140.414 642.762 160.578 643.707 160.578 643.707H190.828C217.045 632.33 190.828 624.746 190.828 624.746C182.76 623.799 155.538 600.096 155.538 600.096L149.488 589.667C145.456 588.719 141.421 602.939 141.421 602.939L126.286 607.678Z" fill="#090814"/>
<path d="M46.3338 573.041L41.2656 613.558L70.6438 615.585L73.6789 573.041H46.3338Z" fill="#ED9DA0"/>
<path d="M50.3033 607.836C47.6908 605.214 45.2809 602.417 43.0919 599.467C38.9016 593.967 35.1838 622.179 35.1838 622.179C35.1838 622.179 31.1516 632.697 32.1627 638.435C33.1738 644.172 56.3609 644.166 60.3947 643.219C64.4285 642.272 84.5928 644.175 84.5928 644.175H114.842C141.06 632.7 114.842 625.049 114.842 625.049C106.775 624.092 79.5525 600.186 79.5525 600.186L73.5025 589.667C69.4703 588.711 65.435 603.054 65.435 603.054L50.3033 607.836Z" fill="#090814"/>
<path d="M79.7647 311.693C75.7123 316.761 77.7392 333.979 77.7392 333.979C77.7392 333.979 70.6486 389.693 73.6883 394.758C76.7281 399.823 71.6629 403.874 68.6201 410.966C65.5773 418.059 62.5407 435.276 62.5407 435.276C45.3197 449.458 46.3324 514.289 46.3324 514.289L40.2607 572.028C42.2862 578.106 70.6502 579.119 74.7041 578.106C78.7581 577.093 90.9124 485.928 90.9124 485.928L118.262 434.265C118.262 434.265 116.237 572.03 116.237 578.112C116.237 584.195 143.586 581.147 149.664 581.147C155.742 581.147 155.742 479.849 155.742 479.849L161.82 453.513L194.237 332.973V318.791L189.168 311.701C189.168 311.701 83.8156 306.628 79.7647 311.693Z" fill="#090814"/>
<path d="M140.036 65.0321C133.672 79.2134 137.439 99.0085 150.173 120.746L98.51 96.4374L106.615 89.3468L104.594 69.0907L140.036 65.0321Z" fill="#ED9DA0"/>
<path d="M124.334 81.7506C141.678 81.7506 155.738 67.6906 155.738 50.3468C155.738 33.003 141.678 18.9431 124.334 18.9431C106.99 18.9431 92.9302 33.003 92.9302 50.3468C92.9302 67.6906 106.99 81.7506 124.334 81.7506Z" fill="#ED9DA0"/>
<path d="M140.036 97.447C146.802 101.469 150.848 108.854 153.171 116.379C157.471 130.301 160.059 144.694 160.878 159.242L163.331 202.792L193.72 318.274C167.385 340.56 152.194 335.494 116.734 317.261C81.2751 299.027 77.2274 323.343 77.2274 323.343C77.2274 323.343 74.1923 322.331 77.2274 319.292C80.2625 316.254 77.2273 319.292 74.1922 316.257C71.1571 313.222 74.1923 316.257 75.205 313.222C76.2177 310.187 75.2049 312.208 74.1922 311.197C73.1795 310.186 78.2432 301.06 78.2432 301.06L70.1429 225.083L60.0063 117.708C72.1621 102.512 106.601 89.3453 106.601 89.3453L138.009 111.631C148.146 115.682 140.035 99.4756 140.035 99.4756L140.036 97.447Z" fill="#B3191F"/>
<path d="M43.2972 182.032L39.2463 242.811L90.9138 316.758C90.9138 333.979 100.03 338.03 100.03 338.03C103.483 332.519 106.53 326.763 109.146 320.809C114.214 309.666 106.111 300.55 106.111 300.55L70.6578 225.591L85.8533 188.111L43.2972 182.032Z" fill="#ED9DA0"/>
<path d="M60.5089 118.215C43.2879 124.293 40.2498 190.138 40.2498 190.138C60.5089 178.995 84.8205 197.229 84.8205 197.229C84.8205 197.229 89.8888 180.008 95.9636 157.723C97.7989 151.455 98.0182 144.823 96.6011 138.447C95.184 132.07 92.1765 126.156 87.8587 121.255C87.8587 121.255 77.7391 112.139 60.5089 118.215Z" fill="#B3191F"/>
<path d="M115.645 50.8802C119.138 51.3349 121.772 47.7618 122.991 44.457C124.21 41.1521 125.149 37.3093 128.18 35.5244C132.329 33.0873 137.635 36.0192 142.378 35.2161C147.734 34.3082 151.216 28.631 151.492 23.2052C151.768 17.7793 149.606 12.5693 147.485 7.55958L146.745 13.7762C146.843 11.6692 146.4 9.57209 145.457 7.6854C144.513 5.79871 143.102 4.1855 141.357 3L142.307 12.1222C142.104 10.8646 141.655 9.65938 140.985 8.57568C140.315 7.49198 139.438 6.55109 138.404 5.80692C137.37 5.06274 136.199 4.52991 134.959 4.23896C133.719 3.94801 132.433 3.90465 131.176 4.11138L131.33 9.54649C125.162 8.5962 118.911 8.28987 112.679 8.63242C106.414 8.99577 100.418 11.3072 95.5305 15.2436C88.4969 21.3585 85.9273 31.4226 86.7828 40.702C87.6383 49.9815 91.4811 58.6999 95.475 67.1238C96.4785 69.2418 97.8688 71.6326 100.198 71.9023C101.254 71.9166 102.285 71.5792 103.128 70.9432C103.972 70.3072 104.58 69.4088 104.856 68.3894C105.357 66.3335 105.338 64.1852 104.799 62.1388C103.976 59.058 103.715 55.854 104.028 52.6806C104.58 49.5468 106.837 46.4485 109.995 46.0663C113.154 45.684 116.388 49.294 114.869 52.0948L115.645 50.8802Z" fill="#090814"/>
<path d="M224.732 338.898L276.261 240.232C277.255 238.335 278.961 236.909 281.004 236.268C283.048 235.627 285.262 235.822 287.162 236.812L361.957 275.875C363.855 276.868 365.28 278.574 365.922 280.618C366.563 282.662 366.367 284.876 365.378 286.776L313.849 385.442C312.855 387.339 311.149 388.765 309.106 389.406C307.062 390.047 304.848 389.852 302.948 388.862L228.153 349.798C226.256 348.804 224.83 347.098 224.189 345.055C223.548 343.012 223.743 340.797 224.732 338.898Z" fill="#E6E6E6"/>
<path d="M265.273 349.196C268.131 351.212 272.081 350.53 274.098 347.673C276.114 344.815 275.432 340.864 272.574 338.848C269.717 336.832 265.766 337.514 263.75 340.371C261.734 343.229 262.416 347.18 265.273 349.196Z" fill="#F73476"/>
<path d="M321.586 278.383C310.942 269.685 295.148 271.101 286.226 281.558C286.143 281.655 285.573 282.341 284.828 283.241C283.736 284.558 283.212 286.255 283.371 287.959C283.531 289.662 284.36 291.233 285.677 292.325C286.33 292.866 287.083 293.273 287.894 293.523C288.704 293.773 289.556 293.861 290.4 293.782C291.245 293.703 292.065 293.458 292.815 293.061C293.565 292.665 294.229 292.125 294.77 291.471C295.277 290.859 295.627 290.435 295.649 290.409C297.004 288.774 298.762 287.519 300.749 286.769C302.737 286.019 304.885 285.799 306.983 286.131C309.081 286.463 311.057 287.335 312.715 288.662C314.374 289.989 315.659 291.725 316.443 293.699C317.227 295.673 317.484 297.817 317.189 299.921C316.893 302.024 316.055 304.015 314.756 305.696C313.458 307.377 311.745 308.692 309.784 309.51C307.824 310.328 305.685 310.622 303.576 310.363L303.576 310.366C303.576 310.366 292.734 309.056 285.403 313.513L285.405 313.514C283.966 314.479 282.673 315.647 281.569 316.982C281.114 317.531 277.169 322.355 274.003 326.302C272.91 327.663 272.397 329.4 272.574 331.136C272.751 332.873 273.603 334.471 274.948 335.584C275.623 336.144 276.402 336.565 277.241 336.822C278.079 337.08 278.96 337.169 279.833 337.084C280.706 337 281.554 336.744 282.328 336.331C283.101 335.917 283.786 335.355 284.341 334.677C287.276 331.092 290.707 326.93 290.957 326.628C294.135 322.794 301 322.04 306.103 322.068C311.98 322.099 317.738 320.277 322.404 316.706C323.38 315.984 324.274 315.157 325.07 314.239C327.207 311.661 328.813 308.686 329.795 305.484C330.777 302.283 331.116 298.919 330.792 295.586C330.468 292.253 329.488 289.017 327.908 286.064C326.328 283.112 324.18 280.501 321.586 278.383Z" fill="#F73476"/>
</svg>
