<svg width="220" height="43" viewBox="0 0 220 43" fill="none" xmlns="http://www.w3.org/2000/svg">
<path d="M10.5267 1.13883C12.6572 0.949772 14.5051 1.90623 15.9593 3.40836C17.2881 4.78102 18.3 6.62033 18.9241 8.50114C20.1506 6.1775 21.6273 4.06222 23.8362 2.74625L23.8382 2.74528C25.9134 1.5304 28.3308 1.29975 30.5579 2.10661H30.5569C32.6345 2.84866 33.9141 4.36112 34.5013 6.215C35.0861 8.06201 34.9834 10.2413 34.3206 12.34C32.0426 19.5535 25.6027 25.5417 19.8431 29.0265C20.2978 29.2716 20.7442 29.5306 21.1898 29.7834C21.6122 30.023 22.0364 30.2579 22.4739 30.4748L22.9163 30.6847L22.9232 30.6886C23.4309 30.9417 23.9475 31.1699 24.47 31.4025C24.9908 31.6344 25.517 31.87 26.0335 32.1369C26.2974 32.2732 26.5147 32.4611 26.6351 32.7189C26.7564 32.9789 26.7648 33.2793 26.6702 33.6105C26.5932 33.8803 26.4858 34.0931 26.3441 34.2482C26.1989 34.4068 26.0256 34.4959 25.8372 34.5295C25.486 34.5919 25.1008 34.4554 24.763 34.3127C24.5886 34.2626 24.246 34.1167 23.9251 33.9738C23.5862 33.8228 23.2445 33.6638 23.0872 33.591V33.59C21.1021 32.6841 19.1719 31.631 17.3079 30.4386C17.2937 30.4457 17.2802 30.4541 17.2659 30.4611C13.2746 32.4257 8.89712 33.7188 4.51007 33.7414H4.49933C4.25734 33.731 3.95009 33.7498 3.58527 33.7531C3.23486 33.7562 2.84799 33.7444 2.50519 33.6652C2.16421 33.5864 1.83047 33.4318 1.63116 33.1222C1.42946 32.8089 1.40002 32.3908 1.54816 31.8634C1.69728 31.3331 2.22016 31.1796 2.6546 31.1369C3.09742 31.0934 3.60661 31.1514 3.86066 31.1593C7.72749 31.2795 11.2519 30.2363 14.8655 28.7726C14.456 28.4983 14.0088 28.1395 13.5726 27.7677C12.9933 27.2741 12.416 26.7415 11.9593 26.3361C9.23435 23.917 6.44982 20.2128 4.94171 16.1701C3.43349 12.1267 3.19187 7.71224 5.60968 3.91325C6.69566 2.20683 8.71355 1.33519 10.5228 1.13883H10.5267ZM10.6868 3.68864C9.28734 3.91281 8.1779 4.38426 7.32257 5.6525C6.20665 7.30714 5.95666 9.91702 6.26495 11.924C7.29296 18.6155 12.111 23.6709 16.9661 27.1984C17.0654 27.2705 17.1559 27.3414 17.2542 27.4006C17.3315 27.447 17.3921 27.4707 17.4378 27.4797C17.6075 27.4116 17.8401 27.2833 18.0892 27.131C18.2219 27.0498 18.3547 26.9649 18.4808 26.8849C18.606 26.8055 18.7255 26.7298 18.8275 26.6681C21.941 24.7849 25.7975 21.5864 28.1194 18.5744L28.1204 18.5724C30.2829 15.8298 32.6061 12.1782 32.5355 8.38883C32.4913 6.83606 31.8135 5.76723 30.8577 5.09977C29.8939 4.42688 28.6325 4.1525 27.4241 4.23063C25.7884 4.33649 24.3893 5.20548 23.2181 6.465C22.0462 7.72528 21.1164 9.36317 20.4241 10.967C20.3622 11.1106 20.2871 11.3167 20.1937 11.5627C20.1021 11.8036 19.9959 12.0748 19.8753 12.3293C19.7556 12.5818 19.6158 12.8305 19.4564 13.0207C19.3012 13.2057 19.0945 13.3744 18.8343 13.3849C18.4636 13.4 18.1826 13.2142 17.9759 12.9543C17.7743 12.7005 17.6285 12.3604 17.514 12.0158C17.3987 11.669 17.308 11.294 17.2239 10.964C17.1377 10.6253 17.0606 10.343 16.9749 10.1525L16.972 10.1447L16.9691 10.1359C16.3756 8.48593 15.6421 6.83144 14.6312 5.60954C13.6281 4.3971 12.3631 3.6224 10.6868 3.68864Z" fill="#F73476" stroke="#F73476" stroke-width="0.45"/>
<path d="M48.8984 27.1172C48.8984 25.5286 48.9245 23.9401 48.9766 22.3516C49.0547 20.737 49.1328 19.1354 49.2109 17.5469C49.2891 15.9323 49.3411 14.3307 49.3672 12.7422C49.4193 11.1276 49.4193 9.52604 49.3672 7.9375C49.4453 7.65104 49.5885 7.44271 49.7969 7.3125C50.0052 7.15625 50.2526 7.07812 50.5391 7.07812C51.0859 7.07812 51.5026 7.18229 51.7891 7.39062C52.0755 7.57292 52.2839 7.83333 52.4141 8.17188C52.5443 8.51042 52.6224 8.88802 52.6484 9.30469C52.6745 9.72135 52.7005 10.138 52.7266 10.5547C53.0391 11.1276 53.4036 11.6875 53.8203 12.2344C54.263 12.7552 54.6536 13.2891 54.9922 13.8359C54.9922 13.862 55.0052 13.9271 55.0312 14.0312C55.0833 14.1094 55.1224 14.1484 55.1484 14.1484C55.3047 14.3828 55.5 14.6953 55.7344 15.0859C55.9948 15.4505 56.2422 15.8151 56.4766 16.1797C56.7109 16.5182 56.9062 16.8177 57.0625 17.0781C57.2448 17.3385 57.3359 17.4688 57.3359 17.4688L57.4922 17.6641L59.7578 20.9453C59.862 21.0495 59.9531 21.1016 60.0312 21.1016H60.1094C59.7708 18.3411 59.4974 15.5286 59.2891 12.6641C59.0807 9.77344 58.9766 6.92188 58.9766 4.10938V2.15625C59.1849 1.81771 59.5365 1.64844 60.0312 1.64844C60.526 1.64844 60.8906 1.76562 61.125 2C61.3594 2.23438 61.5156 2.53385 61.5938 2.89844C61.6719 3.23698 61.7109 3.61458 61.7109 4.03125C61.7109 4.42188 61.724 4.78646 61.75 5.125C61.75 5.15104 61.763 5.20312 61.7891 5.28125C61.8151 5.33333 61.8411 5.47656 61.8672 5.71094C61.9193 5.91927 61.9583 6.25781 61.9844 6.72656C62.0365 7.16927 62.0885 7.79427 62.1406 8.60156C62.2188 9.40885 62.2839 10.4245 62.3359 11.6484C62.4141 12.8724 62.5052 14.3698 62.6094 16.1406V16.8438L63.9375 25.5547C63.9635 25.763 64.0677 26.0885 64.25 26.5312C64.4583 26.9479 64.5625 27.2734 64.5625 27.5078C64.5625 28.0547 64.4062 28.4974 64.0938 28.8359C63.7812 29.1745 63.3385 29.3438 62.7656 29.3438C62.6875 29.3438 62.5833 29.3177 62.4531 29.2656C62.3229 29.1875 62.1927 29.1094 62.0625 29.0312C61.9323 28.9531 61.8021 28.875 61.6719 28.7969C61.5677 28.6927 61.4896 28.6146 61.4375 28.5625L55.1484 19.6172C55.1224 19.6172 55.0964 19.5781 55.0703 19.5C55.0443 19.3958 55.0182 19.3177 54.9922 19.2656C54.8359 19.0312 54.6276 18.7448 54.3672 18.4062C54.1068 18.0417 53.8594 17.6901 53.625 17.3516C53.3906 16.987 53.1823 16.6745 53 16.4141C52.8177 16.1536 52.7266 16.0104 52.7266 15.9844L52.5312 15.8281C52.401 18.3021 52.2969 20.8021 52.2188 23.3281C52.1406 25.8281 52.1406 28.3281 52.2188 30.8281C52.1667 31.1406 51.9974 31.4141 51.7109 31.6484C51.4505 31.8828 51.1771 32 50.8906 32C50.3698 32 49.9531 31.8698 49.6406 31.6094C49.3542 31.3229 49.1068 30.9583 48.8984 30.5156V27.1172ZM66.3984 26.0234L67.8438 15.9844C67.8958 15.6458 68.0391 15.3984 68.2734 15.2422C68.5339 15.0859 68.8203 15.0078 69.1328 15.0078C69.7057 15.0078 70.1615 15.1771 70.5 15.5156C70.8385 15.8281 71.125 16.2188 71.3594 16.6875H71.3984C71.7109 16.6875 71.9844 16.6354 72.2188 16.5312C72.4792 16.401 72.7917 16.3359 73.1562 16.3359C73.9896 16.3359 74.6927 16.5964 75.2656 17.1172C75.8646 17.638 76.3464 18.276 76.7109 19.0312C77.0755 19.7604 77.3359 20.5547 77.4922 21.4141C77.6745 22.2734 77.7656 23.0286 77.7656 23.6797C77.7656 24.4609 77.5573 25.3333 77.1406 26.2969C76.75 27.2604 76.2161 28.1719 75.5391 29.0312C74.888 29.8906 74.1458 30.6068 73.3125 31.1797C72.4792 31.7526 71.6328 32.0391 70.7734 32.0391C69.9922 32.0391 69.3151 31.8568 68.7422 31.4922C68.1953 31.1276 67.7396 30.6719 67.375 30.125C67.0365 29.5521 66.7891 28.9141 66.6328 28.2109C66.4766 27.5078 66.3984 26.8177 66.3984 26.1406V26.0234ZM69.6797 26.2578C69.7318 26.5182 69.7839 26.8177 69.8359 27.1562C69.888 27.4948 69.9661 27.8073 70.0703 28.0938C70.1745 28.3542 70.3177 28.5625 70.5 28.7188C70.7083 28.849 70.9948 28.849 71.3594 28.7188C71.6979 28.4062 72.0625 28.0547 72.4531 27.6641C72.8438 27.2734 73.2083 26.8568 73.5469 26.4141C73.9115 25.9714 74.2109 25.5026 74.4453 25.0078C74.6797 24.513 74.7969 23.9922 74.7969 23.4453C74.901 22.5599 74.8359 21.7526 74.6016 21.0234C74.3672 20.2682 74.0286 19.7344 73.5859 19.4219C73.1693 19.0833 72.6875 19.0443 72.1406 19.3047C71.5938 19.5391 71.0469 20.2031 70.5 21.2969C70.1875 21.974 69.9661 22.7682 69.8359 23.6797C69.7318 24.5651 69.6797 25.3854 69.6797 26.1406V26.2578ZM85.3828 30.5156C85.3828 30.3854 85.3828 30.2682 85.3828 30.1641C85.4089 30.0599 85.474 29.9557 85.5781 29.8516C85.8906 29.4609 86.2422 29.0573 86.6328 28.6406C87.0234 28.1979 87.401 27.7682 87.7656 27.3516C88.1302 26.9089 88.4688 26.4531 88.7812 25.9844C89.0938 25.5156 89.3542 25.0469 89.5625 24.5781V24.3438L84.4453 25.3984H83.8594C83.4948 25.3984 83.0391 25.3724 82.4922 25.3203C81.9714 25.2682 81.4505 25.1641 80.9297 25.0078C80.4349 24.8255 80.0052 24.5781 79.6406 24.2656C79.3021 23.9531 79.1328 23.5365 79.1328 23.0156C79.1589 22.4167 79.4714 21.7526 80.0703 21.0234C80.6693 20.2943 81.3724 19.5781 82.1797 18.875C82.987 18.1719 83.7943 17.5208 84.6016 16.9219C85.4349 16.3229 86.099 15.8542 86.5938 15.5156C87.1406 15.2031 87.7917 14.9557 88.5469 14.7734C89.3021 14.5651 89.9922 14.4609 90.6172 14.4609C91.138 14.4609 91.5938 14.5651 91.9844 14.7734C92.375 14.9557 92.5703 15.3333 92.5703 15.9062C92.5703 16.1406 92.5443 16.362 92.4922 16.5703C92.4661 16.7786 92.3099 16.9219 92.0234 17C91.1901 16.9219 90.4089 16.987 89.6797 17.1953C88.9505 17.3776 88.2604 17.6641 87.6094 18.0547C86.9583 18.4453 86.3464 18.9141 85.7734 19.4609C85.2005 19.9818 84.6406 20.5286 84.0938 21.1016C83.9375 21.2839 83.7422 21.5443 83.5078 21.8828C83.2734 22.1953 83.1562 22.3776 83.1562 22.4297V22.4688C83.8333 22.4688 84.4974 22.4036 85.1484 22.2734C85.8255 22.1432 86.4896 22.013 87.1406 21.8828C87.8177 21.7266 88.4818 21.5833 89.1328 21.4531C89.8099 21.3229 90.5 21.2578 91.2031 21.2578C91.4635 21.2578 91.75 21.2839 92.0625 21.3359C92.375 21.362 92.6615 21.4401 92.9219 21.5703C93.2083 21.7005 93.4297 21.8828 93.5859 22.1172C93.7682 22.3255 93.8594 22.599 93.8594 22.9375C93.8594 23.4323 93.7292 23.9141 93.4688 24.3828C93.2344 24.8255 92.8698 25.3724 92.375 26.0234C91.9062 26.6484 91.2943 27.4167 90.5391 28.3281C89.8099 29.2396 88.9375 30.4115 87.9219 31.8438C87.8698 31.9219 87.7396 31.974 87.5312 32C87.349 32.026 87.1927 32.0391 87.0625 32.0391C86.6979 32.0391 86.3203 31.8828 85.9297 31.5703C85.5651 31.2578 85.3828 30.9062 85.3828 30.5156ZM101.477 30.5156C101.477 30.3854 101.477 30.2682 101.477 30.1641C101.503 30.0599 101.568 29.9557 101.672 29.8516C101.984 29.4609 102.336 29.0573 102.727 28.6406C103.117 28.1979 103.495 27.7682 103.859 27.3516C104.224 26.9089 104.562 26.4531 104.875 25.9844C105.188 25.5156 105.448 25.0469 105.656 24.5781V24.3438L100.539 25.3984H99.9531C99.5885 25.3984 99.1328 25.3724 98.5859 25.3203C98.0651 25.2682 97.5443 25.1641 97.0234 25.0078C96.5286 24.8255 96.099 24.5781 95.7344 24.2656C95.3958 23.9531 95.2266 23.5365 95.2266 23.0156C95.2526 22.4167 95.5651 21.7526 96.1641 21.0234C96.763 20.2943 97.4661 19.5781 98.2734 18.875C99.0807 18.1719 99.888 17.5208 100.695 16.9219C101.529 16.3229 102.193 15.8542 102.688 15.5156C103.234 15.2031 103.885 14.9557 104.641 14.7734C105.396 14.5651 106.086 14.4609 106.711 14.4609C107.232 14.4609 107.688 14.5651 108.078 14.7734C108.469 14.9557 108.664 15.3333 108.664 15.9062C108.664 16.1406 108.638 16.362 108.586 16.5703C108.56 16.7786 108.404 16.9219 108.117 17C107.284 16.9219 106.503 16.987 105.773 17.1953C105.044 17.3776 104.354 17.6641 103.703 18.0547C103.052 18.4453 102.44 18.9141 101.867 19.4609C101.294 19.9818 100.734 20.5286 100.188 21.1016C100.031 21.2839 99.8359 21.5443 99.6016 21.8828C99.3672 22.1953 99.25 22.3776 99.25 22.4297V22.4688C99.9271 22.4688 100.591 22.4036 101.242 22.2734C101.919 22.1432 102.583 22.013 103.234 21.8828C103.911 21.7266 104.576 21.5833 105.227 21.4531C105.904 21.3229 106.594 21.2578 107.297 21.2578C107.557 21.2578 107.844 21.2839 108.156 21.3359C108.469 21.362 108.755 21.4401 109.016 21.5703C109.302 21.7005 109.523 21.8828 109.68 22.1172C109.862 22.3255 109.953 22.599 109.953 22.9375C109.953 23.4323 109.823 23.9141 109.562 24.3828C109.328 24.8255 108.964 25.3724 108.469 26.0234C108 26.6484 107.388 27.4167 106.633 28.3281C105.904 29.2396 105.031 30.4115 104.016 31.8438C103.964 31.9219 103.833 31.974 103.625 32C103.443 32.026 103.286 32.0391 103.156 32.0391C102.792 32.0391 102.414 31.8828 102.023 31.5703C101.659 31.2578 101.477 30.9062 101.477 30.5156ZM111.789 26.0234L113.234 15.9844C113.286 15.6458 113.43 15.3984 113.664 15.2422C113.924 15.0859 114.211 15.0078 114.523 15.0078C115.096 15.0078 115.552 15.1771 115.891 15.5156C116.229 15.8281 116.516 16.2188 116.75 16.6875H116.789C117.102 16.6875 117.375 16.6354 117.609 16.5312C117.87 16.401 118.182 16.3359 118.547 16.3359C119.38 16.3359 120.083 16.5964 120.656 17.1172C121.255 17.638 121.737 18.276 122.102 19.0312C122.466 19.7604 122.727 20.5547 122.883 21.4141C123.065 22.2734 123.156 23.0286 123.156 23.6797C123.156 24.4609 122.948 25.3333 122.531 26.2969C122.141 27.2604 121.607 28.1719 120.93 29.0312C120.279 29.8906 119.536 30.6068 118.703 31.1797C117.87 31.7526 117.023 32.0391 116.164 32.0391C115.383 32.0391 114.706 31.8568 114.133 31.4922C113.586 31.1276 113.13 30.6719 112.766 30.125C112.427 29.5521 112.18 28.9141 112.023 28.2109C111.867 27.5078 111.789 26.8177 111.789 26.1406V26.0234ZM115.07 26.2578C115.122 26.5182 115.174 26.8177 115.227 27.1562C115.279 27.4948 115.357 27.8073 115.461 28.0938C115.565 28.3542 115.708 28.5625 115.891 28.7188C116.099 28.849 116.385 28.849 116.75 28.7188C117.089 28.4062 117.453 28.0547 117.844 27.6641C118.234 27.2734 118.599 26.8568 118.938 26.4141C119.302 25.9714 119.602 25.5026 119.836 25.0078C120.07 24.513 120.188 23.9922 120.188 23.4453C120.292 22.5599 120.227 21.7526 119.992 21.0234C119.758 20.2682 119.419 19.7344 118.977 19.4219C118.56 19.0833 118.078 19.0443 117.531 19.3047C116.984 19.5391 116.438 20.2031 115.891 21.2969C115.578 21.974 115.357 22.7682 115.227 23.6797C115.122 24.5651 115.07 25.3854 115.07 26.1406V26.2578Z" fill="#F73476"/>
<path d="M140.516 14.8516C140.49 14.6432 140.451 14.3828 140.398 14.0703C140.372 13.7318 140.333 13.4193 140.281 13.1328C140.255 12.8203 140.229 12.5599 140.203 12.3516C140.177 12.1432 140.164 12.0391 140.164 12.0391H139.852L135.398 13.3672C135.268 13.5755 135.047 13.6797 134.734 13.6797C134.448 13.6797 134.227 13.6797 134.07 13.6797C133.706 13.6797 133.328 13.5234 132.938 13.2109C132.573 12.8724 132.391 12.5078 132.391 12.1172C132.391 11.8307 132.482 11.5573 132.664 11.2969C132.872 11.0104 133.12 10.8151 133.406 10.7109L139.695 8.71875C139.773 8.43229 139.917 8.14583 140.125 7.85938C140.359 7.54688 140.659 7.39062 141.023 7.39062C141.388 7.39062 141.688 7.48177 141.922 7.66406C142.182 7.84635 142.469 7.98958 142.781 8.09375C143.016 8.06771 143.406 7.98958 143.953 7.85938C144.5 7.72917 145.073 7.59896 145.672 7.46875C146.297 7.3125 146.883 7.16927 147.43 7.03906C147.977 6.90885 148.354 6.81771 148.562 6.76562C148.875 6.71354 149.109 6.64844 149.266 6.57031C149.422 6.49219 149.669 6.45312 150.008 6.45312C150.451 6.45312 150.906 6.58333 151.375 6.84375C151.844 7.10417 152.078 7.49479 152.078 8.01562C152.078 8.35417 151.961 8.65365 151.727 8.91406C151.492 9.14844 151.206 9.30469 150.867 9.38281L143.445 11.2578V11.6094C143.445 12.4167 143.51 13.2109 143.641 13.9922C143.797 14.7734 143.849 15.5547 143.797 16.3359L145.125 28.4062V29.2656C145.125 29.5781 145.112 29.9036 145.086 30.2422C145.086 30.5547 145.034 30.8411 144.93 31.1016C144.852 31.362 144.708 31.5833 144.5 31.7656C144.292 31.9219 143.979 32 143.562 32C143.25 32 142.911 31.8698 142.547 31.6094C142.208 31.349 142.026 31.0365 142 30.6719L140.516 15.1641V14.8516ZM166.766 20.9062C166.714 21.375 166.648 21.7396 166.57 22C166.518 22.2604 166.414 22.4948 166.258 22.7031C166.102 22.9115 165.88 23.1328 165.594 23.3672C165.307 23.5755 164.917 23.888 164.422 24.3047C163.927 24.6953 163.315 25.2161 162.586 25.8672C161.857 26.5182 160.971 27.3646 159.93 28.4062C159.513 28.7969 159.083 29.2005 158.641 29.6172C158.198 30.0339 157.729 30.4115 157.234 30.75C156.766 31.0625 156.271 31.3229 155.75 31.5312C155.229 31.7396 154.682 31.8438 154.109 31.8438C152.99 31.8438 152.169 31.4661 151.648 30.7109C151.128 29.9557 150.867 29.0833 150.867 28.0938C150.867 27.4427 150.88 26.8958 150.906 26.4531C150.958 26.0104 151.062 25.4375 151.219 24.7344C150.932 24.474 150.685 24.2526 150.477 24.0703C150.268 23.862 150.164 23.5885 150.164 23.25C150.164 22.9375 150.229 22.7292 150.359 22.625C150.516 22.5208 150.685 22.4557 150.867 22.4297C151.076 22.3776 151.271 22.3255 151.453 22.2734C151.635 22.2214 151.766 22.1172 151.844 21.9609C151.896 21.8047 151.987 21.5182 152.117 21.1016C152.273 20.6849 152.43 20.2552 152.586 19.8125C152.742 19.3438 152.885 18.9141 153.016 18.5234C153.172 18.1068 153.276 17.8203 153.328 17.6641C153.51 17.2214 153.706 16.7786 153.914 16.3359C154.148 15.8672 154.409 15.4505 154.695 15.0859C155.008 14.7214 155.359 14.4219 155.75 14.1875C156.167 13.9531 156.648 13.8359 157.195 13.8359C157.508 13.8359 157.885 13.9792 158.328 14.2656C158.797 14.5521 159.24 14.9036 159.656 15.3203C160.073 15.7109 160.424 16.1276 160.711 16.5703C160.997 17.013 161.141 17.3906 161.141 17.7031C161.141 18.0938 161.049 18.4583 160.867 18.7969C160.685 19.1094 160.451 19.4089 160.164 19.6953C159.904 19.9557 159.617 20.2031 159.305 20.4375C158.992 20.6719 158.706 20.8932 158.445 21.1016C158.419 21.1016 158.367 21.1276 158.289 21.1797C158.211 21.2318 158.146 21.2708 158.094 21.2969C158.068 21.3229 158.003 21.388 157.898 21.4922C157.82 21.5703 157.729 21.6615 157.625 21.7656C157.521 21.8698 157.417 21.974 157.312 22.0781C157.234 22.1823 157.182 22.2474 157.156 22.2734C157.078 22.3516 156.922 22.4818 156.688 22.6641C156.479 22.8203 156.245 23.0026 155.984 23.2109C155.724 23.3932 155.477 23.5755 155.242 23.7578C155.034 23.9141 154.891 24.0182 154.812 24.0703L154.656 24.3828C154.604 24.487 154.552 24.7214 154.5 25.0859C154.474 25.4245 154.435 25.8151 154.383 26.2578C154.331 26.7005 154.279 27.1562 154.227 27.625C154.201 28.0677 154.188 28.4323 154.188 28.7188C154.188 28.7448 154.201 28.7708 154.227 28.7969C154.279 28.849 154.318 28.875 154.344 28.875C154.552 28.875 154.747 28.7839 154.93 28.6016C155.112 28.4193 155.307 28.2891 155.516 28.2109L161.766 22.4297L163.367 19.9688C163.497 19.7865 163.745 19.5911 164.109 19.3828C164.5 19.1484 164.891 19.0312 165.281 19.0312C165.672 19.0052 166.01 19.1224 166.297 19.3828C166.609 19.6432 166.766 20.151 166.766 20.9062ZM158.172 17.8594C158.302 17.7552 158.354 17.599 158.328 17.3906C158.302 17.1823 158.224 17 158.094 16.8438C157.99 16.6875 157.846 16.5964 157.664 16.5703C157.482 16.5182 157.312 16.6094 157.156 16.8438C157.078 16.9479 156.935 17.1562 156.727 17.4688C156.544 17.7812 156.349 18.1068 156.141 18.4453C155.958 18.7578 155.802 19.0312 155.672 19.2656C155.542 19.5 155.516 19.5911 155.594 19.5391L158.172 17.8594ZM168.406 19.2656C168.354 18.5885 168.289 17.9115 168.211 17.2344C168.159 16.5312 168.068 15.8411 167.938 15.1641C167.938 14.5911 168.12 14.2266 168.484 14.0703C168.875 13.9141 169.292 13.8359 169.734 13.8359H170.516C170.906 14.0182 171.18 14.2396 171.336 14.5C171.492 14.7604 171.596 15.0469 171.648 15.3594C171.701 15.6719 171.714 15.9974 171.688 16.3359C171.688 16.6745 171.701 17 171.727 17.3125C171.753 17.4427 171.766 17.6641 171.766 17.9766C171.766 18.2891 171.766 18.6146 171.766 18.9531C171.792 19.2917 171.818 19.6042 171.844 19.8906C171.896 20.1771 171.961 20.3594 172.039 20.4375L175.477 13.9922C175.633 13.7057 175.854 13.4714 176.141 13.2891C176.453 13.0807 176.792 13.0026 177.156 13.0547C177.729 13.1068 178.159 13.224 178.445 13.4062C178.732 13.5625 178.927 13.7839 179.031 14.0703C179.161 14.3307 179.227 14.6562 179.227 15.0469C179.253 15.4375 179.279 15.8672 179.305 16.3359C179.305 16.4922 179.318 16.7917 179.344 17.2344C179.37 17.651 179.396 18.0938 179.422 18.5625C179.474 19.0312 179.513 19.474 179.539 19.8906C179.591 20.3073 179.63 20.5938 179.656 20.75H179.812C179.865 20.5677 179.956 20.2161 180.086 19.6953C180.242 19.1745 180.411 18.6276 180.594 18.0547C180.776 17.4818 180.945 16.9349 181.102 16.4141C181.258 15.8932 181.375 15.5286 181.453 15.3203C181.479 15.2682 181.531 15.1641 181.609 15.0078C181.688 14.8255 181.766 14.6432 181.844 14.4609C181.922 14.2526 182 14.0703 182.078 13.9141C182.156 13.7318 182.208 13.6016 182.234 13.5234C182.417 13.237 182.599 13.0938 182.781 13.0938C182.99 13.0677 183.211 13.0547 183.445 13.0547C184.096 13.0547 184.591 13.224 184.93 13.5625C185.294 13.875 185.555 14.2786 185.711 14.7734C185.893 15.2682 186.023 15.8151 186.102 16.4141C186.18 16.987 186.271 17.5208 186.375 18.0156C186.401 18.0156 186.414 18.0417 186.414 18.0938C186.414 18.1198 186.401 18.1458 186.375 18.1719L188.523 29.5391C188.628 29.6432 188.68 29.7344 188.68 29.8125C188.706 29.8906 188.719 29.9948 188.719 30.125C188.719 30.4115 188.576 30.6979 188.289 30.9844C188.029 31.2448 187.755 31.375 187.469 31.375C187.078 31.375 186.622 31.2318 186.102 30.9453C185.607 30.6589 185.32 30.2943 185.242 29.8516L183.445 20.5938L183.25 20.2812C183.198 20.4115 183.081 20.7891 182.898 21.4141C182.742 22.013 182.547 22.7812 182.312 23.7188C182.078 24.6302 181.805 25.6589 181.492 26.8047C181.206 27.9505 180.906 29.1224 180.594 30.3203C180.542 30.5547 180.385 30.737 180.125 30.8672C179.891 30.9714 179.682 31.0234 179.5 31.0234C178.953 31.0234 178.51 30.9583 178.172 30.8281C177.833 30.6979 177.573 30.5026 177.391 30.2422C177.208 29.9818 177.078 29.6693 177 29.3047C176.922 28.9401 176.857 28.5234 176.805 28.0547C176.805 27.9505 176.779 27.5859 176.727 26.9609C176.674 26.3099 176.609 25.5807 176.531 24.7734C176.479 23.9401 176.414 23.1068 176.336 22.2734C176.258 21.4401 176.206 20.776 176.18 20.2812C176.18 20.1771 176.18 20.099 176.18 20.0469C176.18 19.9948 176.18 19.9557 176.18 19.9297C176.18 19.8776 176.167 19.8255 176.141 19.7734C176.115 19.6953 176.062 19.5781 175.984 19.4219L174.852 22.1172L173.055 28.7188L172.664 31.1406C172.638 31.2969 172.56 31.4401 172.43 31.5703C172.326 31.6745 172.195 31.7656 172.039 31.8438C171.883 31.8958 171.727 31.9349 171.57 31.9609C171.414 31.987 171.284 32 171.18 32C170.607 32 170.112 31.7917 169.695 31.375C169.305 30.9583 169.096 30.5026 169.07 30.0078C169.044 29.8255 169.018 29.474 168.992 28.9531C168.966 28.4062 168.927 27.7682 168.875 27.0391C168.823 26.3099 168.771 25.5417 168.719 24.7344C168.693 23.9271 168.654 23.1589 168.602 22.4297C168.549 21.7005 168.497 21.0625 168.445 20.5156C168.419 19.9688 168.406 19.6042 168.406 19.4219V19.2656ZM191.766 24.9688C191.271 24.7865 190.815 24.5651 190.398 24.3047C190.008 24.0443 189.812 23.6146 189.812 23.0156C189.812 22.8594 189.852 22.7552 189.93 22.7031C190.008 22.651 190.073 22.5729 190.125 22.4688C190.177 22.3906 190.281 22.2474 190.438 22.0391C190.594 21.8307 190.763 21.6094 190.945 21.375C191.128 21.1146 191.297 20.8802 191.453 20.6719C191.609 20.4375 191.714 20.2812 191.766 20.2031C191.766 19.8646 191.74 19.4609 191.688 18.9922C191.661 18.4974 191.674 18.0417 191.727 17.625C191.805 17.1823 191.961 16.8177 192.195 16.5312C192.43 16.2188 192.82 16.0625 193.367 16.0625C193.68 16.0625 193.94 16.1797 194.148 16.4141C194.357 16.6224 194.617 16.7266 194.93 16.7266H195.086C196.154 15.8932 197.247 15.1641 198.367 14.5391C199.513 13.888 200.789 13.5625 202.195 13.5625C203.107 13.5625 203.849 13.8359 204.422 14.3828C205.021 14.9036 205.32 15.6458 205.32 16.6094C205.32 17.8073 205.047 19.0443 204.5 20.3203C203.953 21.5964 203.263 22.8464 202.43 24.0703C201.622 25.2682 200.737 26.401 199.773 27.4688C198.836 28.5365 197.977 29.4609 197.195 30.2422C197.117 30.3464 197 30.4635 196.844 30.5938C196.688 30.6979 196.544 30.8151 196.414 30.9453C196.258 31.0755 196.089 31.2318 195.906 31.4141L195.594 40.3984C195.594 40.6328 195.581 40.8802 195.555 41.1406C195.555 41.401 195.503 41.6354 195.398 41.8438C195.32 42.0781 195.19 42.2604 195.008 42.3906C194.852 42.5469 194.617 42.625 194.305 42.625C194.148 42.625 193.94 42.5859 193.68 42.5078C193.419 42.4557 193.172 42.3646 192.938 42.2344C192.703 42.1042 192.495 41.9479 192.312 41.7656C192.156 41.5833 192.078 41.375 192.078 41.1406L191.766 24.9688ZM195.398 27.4297H195.555C195.581 27.4297 195.659 27.3516 195.789 27.1953C195.945 27.0391 196.115 26.8568 196.297 26.6484C196.505 26.4401 196.701 26.2318 196.883 26.0234C197.091 25.7891 197.247 25.6068 197.352 25.4766C198.133 24.9036 198.849 24.1875 199.5 23.3281C200.151 22.4688 200.672 21.6094 201.062 20.75C201.479 19.8646 201.727 19.0703 201.805 18.3672C201.909 17.6641 201.792 17.1823 201.453 16.9219C201.141 16.6354 200.581 16.6615 199.773 17C198.992 17.3385 197.924 18.1198 196.57 19.3438C196.258 19.6042 195.971 19.9036 195.711 20.2422C195.451 20.5807 195.294 20.9583 195.242 21.375L195.398 27.4297ZM207.117 26.0234L208.562 15.9844C208.615 15.6458 208.758 15.3984 208.992 15.2422C209.253 15.0859 209.539 15.0078 209.852 15.0078C210.424 15.0078 210.88 15.1771 211.219 15.5156C211.557 15.8281 211.844 16.2188 212.078 16.6875H212.117C212.43 16.6875 212.703 16.6354 212.938 16.5312C213.198 16.401 213.51 16.3359 213.875 16.3359C214.708 16.3359 215.411 16.5964 215.984 17.1172C216.583 17.638 217.065 18.276 217.43 19.0312C217.794 19.7604 218.055 20.5547 218.211 21.4141C218.393 22.2734 218.484 23.0286 218.484 23.6797C218.484 24.4609 218.276 25.3333 217.859 26.2969C217.469 27.2604 216.935 28.1719 216.258 29.0312C215.607 29.8906 214.865 30.6068 214.031 31.1797C213.198 31.7526 212.352 32.0391 211.492 32.0391C210.711 32.0391 210.034 31.8568 209.461 31.4922C208.914 31.1276 208.458 30.6719 208.094 30.125C207.755 29.5521 207.508 28.9141 207.352 28.2109C207.195 27.5078 207.117 26.8177 207.117 26.1406V26.0234ZM210.398 26.2578C210.451 26.5182 210.503 26.8177 210.555 27.1562C210.607 27.4948 210.685 27.8073 210.789 28.0938C210.893 28.3542 211.036 28.5625 211.219 28.7188C211.427 28.849 211.714 28.849 212.078 28.7188C212.417 28.4062 212.781 28.0547 213.172 27.6641C213.562 27.2734 213.927 26.8568 214.266 26.4141C214.63 25.9714 214.93 25.5026 215.164 25.0078C215.398 24.513 215.516 23.9922 215.516 23.4453C215.62 22.5599 215.555 21.7526 215.32 21.0234C215.086 20.2682 214.747 19.7344 214.305 19.4219C213.888 19.0833 213.406 19.0443 212.859 19.3047C212.312 19.5391 211.766 20.2031 211.219 21.2969C210.906 21.974 210.685 22.7682 210.555 23.6797C210.451 24.5651 210.398 25.3854 210.398 26.1406V26.2578Z" fill="#F73476"/>
</svg>
