<svg width="1031" height="901" viewBox="0 0 1031 901" fill="none" xmlns="http://www.w3.org/2000/svg">
<g clip-path="url(#clip0_63_419)">
<path d="M328.417 692.11C328.845 679.126 328.518 664.496 328.503 651.358L328.447 576.338C327.928 471.486 327.934 366.632 328.466 261.782C328.678 244.894 333.212 232.436 345.243 220.341C362.059 203.434 381.985 206.314 403.774 206.298L458.931 206.288L571.452 206.305C591.081 206.306 612.74 205.845 632.25 206.391C645.789 206.819 658.575 212.71 667.697 222.723C683.067 239.323 681.97 254.172 682.004 275.186L682.027 313.216L682.032 381.483C682.032 393.703 682.332 407.538 681.868 419.648L681.942 423.203L682.027 492.244L681.976 495.845L682.015 749.827L682.044 819.839C682.066 844.057 685.968 867.047 667.419 885.566C659.994 892.927 650.454 897.777 640.134 899.45C633.291 900.547 618.096 900.219 610.529 900.225L557.371 900.174L384.233 900.258C359.843 900.083 342.047 891.615 332.096 868.15C329.677 869.761 326.371 871.722 323.459 872.101C312.681 873.52 301.665 874.701 290.876 875.945L223.3 883.712L132.856 894.193C114.011 896.443 95.1622 898.715 76.3069 900.829C69.1425 901.632 59.5158 899.704 55.8094 892.847C50.3336 882.712 50.2572 868.692 49.0374 857.132L44.515 815.306C42.5861 796.73 40.7832 778.137 39.1065 759.539C38.0037 748.482 35.0563 727.17 35.7083 716.543C37.0102 695.321 71.1353 697.017 88.5548 694.937C118.79 691.195 149.057 687.718 179.352 684.496L258.658 675.417C272.074 673.914 296.832 670.058 309.451 671.765C326.423 674.061 325.243 715.367 326.997 729.07C330.22 728.114 326.039 695.672 328.417 692.11Z" fill="#F4E5E5"/>
<path d="M326.997 729.069C330.22 728.114 326.04 695.672 328.418 692.11C328.69 707.351 329.006 726.706 328.382 741.817C327.434 737.097 327.287 733.92 326.997 729.069Z" fill="#312E2F"/>
<path d="M378.17 212.82C386.141 211.969 409.908 212.683 418.715 212.705L500.463 212.726L589.107 212.678C594.728 212.671 600.395 212.674 606.078 212.659C629.247 212.598 650.329 209.948 665.847 230.84C677.355 246.34 675.404 258.895 675.466 277.352L675.477 323.166L675.438 466.122L675.5 727.374L675.517 807.793C675.545 822.931 675.732 838.381 675.246 853.48C674.985 861.682 671.915 869.885 666.927 876.403C658.461 887.454 649.221 891.79 635.75 893.667C621.986 894.588 603.081 894.102 589.096 894.051L520.194 894.04L414.327 893.989C380.115 893.763 352.328 900.473 336.917 862.587C340.057 856.544 341.092 852.429 340.015 845.707C336.095 821.241 335.336 798.861 335.324 774.129L335.307 716.373L335.274 519.661L335.311 341.063L335.221 284.874C335.219 275.5 334.765 265.321 335.492 256.05C337.382 231.934 354.656 215.112 378.17 212.82Z" fill="#FDFCFC"/>
<path d="M378.061 477.258C390.528 476.551 406.155 477.049 418.859 477.049L491.269 477.055L582.124 477.026C597.568 477.021 613.097 476.975 628.536 477.105C631.505 477.128 634.864 477.405 637.488 478.739C640.395 480.181 644.596 483.725 645.428 486.987C647.984 497.021 646.983 509.604 646.955 519.972L646.915 560.82C646.858 570.102 646.774 579.356 647.011 588.639C647.152 594.139 647.345 599.916 644.602 604.885C642.085 609.453 638.466 611.397 633.603 612.754C620.754 613.302 605.836 612.912 592.796 612.912L517.311 612.935L428.021 612.946C413.088 612.952 398.146 613.003 383.21 613.014C371.505 613.297 364.918 606.835 364.804 595.066C364.517 565.094 365.072 535.088 364.712 505.116C364.562 492.623 363.652 481.78 378.061 477.258Z" fill="#F7D1D1"/>
<path d="M427.274 504.121C450.004 500.35 471.453 515.817 475.046 538.564C478.639 561.318 462.999 582.635 440.213 586.049C417.68 589.424 396.641 573.997 393.088 551.498C389.535 529.005 404.797 507.852 427.274 504.121Z" fill="#FDFCFC"/>
<path d="M432.544 519.243C434.524 519.503 434.516 519.339 435.973 520.639C437.724 524.477 436.848 539.068 436.878 544.692C441.757 548.599 449.424 552.499 453.299 557.282C454.219 558.418 453.397 560.001 452.953 561.436C448.244 561.6 434.714 551.148 430.951 547.705C430.698 541.849 429.509 523.347 432.544 519.243Z" fill="#E47D8D"/>
<path d="M583.594 511.255C600.723 511.272 609.183 526.722 603.681 541.843C598.24 556.773 578.566 576.36 564.61 583.234C558.632 580.346 552.558 574.913 547.373 570.611C536.945 560.391 523.288 546.648 524.453 530.645C525.307 518.96 535.288 509.989 547.141 511.453C555.957 512.544 559.588 516.885 564.728 523.437C565.186 522.798 565.656 522.177 566.136 521.56C571.503 514.686 574.93 512.352 583.594 511.255Z" fill="#D5506D"/>
<path d="M377.785 776.249C389.83 775.667 405.303 776.001 417.582 775.967L501.097 776.051L583.962 776.068C599.83 776.057 615.834 775.921 631.702 776.227C634.473 776.249 636.537 776.724 639.031 777.968C651.704 784.35 651.619 796.046 651.269 808.307C650.782 825.424 654.956 840.393 634.682 846.962C627.902 847.838 608.279 847.381 600.882 847.375L536.792 847.386L438.086 847.42C419.114 847.465 399.9 847.771 381.072 847.296C359.612 846.753 359.463 826.657 360.309 810.732C360.597 805.311 359.955 798.969 360.666 793.723C361.077 790.845 362.075 788.081 363.599 785.611C367.068 780.037 371.653 777.702 377.785 776.249Z" fill="#ECE4E4"/>
<path d="M394.511 785.984C408.881 783.83 422.307 793.643 424.614 807.985C426.92 822.327 417.246 835.849 402.924 838.302C393.526 839.919 383.985 836.357 377.94 828.986C371.896 821.609 370.28 811.558 373.708 802.666C377.136 793.768 385.08 787.397 394.511 785.984Z" fill="#D5506D"/>
<path d="M398.054 800.902C401.361 801.371 408.073 807.917 408.394 811.778C408.739 815.922 410.018 823.717 404.159 824.294C398.604 821.563 403.87 819.449 400.272 815.492C398.834 815.622 397.54 815.809 396.118 816.018C395.782 819.415 395.783 823.078 392.645 824.876C390.831 824.571 391.165 824.509 389.544 823.288C388.737 821.818 388.562 812.236 388.398 809.771C391.329 806.493 394.71 803.751 398.054 800.902Z" fill="#F7D1D1"/>
<path d="M464.039 796.792C465.173 797.448 465.105 797.476 465.993 798.511C469.034 801.269 474.447 798.805 478.394 798.624C488.17 798.172 485.939 816.323 484.864 823.276C483.716 825.029 483.545 824.955 481.736 825.922C475.993 825.843 470.485 826.295 464.856 826.414C455.736 826.6 456.777 818.534 456.985 812.18C457.092 808.907 456.499 805.628 457.18 802.423C460.123 800.065 461.938 799.918 464.039 796.792Z" fill="#C9C7C7"/>
<path d="M460.149 809.466L481.818 809.449C482.091 814.424 482.104 817.601 481.857 822.575C474.665 823.084 467.446 823.09 460.253 822.609C459.899 817.867 460.011 814.249 460.149 809.466Z" fill="#ECE4E4"/>
<path d="M466.706 803.056C470.505 802.993 479.707 801.733 482.331 804.514L481.732 805.458C479.372 806.99 478.566 806.674 475.576 806.555C471.266 806.594 463.164 807.521 460.291 805.057L460.369 803.807C461.962 802.914 464.762 803.101 466.706 803.056Z" fill="#ECE4E4"/>
<path d="M604.506 798.81C611.015 798.652 608.617 800.597 613.679 801.806C615.477 800.766 617.106 798.946 619.26 798.833C628.444 798.358 629.66 805.453 626.487 812.57C625.272 815.294 622.902 817.505 620.747 819.811C619.339 821.151 615.307 825.046 614.301 825.006C607.452 824.752 596.204 811.026 598.907 804.096C600.191 800.806 602.363 799.856 604.506 798.81Z" fill="#C9C7C7"/>
<path d="M545.325 798.477L548.407 799.285C551.144 802.451 548.294 816.566 550.59 822.117L551.501 822.27C553.361 819.11 549.663 812.994 553.78 809.59C556.053 809.381 555.069 809.121 556.896 810.116C559.175 813.491 558.253 820.908 558.106 825.357C553.016 825.651 530.056 825.831 526.59 825.08C526.443 821.179 525.278 815.617 528.728 813.378C530.317 813.355 530.339 813.203 531.623 814.073C532.901 816.318 532.748 819.551 533.184 822.479L533.959 822.92C536.684 820.45 533.37 812.474 535.672 807.991C537.697 806.594 536.628 806.911 538.935 806.826C543.578 809.613 539.467 816.148 541.847 822.722L542.633 822.7C545.602 818.822 541.74 803.389 545.325 798.477Z" fill="#C9C7C7"/>
<path d="M523.791 360.637C528.694 340.086 536.029 323.845 554.973 312.121C568.823 303.47 585.567 300.742 601.453 304.548C617.949 308.578 633.053 320.23 641.785 334.72C650.511 349.246 653.072 366.652 648.905 383.074C645.698 395.833 640.778 403.615 632.058 413.062C606.554 438.222 568.319 439.442 542.951 413.404C536.034 405.644 529.718 396.385 526.89 386.266C525.799 382.372 525.131 377.398 523.604 373.79C523.842 373.299 524.068 372.804 524.283 372.305C526.302 367.662 525.589 365.161 523.791 360.637Z" fill="#F5C6C8"/>
<path d="M602.708 400.836C606.7 398.01 627.867 409.555 632.058 413.062C606.553 438.222 568.319 439.442 542.95 413.404C547.972 408.416 565.452 399.857 572.413 400.384C574.415 414.064 600.039 414.667 602.708 400.836Z" fill="#D5506D"/>
<path d="M572.414 400.384C572.866 398.334 573.415 396.155 573.658 394.083C591.268 405.137 599.202 393.796 602.002 394.87L602.709 400.836C600.039 414.667 574.416 414.064 572.414 400.384Z" fill="#ECE4E4"/>
<path d="M560.289 357.399C555.686 345.518 558.966 329.363 572.742 324.943C588.474 319.896 608.55 317.465 616.082 336.501C617.592 340.319 617.355 354.996 614.488 357.872C624.028 363.974 615.398 370.352 611.191 375.528C607.639 379.898 608.493 384.356 602.527 389.088C585.613 402.499 570.853 392.169 564.208 374.593C556.562 370.382 554.029 364.34 560.289 357.399Z" fill="#ECE4E4"/>
<path d="M560.289 357.399C555.686 345.518 558.966 329.363 572.742 324.943C588.474 319.896 608.55 317.465 616.082 336.501C617.592 340.319 617.355 354.996 614.488 357.872C613.091 359.736 611.587 362.565 610.377 364.647C609.387 359.449 609.794 345.919 603.698 344.748C597.636 344.674 591.5 348.469 584.821 346.846C565.424 342.131 565.848 348.79 565.107 364.936C563.501 362.241 562.161 359.946 560.289 357.399Z" fill="#D5506D"/>
<path d="M382.11 413.469C375.652 406.919 370.541 399.167 367.064 390.652C360.818 375.201 361.345 356.378 368.029 341.152C374.974 325.189 388.04 312.682 404.296 306.439C419.093 300.901 435.483 301.45 449.876 307.967C465.326 315.116 478.161 328.278 484.076 344.32C485.962 349.435 487.042 355.549 488.431 359.218L488.741 360.016C486.947 363.396 485.732 365.888 486.866 369.799C487.251 371.143 487.748 372.451 488.352 373.71C485.137 391.25 480.727 400.846 468.097 413.821C442.619 437.319 407.312 437.457 382.11 413.469Z" fill="#D5506D"/>
<path d="M382.11 413.469C375.652 406.919 370.541 399.167 367.064 390.652C360.818 375.201 361.345 356.378 368.029 341.152C374.974 325.189 388.04 312.682 404.296 306.439C419.093 300.901 435.483 301.45 449.876 307.967C465.326 315.116 478.161 328.278 484.076 344.32C485.962 349.435 487.042 355.549 488.431 359.218L488.741 360.016C486.947 363.396 485.732 365.888 486.866 369.8C487.251 371.143 487.748 372.451 488.352 373.71C485.137 391.25 480.727 400.846 468.097 413.821C463.285 408.609 454.708 406.002 448.364 403.142C452.84 402.197 462.629 399.456 464.344 394.631C466.006 389.546 459.808 383.449 458.969 378.909C456.252 364.213 459.647 351.521 451.569 337.849C442.787 322.988 423.032 318.149 408.527 327.687C390.294 339.676 393.194 360.955 391.187 379.63C390.669 384.345 381.838 389.666 386.584 395.357C390.327 399.846 395.968 402.086 401.496 402.787L401.716 403.418C393.6 406.579 389.526 407.32 382.11 413.469Z" fill="#F5C6C8"/>
<path d="M412.97 391.056C420.306 397.165 429.97 395.369 437.61 391.041L438.016 395.787C438.326 397.993 438.241 399.654 439.741 401.185L442.219 402.068C444.917 402.228 445.699 402.462 448.363 403.142C454.708 406.002 463.285 408.609 468.096 413.821C442.619 437.319 407.311 437.457 382.109 413.469C389.526 407.32 393.6 406.579 401.716 403.418L401.496 402.787C404.042 402.497 405.85 402.288 408.429 402.255C409.308 401.907 410.025 401.519 410.871 401.097C412.299 399.004 412.175 397.114 412.409 394.531L412.97 391.056Z" fill="#E86A7E"/>
<path d="M412.971 391.056C420.307 397.165 429.971 395.369 437.611 391.041L438.017 395.787C438.327 397.993 438.242 399.654 439.742 401.185L442.22 402.068C435.586 416.864 414.845 416.792 408.431 402.255C409.309 401.907 410.027 401.519 410.872 401.097C412.3 399.004 412.176 397.114 412.41 394.531L412.971 391.056Z" fill="#ECE4E4"/>
<path d="M412.97 391.056C420.306 397.165 429.97 395.369 437.61 391.041L438.016 395.787L437.092 395.47C427.457 399.724 421.422 399.895 412.409 394.531L412.97 391.056Z" fill="#F5C6C8"/>
<path d="M412.97 391.056C403.833 382.737 404.334 378.598 398.562 368.679C396.764 365.589 396.87 362.649 400.369 360.582C415.796 354.721 425.334 358.902 434.715 341.228C437.395 346.146 440.091 351.52 443.684 355.775C447.307 360.065 454.373 360.922 451.789 368.119C448.334 377.743 445.638 384.513 437.61 391.041C429.97 395.369 420.306 397.165 412.97 391.056Z" fill="#ECE4E4"/>
<path d="M379.284 645.688C394.047 645.23 411.087 645.615 426.025 645.615L515.071 645.632L588.282 645.62C601.334 645.603 614.663 645.53 627.54 645.648C644.517 645.801 647.276 654.936 646.977 669.951C646.75 681.155 644.545 687.39 632.364 689.566C618.514 690.154 602.256 689.764 588.265 689.77L507.131 689.747L425.877 689.787C411.597 689.787 397.328 689.77 382.993 689.674C368.144 690.103 364.096 680.392 364.567 667.062C364.982 655.332 366.484 648.729 379.284 645.688Z" fill="#ECE4E4"/>
<path d="M379.798 705.107C388.853 704.683 400.77 705.141 410.075 705.135L475.03 705.061L531.46 705.095C543.601 705.09 558.746 704.191 570.74 706.441C575.242 707.283 578.929 713.484 579.489 717.967C581.083 730.72 580.184 742.456 565.085 744.96C553.407 745.361 539.937 745.096 528.112 745.107L458.351 745.113L408.957 745.158C398.319 745.169 385.572 745.859 375.028 744.005C370.533 743.213 365.846 737.278 365.29 732.659C363.717 719.612 363.967 707.566 379.798 705.107Z" fill="#ECE4E4"/>
<path d="M488.742 360.017C495.544 353.944 500.385 355.34 506.272 361.611C511.831 355.422 517.848 353.753 523.791 360.637C525.59 365.161 526.302 367.662 524.283 372.306C524.068 372.804 523.842 373.299 523.605 373.791C518.939 379.933 512.317 385.733 506.17 390.349C499.633 385.952 493.367 379.755 488.353 373.71C487.748 372.451 487.251 371.143 486.866 369.8C485.733 365.888 486.947 363.396 488.742 360.017Z" fill="#E86A7E"/>
<path d="M475.533 235.479C491.789 235.008 508.268 235.785 524.56 235.351C528.106 235.257 541.757 234.73 543.957 236.634C545.02 237.567 545.682 238.883 545.784 240.298C546.021 243.73 541.938 245.398 539.06 245.477C530.085 245.465 472.103 246.46 469.313 244.562C468.13 243.757 467.441 242.221 467.347 240.833C467.245 239.337 467.696 238.073 468.768 237.019C470.624 235.192 473.134 235.484 475.533 235.479Z" fill="#F4E5E5"/>
<path d="M301.466 675.259C309.724 674.338 316.915 680.471 318.085 688.549C319.444 697.922 320.356 707.21 321.399 716.616L328.047 780.913L333.334 826.668C334.202 834.198 335.166 841.711 335.66 849.274C336.145 856.714 330.672 866.284 322.861 867.449C305.031 870.111 286.954 871.44 269.033 873.752C222.21 879.444 175.356 884.905 128.477 890.123C111.462 892.147 92.4622 894.085 75.6575 896.646C66.4685 896.968 58.1238 892.842 56.4923 882.915C54.6646 871.801 53.9532 860.077 52.7288 848.822L43.9577 764.864C42.4133 748.996 40.2684 732.405 40.252 716.548C40.2452 710.511 47.84 704.417 53.6206 703.496C65.2136 701.647 76.8914 700.635 88.572 699.352L146.12 692.546L232.978 682.941C254.746 680.42 279.738 676.921 301.466 675.259Z" fill="#FDFCFC"/>
<path d="M163.769 829.625C169.623 824.175 172.532 828.155 177.901 825.034C181.527 822.926 215.299 783.202 215.77 780.755C215.884 780.167 215.873 779.562 215.944 778.968C216.193 776.899 216.58 775.577 218.355 774.288C226.487 768.403 227.302 778.539 233.913 779.488C239.484 780.291 245.609 777.007 249.963 773.807C262.04 764.915 271.145 749.465 278.618 736.594C280.152 733.948 282.594 730.573 283.033 727.583C281.539 724.191 271.711 724.7 282.519 716.995C285.247 715.05 290.994 709.329 294.175 710.149C296.478 713.654 300.031 731.014 294.748 732.574C292.982 732.162 292.714 731.608 291.503 730.347C291.007 734.977 293.177 747.77 293.828 752.818C296.422 772.219 298.752 791.654 300.815 811.117C301.535 817.539 305.274 837.075 302.071 842.022C299.413 843.633 252.616 848.602 247.297 849.19C245.546 835.588 243.876 821.97 242.288 808.352C241.414 801.094 239.918 791.134 239.586 783.988L238.23 784.152C235.417 784.203 232.716 784.277 229.899 784.192C224.499 791.032 223.946 787.979 217.648 787.035L215.204 789.675C216.905 808.782 221.12 834.22 221.744 852.163C213.794 853.062 205.394 854.198 197.482 854.91C196.054 855.159 195.019 855.396 193.554 855.374C186.97 856.278 180.372 857.075 173.762 857.765C173.545 853.164 172.38 845.832 171.775 841.066L168.675 841.01C169.058 846.629 169.679 852.378 170.218 857.997C161.771 859.636 143.463 861.541 134.685 862.237C134.06 851.219 132.395 838.941 131.005 827.974L128.075 829.042C123.86 828.46 123.336 828.138 120.323 825.114C114.721 826.792 111.404 828.127 106.29 831.094L103.559 832.83C104.813 842.83 106.324 855.504 107.054 865.487C102.131 866.182 87.8941 869.088 84.2817 866.035C80.6245 862.938 85.7146 858.658 79.1338 857.166C77.1347 856.03 74.8863 854.322 74.1935 852.039C71.138 841.954 83.6941 842.321 83.3412 842.621C95.9306 832.033 103.524 826.154 119.104 820.195C122.113 811.247 129.942 811.038 134.507 819.093C146.923 821.908 152.232 824.989 163.769 829.625Z" fill="#D5506D"/>
<path d="M239.585 783.988C267.384 778.075 285.765 728.793 290.453 727.119C291.603 728.419 291.244 728.295 291.502 730.347C291.007 734.977 293.177 747.77 293.827 752.818C296.422 772.219 298.751 791.654 300.814 811.117C301.534 817.539 305.274 837.075 302.07 842.022C299.412 843.633 252.615 848.602 247.296 849.19C245.545 835.588 243.875 821.97 242.287 808.352C241.413 801.094 239.917 791.134 239.585 783.988Z" fill="#F7D9DA"/>
<path d="M192.693 817.058C199.842 808.799 208.045 796.911 215.203 789.675C216.904 808.782 221.119 834.22 221.743 852.163C213.793 853.062 205.393 854.198 197.481 854.91C196.053 855.159 195.018 855.396 193.553 855.374C186.969 856.278 180.371 857.075 173.761 857.765C173.544 853.164 172.379 845.832 171.774 841.066C177.057 839.653 178.283 836.346 178.328 831.422C182.088 827.81 185.832 824.056 189.552 820.393L192.693 817.058Z" fill="#F5C6C8"/>
<path d="M178.328 831.422C182.088 827.81 185.832 824.056 189.552 820.393C191.082 829.806 193.105 845.843 193.553 855.374C186.969 856.278 180.371 857.075 173.761 857.765C173.544 853.164 172.379 845.832 171.774 841.066C177.057 839.653 178.283 836.346 178.328 831.422Z" fill="#F7D1D1"/>
<path d="M192.694 817.058C193.632 819.885 194.3 828.138 194.669 831.417L197.481 854.91C196.054 855.159 195.018 855.396 193.553 855.374C193.106 845.843 191.082 829.805 189.553 820.393L192.694 817.058Z" fill="#ECE4E4"/>
<path d="M131.004 827.974C132.336 826.516 133.319 825.504 134.452 823.864C145.799 826.448 152.616 829.755 163.081 834.695C164.714 838.392 165.169 839.009 168.674 841.01C169.057 846.629 169.677 852.378 170.216 857.997C161.769 859.636 143.462 861.541 134.684 862.237C134.058 851.219 132.393 838.941 131.004 827.974Z" fill="#F5C6C8"/>
<path d="M79.1328 857.166C79.3206 857.166 79.5078 857.16 79.6955 857.155L80.602 857.115C89.9584 856.759 87.62 853.13 88.2856 846.776C91.2336 841.688 98.8363 836.312 103.558 832.83C104.812 842.83 106.323 855.504 107.053 865.487C102.13 866.182 87.8932 869.088 84.2807 866.035C80.6235 862.938 85.7137 858.658 79.1328 857.166Z" fill="#ECE4E4"/>
<path d="M229.899 784.192C232.716 784.277 235.416 784.203 238.23 784.152C236.664 784.887 236.885 784.531 235.851 785.707C237.046 790.297 238.5 804.164 239.137 809.607C240.641 822.44 242.673 836.572 243.55 849.399C238.343 850.337 230.487 851.366 225.184 851.739C224.811 848.161 223.956 842.225 223.869 838.867C222.114 830.772 219.679 791.512 217.647 787.035C223.946 787.979 224.499 791.032 229.899 784.192Z" fill="#F7D1D1"/>
<path d="M229.899 784.192C232.716 784.277 235.416 784.203 238.23 784.152C236.664 784.887 236.885 784.531 235.851 785.707L235.238 786.368L234.906 785.311C231.564 785.011 230.365 786.227 227.563 788.12C226.359 788.935 226.465 790.336 226.596 791.919C227.809 806.623 229.361 821.377 230.425 836.097C230.706 839.986 231.781 846.651 231.378 850.037C228.536 850.411 228.194 850.959 226.08 849.941C225.7 846.832 225.506 841.066 223.869 838.867C222.114 830.772 219.679 791.512 217.647 787.035C223.946 787.979 224.499 791.032 229.899 784.192Z" fill="#F5C6C8"/>
<path d="M120.323 825.114C123.336 828.138 123.86 828.46 128.075 829.042C129.242 840.19 130.532 851.326 131.946 862.446C124.902 863.667 117.497 864.345 110.37 865.131C109.85 859.653 107.802 834.701 106.29 831.094C111.404 828.127 114.721 826.792 120.323 825.114Z" fill="#F5C6C8"/>
<path d="M80.0275 731.201C81.9502 730.969 82.1453 730.794 83.9663 731.517C86.9018 734.643 88.2002 747.306 85.626 750.828C82.6175 752.207 76.0712 752.535 72.5028 752.908C71.6104 752.97 70.1537 752.925 69.2093 752.925C64.8243 750.443 64.7485 738.29 66.0441 733.886C68.2507 731.529 76.2962 731.506 80.0275 731.201Z" fill="#F7D1D1"/>
<path d="M218.427 27.9927C220.381 26.7332 222.204 21.2143 223.734 18.6405C238.571 -6.32532 273.107 -5.97653 288.608 18.2651C293.83 26.3313 295.569 36.1652 293.427 45.5316C291.009 56.352 285.055 63.2051 276.294 69.4595C278.31 84.7972 279.387 102.045 280.875 117.553L290.066 213.509L295.408 271.8C296.338 282.058 297.459 292.928 297.915 303.174C297.745 308.091 297.783 312.698 294.713 316.817C290.902 321.93 285.25 326.537 278.683 327.278C260.975 329.276 243.179 330.836 225.43 332.524L124.266 342.086L70.6917 347.107C62.157 347.903 52.9975 349.034 44.4645 349.262C34.2242 349.534 24.9611 339.999 23.8793 330.084C22.1014 313.793 20.9036 297.565 19.327 281.296C15.4668 241.947 11.8339 202.577 8.42956 163.186L2.92545 102.82C2.23949 95.717 1.4489 88.5649 0.781599 81.506C-0.0638396 72.68 -1.55396 63.282 4.78598 55.9619C6.42483 54.0699 8.72024 51.2971 11.0654 50.2609C19.2795 46.6323 29.695 46.3869 38.4152 45.5271L75.2814 41.8662L218.427 27.9927Z" fill="#FDFCFC"/>
<path d="M218.427 27.9927L219.194 28.8752C218.994 30.1895 218.835 31.436 218.505 32.7271C201.243 33.4914 181.191 35.9555 163.935 37.6983L86.9863 45.2524L41.8987 49.5735C32.2138 50.4995 16.526 50.1411 9.86596 57.218C4.99465 62.395 4.11924 67.5025 4.77466 74.3081C6.35809 93.3456 8.47197 112.502 10.3455 131.51L18.2089 219.185L24.8582 290.647C25.9689 303.398 26.7843 316.373 28.1523 329.189C28.7676 336.528 35.7488 343.8 43.0462 344.623C48.6815 345.259 56.8786 344.253 62.7039 343.658C117.479 338.073 172.358 333.2 227.153 327.848L259.51 324.69C272.688 323.467 292.561 324.841 293.308 305.567C293.601 298.042 292.206 288.735 291.505 281.077L287.221 234.19C283.879 194.239 280.125 154.322 275.961 114.448C274.678 102.558 273.941 89.83 272.273 78.069C271.989 76.0605 271.649 74.0599 271.255 72.0701L276.294 69.4595C278.31 84.7972 279.387 102.045 280.875 117.553L290.066 213.509L295.408 271.8C296.338 282.058 297.459 292.928 297.915 303.174C297.745 308.091 297.783 312.698 294.713 316.817C290.902 321.93 285.25 326.537 278.683 327.278C260.975 329.276 243.179 330.836 225.43 332.524L124.266 342.086L70.6917 347.107C62.157 347.903 52.9975 349.034 44.4645 349.262C34.2242 349.534 24.9611 339.999 23.8793 330.084C22.1014 313.793 20.9036 297.565 19.327 281.296C15.4668 241.947 11.8339 202.577 8.42956 163.186L2.92545 102.82C2.23949 95.717 1.4489 88.5649 0.781599 81.506C-0.0638396 72.68 -1.55396 63.282 4.78598 55.9619C6.42483 54.0699 8.72024 51.2971 11.0654 50.2609C19.2795 46.6323 29.695 46.3869 38.4152 45.5271L75.2814 41.8663L218.427 27.9927Z" fill="#ECE4E4"/>
<path d="M218.427 27.9927C220.382 26.7332 222.204 21.2143 223.734 18.6405C238.571 -6.32532 273.108 -5.97653 288.608 18.2651C293.831 26.3313 295.569 36.1652 293.427 45.5316C291.009 56.352 285.055 63.2051 276.295 69.4595L271.255 72.0701C265.531 74.4771 259.315 75.4873 253.124 75.017C243.138 74.1984 233.889 69.4426 227.418 61.7975C219.873 52.9698 217.546 44.1043 218.505 32.7271C218.835 31.4359 218.994 30.1895 219.195 28.8752L218.427 27.9927Z" fill="#D5506D"/>
<path d="M262.45 21.0436C267.412 20.5716 270.591 20.8531 273.635 25.2257C281.641 36.7249 264.348 51.114 256.1 56.6822C253.764 55.1536 251.568 53.3848 249.355 51.6759C247.389 49.9936 245.485 48.2395 243.648 46.4181C227.613 30.2223 242.622 11.5969 255.833 27.1471C258.163 24.0397 259.13 23.0509 262.45 21.0436Z" fill="#FDFCFC"/>
<path d="M156.706 288.371C159.058 280.903 163.534 275.035 171.68 273.496C176.556 272.526 181.618 273.553 185.73 276.348C189.824 279.108 192.616 283.418 193.46 288.281C194.413 294.069 192.684 298.238 189.382 302.732C183.054 310.564 173.084 311.823 164.593 306.682C161.425 304.236 160.47 303.086 158.131 299.828C157.034 303.181 156.39 304.502 154.493 307.353C151.125 311.577 147.005 314.07 141.556 314.714C136.721 315.318 131.847 313.945 128.041 310.905C123.152 306.635 120.631 301.088 121.613 294.51C122.344 289.538 125.045 285.068 129.108 282.107C139.168 274.71 150.182 278.985 156.706 288.371Z" fill="#F7D1D1"/>
<path d="M169.52 302.928C168.296 302.717 164.153 301.706 164.445 300.169C165.19 296.247 165.251 292.326 165.45 288.372C165.625 284.893 166.128 282.831 168.962 280.568C171.309 278.695 174.214 278.331 177.165 278.766C185.382 280.347 183.284 290.259 186.987 295.261C187.589 296.075 187.707 296.039 187.85 297.102C187.327 299.077 185.754 299.848 184.055 300.84C182.701 300.698 182.259 300.82 180.942 301.023C180.33 305.69 173.784 306.134 171.809 302.546C170.772 302.6 170.491 302.544 169.52 302.928Z" fill="#D5506D"/>
<path d="M171.809 302.546C172.018 302.319 172.277 302.066 172.417 301.766C173.679 299.068 168.012 295.506 167.387 292.707C166.313 287.888 173.723 290.73 176.872 283.955L177.053 283.555C179.188 286.156 180.609 287.214 183.216 289.319C182.427 293.857 182.593 294.832 179.775 298.424L179.783 298.727C180.202 299.835 180.187 300.163 180.942 301.023C180.33 305.69 173.784 306.134 171.809 302.546Z" fill="#ECE4E4"/>
<path d="M137.053 304.5C134.396 306.927 130.614 308.395 127.204 306.5L127.367 306.663L127.222 305.921C131.574 304.918 132.385 305.986 137.072 304.02L137.053 304.5Z" fill="#F5C6C8"/>
<path d="M131.933 295.228L132.824 295.278C134.028 293.356 132.526 291.972 134.249 290.278C135.494 290.171 143.772 289.227 143.697 289.218C145.029 290.363 145.155 291.52 145.769 293.126L146.547 292.76C147.736 293.577 147.351 293.033 147.697 294.477C146.98 297.51 145.111 301.249 142.466 302.979C140.507 304.259 139.647 303.915 137.493 303.417L137.413 303.861C139.341 306.514 142.428 303.351 144.718 304.15L145.211 305.146C143.309 308.966 138.862 309.07 136.182 305.936C136.201 305.66 136.512 303.637 136.514 303.645C135.83 301.132 130.883 298.458 131.33 295.548L131.933 295.228Z" fill="#ECE4E4"/>
<path d="M145.21 305.147L145.532 304.755C148.471 304.752 152.013 305.75 154.493 307.353C151.125 311.577 147.005 314.07 141.555 314.714C136.721 315.318 131.847 313.945 128.041 310.905C130.475 308.233 132.921 307.288 136.181 305.936C138.861 309.071 143.308 308.966 145.21 305.147Z" fill="#D5506D"/>
<path d="M180.942 301.023C182.258 300.82 182.7 300.698 184.055 300.84C185.846 301.393 187.727 301.881 189.382 302.732C183.054 310.564 173.084 311.823 164.593 306.682C166.024 304.98 167.64 304.115 169.519 302.928C170.49 302.544 170.771 302.6 171.809 302.546C173.784 306.134 180.33 305.69 180.942 301.023Z" fill="#E86A7E"/>
<path d="M131.933 295.228C131.309 293.532 130.674 291.865 130.887 290.022C131.121 288.082 132.136 286.322 133.698 285.149C139.66 280.648 148.763 283.143 146.547 292.76L145.769 293.126C145.155 291.52 145.029 290.363 143.697 289.218C143.772 289.227 135.494 290.171 134.249 290.278C132.526 291.972 134.028 293.356 132.824 295.278L131.933 295.228Z" fill="#D5506D"/>
<path d="M53.7049 71.4144C69.2062 68.7577 83.9317 79.1525 86.6113 94.6442C89.2914 110.136 78.9139 124.87 63.4201 127.571C47.8951 130.278 33.1189 119.879 30.4334 104.356C27.7475 88.8325 38.1724 74.0768 53.7049 71.4144Z" fill="#E86A7E"/>
<path d="M54.5862 76.2961C67.4556 74.1042 79.6585 82.7774 81.8146 95.6481C83.9708 108.518 75.2599 120.692 62.3784 122.811C49.5481 124.921 37.4291 116.256 35.2817 103.437C33.1343 90.6177 41.7683 78.4788 54.5862 76.2961Z" fill="#FDFCFC"/>
<path d="M54.8558 87.4091C56.2521 87.4711 56.2668 87.3627 57.4462 88.0511C59.2919 90.745 59.3163 100.632 59.6147 104.681C62.4044 105.72 65.639 106.528 67.5916 108.574C68.2695 110.559 68.1035 109.848 67.406 112.223C63.9204 111.644 58.57 109.408 55.3081 107.974C54.9222 103.374 53.3193 90.7406 54.8558 87.4091Z" fill="#E86A7E"/>
<path d="M247.849 220.343C252.317 219.516 257.179 220.649 255.713 226.257C254.234 227.915 253.26 228.576 250.959 228.945C241.905 230.396 232.278 230.947 223.109 231.965C200.34 234.565 177.559 237.049 154.766 239.416C152.37 239.716 150.354 240.276 148.37 239.021C147.864 238.342 147.461 237.769 147.336 236.907C147.081 235.146 147.332 233.154 148.461 231.732C149.651 230.231 236.824 221.553 247.849 220.343Z" fill="#ECE4E4"/>
<path d="M134.578 232.561C135.376 232.434 136.138 232.526 136.971 232.556C139.119 234.273 139.688 237.628 138.239 239.999C133.992 243.011 72.4712 248.384 63.0203 249.314C61.7362 249.306 61.6713 249.157 60.3905 248.794C58.8431 247.44 58.9622 247.525 58.2323 245.583C58.3633 242.354 59.3956 240.97 62.6241 240.503C70.0454 239.429 77.6071 238.81 85.0632 237.978L134.578 232.561Z" fill="#ECE4E4"/>
<path d="M812.858 256.015C806.948 256.028 799.161 256.932 793.133 257.443L758.02 260.497C745.257 261.64 722.823 266.167 719.571 247.382C717.767 236.936 717.247 224.852 716.28 214.122L710.648 153.163L705.728 102.258C704.857 93.1438 703.748 83.5688 703.511 74.4347C703.432 71.3081 704.534 67.1933 706.468 64.7512C710.727 59.3769 715.166 56.9258 721.873 56.2197C732.702 55.079 743.521 54.1027 754.328 53.0942L824.547 46.7895L860.695 43.4056C873.956 42.1676 894.082 37.8634 898.261 54.9331C900.597 64.4674 901.553 80.8927 902.129 90.8888C918.744 93.4841 936.682 95.301 953.58 97.6085L954.745 96.9811C960.451 73.9921 978.937 58.1672 1003.22 65.0904C1013.1 67.9881 1021.43 74.6705 1026.41 83.6819C1031.18 92.3292 1032.29 102.53 1029.48 112C1025.09 126.746 1012.33 131.412 1010.91 135.527L1010.2 134.799C1007.78 135.63 1003.01 137.415 1000.67 137.87C999.816 147.296 997.82 157.749 996.491 167.223C995.365 175.618 994.11 183.995 992.73 192.352C991.554 201.278 989.625 230.948 983.473 235.851C980.504 238.217 977.122 237.777 973.61 237.243L973.061 237.157L970.749 236.484C969.29 242.777 968.187 253.339 967.429 259.964C964.912 280.878 962.13 301.76 959.082 322.604C958.081 329.872 956.747 338.24 955.927 345.429C953.172 369.703 942.326 368.883 922.013 366.749L851.545 358.824C839.199 357.487 826.3 356.501 814.159 354.176C808.272 353.049 802.045 345.639 802.243 339.332C802.537 329.686 804.313 320.216 805.619 310.643L812.858 256.015Z" fill="#FDFCFC"/>
<path d="M953.58 97.6085L954.745 96.981C960.451 73.9921 978.937 58.1672 1003.22 65.0904C1013.1 67.9881 1021.43 74.6704 1026.41 83.6818C1031.18 92.3292 1032.29 102.53 1029.48 112C1025.09 126.746 1012.33 131.412 1010.91 135.527L1010.2 134.799C1007.78 135.63 1003.01 137.415 1000.67 137.87C999.816 147.296 997.82 157.749 996.491 167.223C995.365 175.618 994.11 183.995 992.73 192.352C991.554 201.278 989.625 230.948 983.473 235.851C980.504 238.217 977.122 237.777 973.61 237.243L973.062 237.157L970.749 236.484C974.108 221.784 966.954 212.908 952.302 211.338C949.412 211.426 908.299 206.791 905.574 205.92C903.046 202.593 896.684 202.852 894.535 198.835L894.925 197.756L896.344 197.385L896.87 196.815L896.209 196.382L896.277 194.903L894.099 194.228C892.516 193.654 887.189 193.302 885.566 193.242L885.6 192.948C886.912 188.485 888.195 183.873 889.705 179.483C885.769 179.027 876.749 178.491 874.516 175.999L876.359 163.458C877.422 156.709 878.576 150.023 879.13 143.212L880.284 140.074C879.905 133.907 883.948 114.583 884.78 107.381C886.182 95.2122 914.774 104.333 922.471 104.147C927.21 104.033 951.923 109.398 955.395 107.591C954.982 104.476 955.203 101.869 954.66 98.3745L953.58 97.6085Z" fill="#E47D8D"/>
<path d="M953.58 97.6085L954.745 96.981C960.451 73.9921 978.938 58.1672 1003.22 65.0904C1013.1 67.9881 1021.43 74.6704 1026.41 83.6818C1031.18 92.3292 1032.29 102.53 1029.48 112C1025.09 126.746 1012.33 131.412 1010.91 135.527L1010.2 134.799C1007.78 135.63 1003.01 137.415 1000.67 137.87C977.761 141.366 961.678 129.299 955.395 107.591C954.983 104.476 955.203 101.869 954.66 98.3745L953.58 97.6085Z" fill="#D5506D"/>
<path d="M992.696 91.6169C993.154 90.9882 993.629 90.3721 994.116 89.7695C1001.2 81.1509 1011.83 84.3539 1012.19 95.5287C1012.41 102.51 1007.92 107.109 1003.37 111.605C999.748 114.886 996.762 117.717 992.679 120.474C982.783 113.796 961.061 93.371 981.086 84.9435C987.861 85.0498 988.879 86.363 992.696 91.6169Z" fill="#FDFCFC"/>
<path d="M880.284 140.074C879.905 133.907 883.948 114.583 884.78 107.381C886.182 95.2122 914.774 104.333 922.471 104.147C927.21 104.032 951.923 109.398 955.395 107.59C961.678 129.299 977.761 141.366 1000.67 137.869C999.816 147.296 997.82 157.749 996.491 167.223C988.913 160.351 989.919 161.815 980.492 159.114C977.297 158.199 979.627 155.133 971.325 154.555C965.834 158.165 964.398 161.143 957.844 158.749C944.741 163.472 946.465 159.56 934.002 155.668C931.666 149.943 928.233 148.132 923.127 145.225L923.494 144.569C925.966 144.728 930.948 145.078 933.216 145.592C933.148 145.577 934.974 149.492 939.306 148.041C940.692 145.252 938.362 141.781 935.998 140.213C930.343 136.462 925.53 135.677 918.942 136.881C922.397 133.691 926.429 129.679 930.626 127.548C932.118 126.787 931.457 127.471 932.565 126.093C930.659 123.74 926.367 123.64 923.625 124.08C917.766 125.023 914 127.83 910.493 132.483C907.92 127.115 905.387 122.759 900.003 119.722C897.583 118.356 892.222 117.981 890.898 120.731C892.063 121.746 897.871 126.388 898.205 127.03C900.727 131.865 900.082 132.347 903.803 136.813C893.777 130.454 888.512 131.999 880.284 140.074Z" fill="#F7D1D1"/>
<path d="M957.844 158.749C955.344 151.051 964.619 145.689 971.326 154.555C965.834 158.165 964.398 161.143 957.844 158.749Z" fill="#FDFCFC"/>
<path d="M895.908 180.087C903.537 181.434 945.034 188.306 950.174 186.921C963.526 188.571 979.75 189.988 992.729 192.352C991.553 201.278 989.624 230.948 983.471 235.851C980.503 238.216 977.121 237.777 973.609 237.242L973.06 237.157L970.747 236.484C974.107 221.784 966.953 212.908 952.3 211.338C949.411 211.426 908.298 206.791 905.572 205.92C903.045 202.593 896.682 202.851 894.534 198.835L894.924 197.756L896.343 197.385L896.869 196.815L896.208 196.382L896.275 194.903L894.098 194.228L893.787 190.855C894.726 187.305 895.28 183.705 895.908 180.087Z" fill="#ED959E"/>
<path d="M924.738 191.347C929.443 183.789 967.841 194.468 976.289 196.099L976.499 196.451C965.409 196.772 957.514 194.464 943.654 195.492C956.033 199.391 968.378 200.24 980.225 203.679C968.61 204.957 954.195 202.548 941.646 202.968C950.446 207.069 954.155 207.554 962.955 210.209C960.399 210.208 954.608 209.794 952.815 210.289L952.3 211.338C949.411 211.426 908.298 206.791 905.572 205.92C903.045 202.593 896.682 202.851 894.534 198.835L894.924 197.756L896.343 197.385L896.869 196.815L896.208 196.382L896.275 194.903L894.098 194.228L893.787 190.855C900.867 191.225 910.413 193.092 916.153 193.219L916.289 192.473C917.838 191.508 921.808 192.003 924.738 191.347Z" fill="#F5C6C8"/>
<path d="M896.276 194.903C902.977 196.104 927.956 199.785 931.903 201.479L931.654 201.881C925.728 202.304 901.552 199.59 896.344 197.385L896.87 196.815L896.208 196.382L896.276 194.903Z" fill="#E86A7E"/>
<path d="M924.739 191.347C926.735 192.043 927.114 191.793 928.228 193.182C925.508 194.706 919.349 193.566 916.154 193.22L916.29 192.473C917.84 191.508 921.809 192.004 924.739 191.347Z" fill="#E86A7E"/>
<path d="M918.342 151.354C921.661 153.772 930.992 162.502 932.853 163.086L933.825 162.558C934.759 160.441 934.227 158.039 934.001 155.668C946.465 159.56 944.74 163.472 957.843 158.749C964.397 161.143 965.833 158.165 971.325 154.555C979.626 155.133 977.296 158.199 980.491 159.114C989.919 161.815 988.912 160.351 996.49 167.223C995.364 175.618 994.109 183.995 992.729 192.352C979.751 189.988 963.526 188.572 950.174 186.921C944.327 181.263 934.668 171.622 927.435 167.929C926.31 167.356 923.233 167.414 921.825 167.439L920.988 167.459C921.379 159.327 922.001 158.592 918.342 151.354Z" fill="#F5C6C8"/>
<path d="M879.13 143.212C883.818 143.729 892.951 141.01 895.977 142.805C894.377 144.682 883.971 149.382 883.615 157.111L884.401 158.004C889.327 158.323 899.608 151.861 903.951 149.065C899.692 155.549 897.487 159.843 894.162 166.838C890.469 164.313 885.826 163.203 881.409 161.295C879.747 162.03 878.033 162.741 876.359 163.458C877.423 156.709 878.576 150.023 879.13 143.212Z" fill="#F5C6C8"/>
<path d="M903.289 162.188C904.607 160.032 907.463 154.551 909.431 153.721C912.094 155.498 908.916 156.479 913.564 159.817L913.649 161.617C913.304 164.344 914.712 166.222 916.019 168.669C913.321 169.743 908.871 170.887 905.97 171.715L899.478 169.214C900.778 166.523 901.621 164.72 903.289 162.188Z" fill="#F5C6C8"/>
<path d="M903.289 162.188C904.607 160.032 907.463 154.551 909.431 153.721C912.094 155.498 908.916 156.479 913.564 159.817L913.649 161.617C911.048 161.914 905.574 162.79 903.289 162.188Z" fill="#F5C6C8"/>
<path d="M874.515 175.999C876.749 178.491 885.769 179.027 889.705 179.483C888.195 183.873 886.911 188.485 885.599 192.948L885.565 193.242L883.903 197.06C881.873 195.062 874.685 194.577 871.586 194.17L872.304 191.101C873.232 186.581 873.509 181.093 874.515 175.999Z" fill="#ED959E"/>
<path d="M871.586 194.17L872.304 191.101C875.245 192.244 882.246 192.806 885.599 192.948L885.565 193.242L883.903 197.06C881.873 195.062 874.685 194.577 871.586 194.17Z" fill="#E47D8D"/>
<path d="M885.565 193.242C887.188 193.302 892.515 193.654 894.098 194.229L896.276 194.903L896.208 196.382L896.869 196.815L896.343 197.385L894.924 197.756L894.534 198.835C896.683 202.852 903.045 202.593 905.573 205.92C897.005 205.192 881.391 202.228 873.418 202.512C872.213 202.083 871.772 201.77 870.624 201.147L871.082 199.192L871.585 194.17C874.684 194.577 881.872 195.062 883.902 197.06L885.565 193.242Z" fill="#D5506D"/>
<path d="M871.083 199.192L871.586 194.17C874.685 194.577 881.873 195.062 883.903 197.06C878.61 199.928 873.305 197.045 871.083 199.192Z" fill="#ED959E"/>
<path d="M873.418 202.513C870.319 202.559 864.54 202.102 861.797 200.928C864.658 200.545 867.639 201.032 870.625 201.147C871.773 201.77 872.214 202.083 873.418 202.513Z" fill="#ECE4E4"/>
<path d="M717.948 120.258C717.936 120.227 717.925 120.195 717.914 120.163C716.749 106.48 714.939 92.7475 714.419 79.0311C714.17 72.4409 717.083 68.4935 723.75 67.7071C733.528 66.5539 743.367 65.8009 753.173 64.9389L808.831 60.0609L854.581 55.8274C862.487 55.097 873.769 53.8065 881.448 53.7737C885.429 55.7957 886.317 56.6776 889.15 60.0338C890.355 67.715 891.079 81.2143 891.791 89.3789C883.36 91.7136 878.112 94.3603 875.833 103.363C873.497 113.093 872.485 124.874 870.596 134.957C870.008 138.899 869.307 144.903 868.47 148.647C867.938 152.581 867.367 158.127 866.598 161.897C865.02 171.873 861.554 191.419 860.999 200.792C858.675 200.494 856.379 200.217 854.072 199.836C847.959 199.584 840.811 198.305 834.398 197.831C832.249 198.572 830.004 199.307 827.894 200.131C818.077 207.642 817.579 218.389 817.008 229.906L815.951 230.08C809.662 230.311 799.924 230.865 793.721 231.644C778.192 233.13 762.657 234.521 747.117 235.816C743.073 236.202 737.814 237.05 734.014 236.133C733.25 235.622 732.498 235.089 731.758 234.535C726.798 230.738 727.075 219.4 726.408 213.38C725.215 202.671 724.898 191.789 723.518 181.083C723.1 179.483 722.15 166.406 721.952 164.025C721.426 160.855 721.086 155.321 720.775 151.956C719.667 148.683 718.372 125.345 717.948 120.258Z" fill="#F7D1D1"/>
<path d="M717.948 120.258C717.936 120.227 717.925 120.195 717.914 120.163C716.749 106.48 714.939 92.7475 714.419 79.0311C714.17 72.4409 717.083 68.4935 723.75 67.7071C733.528 66.5539 743.367 65.8009 753.173 64.9389L808.831 60.0609L854.581 55.8274C862.487 55.097 873.769 53.8065 881.448 53.7737C885.429 55.7957 886.317 56.6776 889.15 60.0338C890.355 67.715 891.079 81.2143 891.791 89.3789C883.36 91.7136 878.112 94.3603 875.833 103.363C870.613 99.6114 843.57 103.041 836.015 103.789C828.488 110.327 822.573 111.526 814.39 105.067C800.201 105.31 788.738 107.928 775.166 109.16C757.528 110.761 735.094 111.437 718.513 119.233L717.948 120.258Z" fill="#F5C6C8"/>
<path d="M812.467 98.2603C813.502 93.9516 814.644 90.4739 818.444 87.8645C821.012 86.099 824.195 85.4557 827.249 86.0815C830.552 86.731 833.419 88.7639 835.127 91.6661C837.508 95.7187 837.247 99.4875 836.015 103.789C828.488 110.327 822.572 111.526 814.39 105.067C813.603 103.356 812.942 100.195 812.467 98.2603Z" fill="#FDFCFC"/>
<path d="M752.964 149.441C754.961 153.481 756.369 155.878 758.8 159.695L760.91 162.85C759.818 165.21 759.191 167.009 758.337 169.474C765.626 168.146 772.203 167.159 779.498 168.781L780.437 169.005L780.974 169.276C789.672 173.605 792.426 173.425 800.693 179.32C800.807 181.598 800.806 184.36 801.383 186.518C807.474 195.589 816.969 200.371 827.894 200.131C818.077 207.642 817.58 218.389 817.008 229.906L815.951 230.08C809.662 230.311 799.924 230.865 793.721 231.644C778.192 233.13 762.657 234.521 747.117 235.816C743.074 236.202 737.814 237.05 734.014 236.133C733.251 235.622 732.498 235.089 731.758 234.535C726.798 230.738 727.075 219.4 726.408 213.38C725.215 202.671 724.898 191.789 723.518 181.083C723.1 179.483 722.15 166.406 721.952 164.025C721.426 160.855 721.086 155.321 720.775 151.956C726.476 147.318 748.768 154.043 752.964 149.441Z" fill="#D5506D"/>
<path d="M793.721 231.644C794.202 216.009 785.776 198.063 801.384 186.518C807.474 195.589 816.969 200.371 827.895 200.131C818.078 207.642 817.58 218.389 817.009 229.906L815.951 230.08C809.663 230.311 799.925 230.865 793.721 231.644Z" fill="#E86A7E"/>
<path d="M752.964 149.441C754.961 153.481 756.369 155.878 758.8 159.695L760.91 162.85C759.818 165.21 759.191 167.009 758.337 169.474C753.258 172.013 748.316 174.82 743.532 177.884C738.889 176.345 726.962 174.881 723.733 179.228L723.518 181.083C723.1 179.483 722.15 166.406 721.952 164.025C721.426 160.855 721.086 155.321 720.775 151.956C726.476 147.318 748.768 154.043 752.964 149.441Z" fill="#F5C6C8"/>
<path d="M752.964 149.441C754.961 153.481 756.369 155.878 758.8 159.695C748.553 161.242 732.397 163.751 721.952 164.025C721.426 160.855 721.086 155.321 720.775 151.956C726.476 147.318 748.768 154.043 752.964 149.441Z" fill="#ED959E"/>
<path d="M723.52 181.083L723.734 179.228C726.963 174.881 738.89 176.345 743.533 177.884C732.726 188.033 732.274 205.398 733.461 219.406L741.678 219.546C744.313 219.536 743.782 219.118 745.286 220.458C746.886 225.865 746.445 230.23 747.118 235.816C743.075 236.202 737.816 237.05 734.015 236.133C733.252 235.622 732.5 235.089 731.759 234.535C726.799 230.738 727.077 219.4 726.409 213.38C725.216 202.671 724.899 191.789 723.52 181.083Z" fill="#E47D8D"/>
<path d="M741.677 219.546C744.312 219.536 743.781 219.118 745.285 220.458C746.886 225.865 746.444 230.23 747.117 235.816C743.074 236.202 737.815 237.05 734.015 236.133C734.835 231.874 734.088 224.558 733.822 219.99C737.046 220.012 738.437 220.025 741.677 219.546Z" fill="#E86A7E"/>
<path d="M803.402 167.354C800.676 161.103 803.758 145.531 808.724 140.728C816.743 132.97 825.401 134.985 832.645 142.251C834.567 145.387 835.891 147.815 836.501 151.542C838.69 158.847 838.057 166.076 841.84 170.198C853.518 168.928 857.069 163.477 866.598 161.898C865.02 171.873 861.554 191.419 860.999 200.792C858.675 200.494 856.379 200.217 854.072 199.836C847.959 199.584 840.811 198.305 834.398 197.831C832.249 198.572 830.004 199.307 827.894 200.131C816.969 200.371 807.474 195.589 801.383 186.519C800.806 184.36 800.806 181.598 800.693 179.32C803.317 174.051 804.991 172.623 803.402 167.354Z" fill="#AD2C50"/>
<path d="M841.841 170.198C853.518 168.928 857.07 163.477 866.599 161.897C865.021 171.873 861.554 191.419 861 200.792C858.676 200.494 856.38 200.217 854.073 199.836C847.959 199.584 840.811 198.305 834.398 197.831C840.715 192.631 842.977 191.333 845.901 183.734C847.654 177.234 846.048 174.938 841.841 170.198Z" fill="#E47D8D"/>
<path d="M845.901 183.734C851.268 186.458 856.663 193.053 855.271 199.337L854.073 199.836C847.959 199.584 840.811 198.305 834.398 197.831C840.715 192.631 842.977 191.333 845.901 183.734Z" fill="#E86A7E"/>
<path d="M752.964 149.441C752.184 143.037 751.234 138.499 755.611 132.366C760.678 125.261 776.377 124.17 783.089 129.124C785.538 130.931 784.215 140.466 783.802 143.694C782.411 145.13 781.212 145.973 780.918 147.886C781.042 150.157 780.918 155.215 781.251 156.86C778.288 161.148 778.435 162.886 779.368 168.077L779.498 168.781C772.203 167.159 765.626 168.146 758.337 169.474C759.191 167.009 759.818 165.21 760.91 162.85L758.8 159.695C756.369 155.878 754.961 153.481 752.964 149.441Z" fill="#AD2C50"/>
<path d="M760.91 162.85C762.086 163.417 762.505 163.391 763.692 163.628C775.342 165.96 779.708 158.834 780.918 147.886C781.042 150.157 780.918 155.215 781.251 156.86C778.288 161.148 778.435 162.886 779.368 168.077L779.498 168.781C772.203 167.159 765.626 168.146 758.337 169.474C759.191 167.009 759.819 165.21 760.91 162.85Z" fill="#E86A7E"/>
<path d="M836.502 151.542C839.946 150.35 863.669 148.939 868.47 148.647C867.939 152.581 867.368 158.127 866.598 161.897C857.07 163.477 853.518 168.928 841.84 170.198C838.057 166.076 838.69 158.847 836.502 151.542Z" fill="#F5C6C8"/>
<path d="M832.646 142.251C840.336 141.295 844.804 138.001 851.053 136.715C855.023 135.897 865.615 135.423 870.597 134.957C870.009 138.899 869.308 144.903 868.471 148.647C863.669 148.939 839.946 150.35 836.502 151.542C835.892 147.815 834.568 145.387 832.646 142.251Z" fill="#ED959E"/>
<path d="M803.403 167.354C804.992 172.623 803.318 174.051 800.694 179.32C792.426 173.425 789.672 173.605 780.975 169.276L780.438 169.005C788.626 167.974 795.214 167.445 803.403 167.354Z" fill="#ED959E"/>
<path d="M783.802 143.694C783.96 148.473 784.413 152.848 781.252 156.86C780.918 155.215 781.042 150.157 780.918 147.886C781.212 145.973 782.411 145.13 783.802 143.694Z" fill="#E47D8D"/>
<path d="M819.683 279.855L825.757 235.505C829.088 212.15 825.61 207.096 851.29 210.562C885.746 215.213 920.78 218.017 955.298 222.388C958.81 225.037 959.715 225.835 961.864 229.747C959.494 251.215 955.892 273.648 953.121 295.246C952.765 297.715 952.001 304.252 951.481 306.368C950.316 316.43 949.151 327.422 947.393 337.378C946.527 342.3 944.599 344.099 940.635 346.539C933.526 346.831 924.795 345.576 917.618 344.754L886.425 341.2L845.437 336.682C838.028 335.878 830.422 335.391 823.093 334.111C819.876 333.55 816.307 331.967 814.712 328.892C812.207 324.06 818.281 287.513 819.683 279.855Z" fill="#F5C6C8"/>
<path d="M819.683 279.855C829.947 273.119 839.55 263.62 851.595 271.06C859.857 278.151 868.713 287.258 876.613 294.995C878.468 296.704 880.459 298.63 882.404 300.196C887.889 305.693 894.365 312.493 900.014 317.669C917.143 311.726 932.927 306.137 951.481 306.368C950.316 316.43 949.151 327.422 947.393 337.378C946.527 342.3 944.599 344.099 940.635 346.539C933.526 346.831 924.795 345.576 917.618 344.754L886.425 341.2L845.437 336.682C838.028 335.878 830.422 335.39 823.093 334.111C819.876 333.55 816.307 331.967 814.712 328.892C812.207 324.06 818.281 287.513 819.683 279.855Z" fill="#E47D8D"/>
<path d="M916.855 293.438C919.802 290.9 929.969 276.667 932.35 277.666C938.169 280.111 948.071 290.536 953.121 295.246C952.765 297.715 952.002 304.252 951.481 306.368C932.927 306.137 917.144 311.726 900.014 317.669C894.365 312.493 887.89 305.693 882.404 300.196C891.04 296.009 899.466 291.105 908.248 287.344C911.522 289.954 913.264 291.333 916.855 293.438Z" fill="#ED959E"/>
<path d="M851.596 271.06C858.535 235.114 902.192 244.581 896.011 276.509C894.365 284.982 884.678 291.904 876.614 294.996C868.714 287.258 859.858 278.151 851.596 271.06Z" fill="#FAEAE5"/>
<path d="M817.009 229.906C816.376 234.233 814.408 249.932 813.101 253.113C811.998 251.737 815.267 232.785 815.951 230.08L817.009 229.906Z" fill="#ECE4E4"/>
<path d="M831.819 626.796C799.59 622.856 766.514 620.431 733.952 616.954C721.16 615.592 708.108 613.896 706.524 596.801C706.564 583.585 708.956 568.26 710.33 554.698C712.27 535.218 714.334 515.755 716.54 496.303C717.433 488.146 718.174 479.955 719.118 471.786C719.695 465.89 722.602 460.836 727.307 457.247C730.412 454.877 734.998 453.287 738.917 453.423C751.16 453.849 763.568 455.341 775.76 456.588C795.898 458.661 816.047 460.621 836.207 462.464L952.567 474.058L986.599 477.495C993.719 478.168 1002.62 478.767 1009.52 479.87C1014.97 480.752 1019.86 483.753 1023.11 488.219C1028.58 495.783 1025.63 513.324 1024.87 522.335C1023.62 537.225 1022.26 552.103 1020.81 566.976L1017.42 606.123C1016.86 612.347 1016.67 619.255 1015.38 625.315C1010.91 646.355 992.882 642.771 977.93 641.33L946.55 638.153C909.882 634.501 872.847 630.465 836.196 627.271C835.812 627.152 832.43 626.853 831.819 626.796Z" fill="#ECE4E4"/>
<path d="M736.797 457.435C743.838 457.032 756.516 458.65 763.93 459.411C778.831 461.006 793.738 462.498 808.656 463.9C855.074 468.111 901.451 472.73 947.783 477.761C967.118 479.734 986.566 481.181 1005.9 483.357C1013.02 484.155 1019.74 487.495 1021.62 494.929C1022.28 497.626 1022.54 500.401 1022.43 503.171C1021.78 520.791 1018.77 539.322 1017.44 557.027C1015.81 578.864 1013.31 600.804 1011.98 622.698C1011.43 631.657 1005.64 636.626 997.215 638.825C989.643 638.859 973.045 636.44 964.641 635.648C938.074 633.342 911.529 630.713 885.023 627.768L788.496 618.119C767.001 616.089 743.9 614.648 722.45 611.149C718.271 610.47 713.091 606.197 711.847 602.143C710.925 599.136 710.399 595.535 710.608 592.33C712.033 575.077 714.148 557.875 715.952 540.656L720.556 498.66C721.5 489.367 721.856 474.409 725.396 465.511C727.234 460.887 732.132 458.754 736.797 457.435Z" fill="#FDFCFC"/>
<path d="M760.249 512.838C761.035 511.006 761.776 509.243 762.941 507.614C765.519 503.974 769.467 501.537 773.878 500.859C778.057 500.237 782.315 501.317 785.685 503.867C789.836 507.055 791.358 510.95 792.025 515.924C811.682 518.756 837.175 520.469 857.404 522.521C858.009 521.006 858.495 519.893 859.304 518.457C861.515 514.455 865.298 511.555 869.737 510.458C873.826 509.44 878.147 510.141 881.704 512.397C886.324 515.37 888.077 519.457 889.23 524.568C889.14 526.62 889.067 528.559 888.857 530.599C886.556 536.032 883.095 539.932 877.123 541.295C872.887 542.278 868.431 541.498 864.783 539.13C860.31 536.207 858.518 532.697 857.488 527.654C838.318 524.72 811.58 522.968 791.646 521.057C788.852 526.151 786.245 529.836 780.121 531.51C775.908 532.697 771.389 532.052 767.674 529.746C762.873 526.744 761.125 522.663 759.791 517.53C753.468 517.055 739.738 516.823 734.886 513.652L734.693 512.719C739.076 509.644 754.498 512.233 760.249 512.838Z" fill="#E86A7E"/>
<path d="M870.964 519.327C874.589 518.084 878.541 519.989 879.831 523.601C881.12 527.208 879.271 531.187 875.674 532.521C873.305 533.398 870.653 532.934 868.724 531.312C866.79 529.684 865.885 527.145 866.349 524.669C866.813 522.188 868.577 520.147 870.964 519.327Z" fill="#FDFCFC"/>
<path d="M775.025 509.723C778.757 509.169 782.241 511.707 782.851 515.427C783.462 519.152 780.974 522.674 777.259 523.335C774.81 523.776 772.31 522.86 770.727 520.944C769.138 519.028 768.708 516.405 769.602 514.081C770.489 511.758 772.565 510.09 775.025 509.723Z" fill="#FDFCFC"/>
<path d="M864.296 553.098C873.147 553.432 879.005 554.059 885.741 560.718C897.571 572.431 894.201 604.105 873 602.285C851.844 600.775 838.537 599.345 844.509 571.742C846.726 561.487 853.648 554.427 864.296 553.098Z" fill="#ECE4E4"/>
<path d="M869.046 562.929C871.218 563.72 882.364 575.574 882.703 578C883.427 577.027 881.171 580.148 881.482 579.475C879.655 583.472 882.025 589.933 877.546 593.036C874.978 593.653 873.547 593.285 871.206 591.906C869.651 588.118 872.982 583.579 870.07 580.781C867.355 580.526 866.168 580.074 864.132 581.51C863.17 583.46 863.142 588.311 862.678 591.358C860.298 591.329 856.899 590.86 854.45 590.6C854.269 587.383 854.529 577.417 854.405 574.15C854.292 571.352 865.924 564.885 869.046 562.929Z" fill="#E47D8D"/>
<path d="M950.487 531.713C958.568 513.132 978.604 517.1 981.873 535.071C987.075 535.467 1001.68 535.732 1004.87 539.339C1003.07 543.098 985.469 540.311 981.392 539.882C978.989 544.76 976.512 548.271 971.004 550.221C967.152 551.606 962.911 551.391 959.224 549.627C954.004 547.117 951.459 542.799 950.227 537.349L950.097 536.784C930.253 535.161 908.673 532.821 888.857 530.599C889.067 528.559 889.14 526.62 889.231 524.568C890.441 526.303 894.043 526.331 896.249 526.512C914.294 528.016 932.447 530.311 950.487 531.713Z" fill="#C9C7C7"/>
<path d="M963.058 528.943C965.445 527.943 968.188 528.338 970.195 529.972C972.203 531.6 973.153 534.206 972.661 536.744C972.169 539.283 970.32 541.346 967.848 542.115C964.269 543.223 960.451 541.323 959.173 537.807C957.895 534.291 959.603 530.39 963.058 528.943Z" fill="#FDFCFC"/>
<path d="M956.807 565.224C959.799 565.145 960.167 565.761 962.598 567.536C965.578 566.869 969.186 565.49 971.262 568.056C971.652 571.476 969.808 574.009 968.055 576.796C977.562 586.106 979.829 596.055 967.903 604.557C964.165 606.174 959.867 606.768 955.925 605.53C952.159 604.348 949.026 601.708 947.216 598.203C945.226 594.342 944.898 589.843 946.306 585.733C948.234 580.193 951.622 578.118 956.525 575.851C954.664 571.063 952.951 569.271 956.807 565.224Z" fill="#C9C7C7"/>
<path d="M957.611 581.03C962.961 579.424 968.61 582.392 970.318 587.7C972.032 593.014 969.176 598.718 963.9 600.538C960.388 601.742 956.497 600.962 953.732 598.486C950.961 596.016 949.745 592.239 950.548 588.622C951.357 584.998 954.06 582.092 957.611 581.03Z" fill="#FDFCFC"/>
<path d="M957.787 569.119C960.128 570.311 961.831 571.657 964.358 571.725C965.439 570.724 965.009 570.979 966.326 570.374L967.418 571.425C966.694 572.273 966.304 572.618 965.489 573.387C960.858 574.546 959.557 573.166 957.787 569.119Z" fill="#FDFCFC"/>
<path d="M761.018 557.96C761.628 557.909 762.239 557.869 762.855 557.836C768.228 557.592 767.108 560.685 770.795 561.86L772.978 560.526C781.896 554.97 789.468 565.75 777.231 577.254C774.183 579.616 771.694 581.211 768.443 583.28C765.649 580.934 763.093 578.316 760.814 575.467C755.843 569.238 754.231 563.375 761.018 557.96Z" fill="#D5506D"/>
<path d="M103.935 403.583C113.229 397.56 124.182 398.116 132.66 405.315C137.527 410.71 139.823 415.314 139.5 422.803L139.463 423.479C147.085 422.154 191.582 413.321 196.763 414.137C200.863 418.323 204.532 442.221 205.949 449.236L219.133 516.84C221.584 515.924 221.046 515.709 223.229 516.15C224.863 518.57 222.131 520.481 220.251 521.905L228.989 565.546C230.507 573.07 232.195 580.583 233.38 588.164C234.208 593.46 233.45 595.739 228.115 597.129C210.186 601.799 192.128 605.987 174.16 610.504C145.536 617.887 116.989 625.558 88.5244 633.529C83.3885 634.569 79.4322 636.609 73.3314 637.463C65.5664 633.376 50.3457 624.716 43.2355 619.668C39.3414 599.65 36.5597 571.261 33.6394 550.255C30.4012 526.964 25.4389 497.399 23.6977 474.533C22.8008 468.275 19.4422 452.405 20.3295 447.342C23.2029 442.91 33.9182 442.412 38.9648 441.31C55.2781 437.746 72.862 436.023 89.0487 432.247C90.7514 427.252 92.0385 425.639 95.9106 422.164C96.678 413.263 97.4816 409.781 103.935 403.583Z" fill="#F7D1D1"/>
<path d="M103.936 403.583C113.23 397.56 124.183 398.116 132.66 405.315C137.527 410.71 139.824 415.314 139.5 422.803L139.464 423.479C137.457 429.169 136.502 431.253 132.85 436.107C132.804 438.079 132.872 440.459 132.361 442.305L132.121 436.936L131.506 436.641C128.119 438.654 124.765 440.049 120.829 440.564C114.757 441.321 108.635 439.611 103.836 435.817C99.4908 432.405 96.6276 427.652 95.9111 422.164C96.6785 413.263 97.4821 409.781 103.936 403.583Z" fill="#D5506D"/>
<path d="M103.936 403.583C113.23 397.56 124.183 398.116 132.66 405.315C132.443 407.213 131.398 408.894 131.284 410.445C130.704 418.381 130.733 427.333 120.313 428.312C116.425 428.649 112.562 427.438 109.563 424.942C104.069 420.341 104.691 410.747 103.936 403.583Z" fill="#E86A7E"/>
<path d="M23.6982 474.533C27.5861 484.822 30.6563 505.658 32.8069 516.998L45.2957 580.102C46.421 585.891 49.6229 606.903 52.554 610.51C60.2138 616.129 80.5716 629.622 88.525 633.529C83.389 634.569 79.4327 636.609 73.332 637.463C65.567 633.376 50.3462 624.716 43.2361 619.668C39.342 599.65 36.5602 571.261 33.6399 550.255C30.4018 526.964 25.4394 497.399 23.6982 474.533Z" fill="#E47D8D"/>
<path d="M89.0493 432.247C90.752 427.252 92.0391 425.639 95.9112 422.164C96.6277 427.652 99.4909 432.405 103.836 435.817C108.635 439.611 114.757 441.321 120.829 440.564C124.765 440.049 128.119 438.654 131.506 436.641L132.121 436.936L132.361 442.305C130.967 449.567 126.611 454.081 119.861 456.927C116.475 457.552 115.393 457.716 111.847 457.755C112.046 457.825 104.761 456.718 103.824 456.529C95.8298 452.929 92.2495 449.477 89.707 441.124C88.9882 437.169 88.8395 436.343 89.0493 432.247Z" fill="#AD2C50"/>
<path d="M52.5547 610.51C97.1989 593.404 77.8884 599.096 88.5257 633.529C80.5723 629.623 60.2145 616.129 52.5547 610.51Z" fill="#F5C6C8"/>
<path d="M89.7073 441.124C92.2498 449.477 95.8301 452.929 103.825 456.529C104.761 456.718 112.046 457.825 111.847 457.755C115.393 457.716 116.475 457.552 119.861 456.927C121.254 462.922 116.531 466.738 111.114 467.869C96.5596 470.91 78.6567 455.757 89.7073 441.124Z" fill="#F5C6C8"/>
<path d="M103.825 456.529C104.761 456.718 112.046 457.825 111.847 457.755L110.377 457.984C108.103 461.175 108.895 463.256 104.526 465.33C100.837 464.12 102.993 459.112 103.825 456.529Z" fill="#817E7F"/>
<path d="M219.133 516.84C221.584 515.924 221.047 515.709 223.229 516.15C224.863 518.57 222.132 520.481 220.251 521.905L219.133 516.84Z" fill="#D5506D"/>
<path d="M195.767 546.62C213.266 544.952 202.385 569.633 197.571 576.999C193.496 575.648 192.088 575.032 188.284 573.025C183.58 570.131 179.48 567.344 177.475 561.815C176.243 558.412 176.244 552.409 181.067 551.787C184.461 551.346 186.935 552.51 189.76 554.297C191.722 550.492 192.442 549.305 195.767 546.62Z" fill="#E86A7E"/>
<path d="M197.531 549.746C206.338 553.307 198.991 566.886 196.066 572.556C191.395 570.295 189.431 569.424 185.137 566.468C182.624 564.031 180.081 561.346 180.476 557.671C184.099 553.053 189.412 558.893 192.192 561.544C193.609 556.027 193.571 553.652 197.531 549.746Z" fill="#F5C6C8"/>
<path d="M151.636 474.482C154.539 475.901 154.593 476.563 154.364 479.796C132.641 483.996 110.893 488.067 89.1207 492.007C81.1176 493.454 73.192 494.912 65.2437 496.636C63.1106 497.1 58.7251 496.28 57.8779 493.816C58.8908 492.12 60.9441 490.91 62.8544 490.571C71.1075 489.112 79.4279 487.806 87.6753 486.286L151.636 474.482Z" fill="#F5C6C8"/>
<path d="M158.369 502.402L159.577 507.778C133.361 514.33 104.243 517.502 77.7027 523.737C73.5445 524.709 69.5972 525.828 65.6064 524.127C64.1581 522.442 64.4171 523.358 64.5183 521.379C65.2461 520.509 66.1979 519.633 67.3346 519.407C75.7341 517.756 84.784 516.224 93.1632 514.658L158.369 502.402Z" fill="#F5C6C8"/>
<path d="M113.783 540.645C116.358 542.239 116.027 542.742 116.359 545.721C104.802 548.96 91.9853 550.108 80.2797 553.047C76.4054 554.02 72.6301 554.427 69.3643 551.725L69.7285 549.972C73.2816 547.491 106.644 542.081 113.783 540.645Z" fill="#F5C6C8"/>
<path d="M113.783 540.645L114.32 540.588C121.453 539.757 134.955 535.478 140.999 536.337C142.326 537.569 141.902 536.84 142.306 538.61C139.784 542.227 120.981 545.167 116.359 545.721C116.028 542.742 116.358 542.239 113.783 540.645Z" fill="#F5C6C8"/>
<path d="M151.636 474.482L152.336 474.409C158.848 473.668 172.684 469.971 177.827 470.944L179.18 472.035C179.521 476.45 158.175 479.525 154.364 479.796C154.593 476.563 154.539 475.901 151.636 474.482Z" fill="#F5C6C8"/>
<path d="M158.369 502.403C163.693 501.385 181.088 497.032 184.682 499.915C184.074 504.161 163.795 507.14 159.577 507.778L158.369 502.403Z" fill="#F5C6C8"/>
<path d="M473.639 61.1875C489.564 59.9744 496.301 66.07 504.631 78.2956C510.942 68.3775 518.792 61.2412 531.369 60.9557C547.322 60.5934 558.96 73.7636 558.637 89.3478C558.253 107.83 544.618 122.539 532.239 134.8C525.538 141.381 512.656 151.976 504.569 155.948C503.274 155.312 502.007 154.609 500.786 153.843C478.906 140.187 436.195 102.498 455.026 72.8886C459.758 65.447 465.38 62.9863 473.639 61.1875Z" fill="#D5506D"/>
<path d="M1000.67 137.87C1003.01 137.415 1007.78 135.63 1010.2 134.799L1010.91 135.527C1005.7 164.355 1003.29 194.693 997.876 223.631C995.563 236.007 997.31 258.359 980.633 260.67C975.923 261.69 972.077 260.827 967.429 259.964C968.186 253.339 969.289 242.777 970.748 236.484L973.061 237.157L973.61 237.243C977.122 237.777 980.503 238.217 983.472 235.851C989.625 230.948 991.553 201.278 992.73 192.352C994.11 183.995 995.365 175.618 996.49 167.223C997.819 157.749 999.816 147.296 1000.67 137.87Z" fill="#FDFCFC"/>
<path d="M970.748 236.484L973.061 237.157C971.975 237.76 971.495 237.685 971.319 239.189C970.918 242.704 968.367 255.127 969.742 257.662L972.258 258.074C970.398 259.236 969.131 257.089 968.237 258.677C968.967 259.585 978.648 260.425 980.633 260.67C975.923 261.69 972.077 260.827 967.429 259.964C968.186 253.339 969.289 242.777 970.748 236.484Z" fill="#ECE4E4"/>
<path d="M607.572 72.9417C608.957 72.7133 609.048 72.8213 610.461 73.0695L611.219 74.2894L610.835 75.4002C607.611 78.1882 592.58 81.9814 587.27 83.6671C584.634 83.6739 585.551 84.1781 584.086 82.7671L584.131 81.6835C586.636 78.9672 602.748 74.5059 607.572 72.9417Z" fill="#E86A7E"/>
<path d="M398.106 72.7948C402.937 73.0656 418.639 78.06 423.661 80.5987C424.996 81.2737 424.745 82.5366 424.823 83.8888C419.461 83.6101 404.57 78.7587 399.123 76.1521C397.82 75.5286 398.108 74.0724 398.106 72.7948Z" fill="#E86A7E"/>
<path d="M581.128 27.9736C581.552 28.0815 582.474 28.5016 582.921 28.687L583.322 29.9617C581.954 34.8951 572.527 46.941 569.015 51.222C567.658 50.9139 568.138 51.1168 567.024 50.2429C566.6 45.7838 577.792 32.3965 581.128 27.9736Z" fill="#E86A7E"/>
<path d="M426.005 28.0137C430.609 28.376 438.963 43.5729 441.643 47.5865C442.639 49.0766 442.069 50.0738 441.569 51.5639C437.139 49.3225 429.402 36.7368 426.347 32.1895C425.017 30.2087 425.461 29.7684 426.005 28.0137Z" fill="#E86A7E"/>
<path d="M710.054 420.822C713.82 420.535 716.568 419.962 719.843 422.051L719.611 423.669L720.374 422.959C718.898 424.335 718.078 424.232 716.065 424.499C712.683 424.679 706.745 425.566 704.37 422.689C706.151 420.965 707.577 421.088 710.054 420.822Z" fill="#E86A7E"/>
<path d="M304.026 415.997C308.437 416.101 313.4 415.891 317.561 417.095C319.057 418.659 318.565 417.698 318.593 420.3C315.239 420.935 308.509 420.568 305.199 419.251C303.674 417.56 304.164 418.56 304.026 415.997Z" fill="#E86A7E"/>
<path d="M258.005 403.484C261.092 403.538 268.856 406.133 271.146 408.443C271.889 409.192 271.608 409.487 271.677 410.841C268.307 411.388 261.726 408.952 259.055 406.865C257.67 405.782 257.947 404.965 258.005 403.484Z" fill="#E86A7E"/>
<path d="M740.846 416.181C742.707 416.14 741.87 415.878 743.391 417.134L743.476 418.353C741.271 420.814 735.417 421.487 732.013 422.188C731.544 422.241 730.679 422.087 730.158 422.024L729.321 420.836L729.57 419.826C731.64 417.993 737.945 416.853 740.846 416.181Z" fill="#E86A7E"/>
<path d="M727.074 766.496C730.769 765.928 738.751 763.055 740.684 766.342L740.115 768.283C736.754 768.926 728.491 771.595 726.59 768.222L727.074 766.496Z" fill="#E86A7E"/>
<path d="M705.268 765.529C708.001 764.91 717.029 764.703 719.563 766.387C720.305 766.875 720.21 767.759 720.449 768.905C717.471 769.407 708.987 769.73 706.331 768.01C705.409 767.416 705.613 766.915 705.268 765.529Z" fill="#D5506D"/>
<path d="M686.261 764.529C688.994 763.91 698.022 763.703 700.557 765.387C701.298 765.875 701.203 766.759 701.442 767.905C698.464 768.407 689.98 768.73 687.324 767.01C686.402 766.416 686.606 765.915 686.261 764.529Z" fill="#D5506D"/>
<path d="M281.081 411.383C284.746 411.793 292.637 412.747 294.726 415.795L294.313 417.949C289.971 417.026 285.264 416.868 281.586 414.59C280.479 412.733 280.735 413.747 281.081 411.383Z" fill="#E86A7E"/>
<path d="M316.056 124.001C319.275 123.856 326.401 123.062 328.936 124.743C329.317 126.634 329.404 125.697 328.344 127.604C324.825 127.575 316.617 129.143 315.225 125.876L316.056 124.001Z" fill="#D5506D"/>
<path d="M763.783 407.016C764.965 407.231 764.637 407.223 765.74 407.966L765.785 409.079C763.794 411.959 757.84 413.871 754.509 415.191L753.004 414.587C751.596 411.292 760.899 408.318 763.783 407.016Z" fill="#E86A7E"/>
<path d="M217.066 377.017C219.547 377.679 226.406 383.086 228.218 385.366C229.197 386.596 228.816 386.634 228.542 388.2C225.014 388.064 218.628 382.517 216.81 379.465C216.264 378.547 216.745 378.066 217.066 377.017Z" fill="#D5506D"/>
<path d="M237.578 391.621C241.395 393.694 245.801 395.749 248.874 398.734C249.431 400.546 249.409 399.602 248.511 401.643C245.401 400.23 237.998 397.446 236.792 394.153C236.489 393.325 237.075 392.708 237.578 391.621Z" fill="#D5506D"/>
<path d="M681.868 419.648C686.019 419.923 691.827 419.741 694.841 422.392L694.581 423.301C690.113 425.056 686.715 423.878 681.942 423.203L681.868 419.648Z" fill="#E86A7E"/>
<path d="M169.369 637.842L171.351 638.221C173.691 640.521 174.486 649.577 173.82 652.783C168.994 650.883 168.72 642.291 169.369 637.842Z" fill="#D5506D"/>
<path d="M301.758 125.674C304.739 125.434 304.213 125.003 306.267 126.277C305.966 129.62 299.425 130.103 296.865 130.436C293.748 130.776 294.442 131.198 292.429 129.82L293.673 130.586L292.429 129.57C293.835 126.534 298.817 126.107 301.758 125.674Z" fill="#E86A7E"/>
<path d="M784.316 394.481C786.205 395.121 785.6 394.531 786.397 396.084C785.413 399.036 778.881 402.506 776.139 404.21C774.352 403.607 774.906 404.182 774.137 402.763C774.889 400.01 781.579 396.269 784.316 394.481Z" fill="#D5506D"/>
<path d="M302.351 480.135L305.055 479.762L306.122 481.249L305.469 482.267C301.987 484.454 300.497 484.477 296.446 485.127C294.282 485.33 293.826 485.432 292.416 484.403L292.678 483.374C296.435 480.746 297.835 480.819 302.351 480.135Z" fill="#E86A7E"/>
<path d="M184.863 338.934C189.662 338.82 194.651 347.338 194.027 351.016C190.204 350.736 184.876 342.581 184.863 338.934Z" fill="#E86A7E"/>
<path d="M338.11 124.925C341.224 124.88 348.78 125.338 351.058 127.642C351.792 128.384 351.511 128.732 351.567 130.072C349.227 130.473 341.548 129.471 339.4 128.08C337.963 127.149 338.251 126.457 338.11 124.925Z" fill="#E86A7E"/>
<path d="M240.324 503.036C240.965 502.99 241.798 503.2 242.479 503.318L243.049 504.2C242.309 506.976 235.838 510.226 233.263 511.758C231.805 512.047 232.531 512.086 231.086 511.606L230.939 510.797C231.713 507.784 237.636 504.664 240.324 503.036Z" fill="#E86A7E"/>
<path d="M687.512 133.093C690.809 132.907 698.279 132.002 700.457 134.26L700.389 135.16L698.947 136.314C695.582 136.3 688.92 137.453 686.607 135.763C686.33 134.006 686.228 134.897 687.512 133.093Z" fill="#D5506D"/>
<path d="M834.607 643.552C836.021 643.97 835.586 643.806 836.847 644.609C838.594 647.876 837.124 654.824 836.304 658.396C835.213 658.04 834.494 658.08 834.115 657.283C832.724 654.394 833.838 646.451 834.607 643.552Z" fill="#D5506D"/>
<path d="M199.371 358.61C202.745 359.14 209.883 367.516 209.74 371.122C205.404 369.785 198.824 363.47 199.371 358.61Z" fill="#E86A7E"/>
<path d="M673.154 134.761C675.297 134.436 675.976 134.126 677.921 135.077C677.565 136.024 677.797 135.512 677.174 136.588C674.449 138.66 672.255 138.773 668.929 139.367C667.357 139.711 666.831 139.577 665.237 139.472L665.548 139.389L664.241 138.76L664.49 137.816C667.697 135.05 669.037 135.232 673.154 134.761Z" fill="#E86A7E"/>
<path d="M260.618 492.917C262.679 493.657 262.073 492.99 262.966 494.522C261.549 497.286 255.239 499.463 252.016 500.876C250.429 500.09 251.013 500.661 250.173 499.141C251.224 496.422 257.917 494.098 260.618 492.917Z" fill="#D5506D"/>
<path d="M832.396 666.146C837.463 667.605 832.487 677.537 830.689 680.454C829.823 679.872 829.083 679.651 828.862 678.826C828.116 676.051 831.237 668.803 832.396 666.146Z" fill="#E86A7E"/>
<path d="M699.925 494.07C703.335 494.596 711.342 494.997 712.869 498.293L712.162 500.198C708.651 499.367 700.779 498.768 699.195 495.828L699.925 494.07Z" fill="#E86A7E"/>
<path d="M174.918 661.036C178.979 661.443 182.337 671.076 181.939 674.241C177.142 673.625 174.278 665.078 174.918 661.036Z" fill="#E86A7E"/>
<path d="M281.956 485.082C282.613 485.178 283.164 485.545 283.813 485.868L283.915 486.93C282.55 489.248 275.671 490.91 272.846 491.82C272.396 491.73 271.474 491.187 271.01 490.944L270.946 489.825C272.991 487.309 278.796 485.992 281.956 485.082Z" fill="#E86A7E"/>
<path d="M654.487 139.102C654.99 139.193 655.895 139.685 656.415 139.928L656.669 140.94C655.374 143.257 648.826 144.972 646.089 145.906C645.371 145.845 644.737 145.442 644.002 145.109L643.923 144.099C645.693 141.427 651.41 140.048 654.487 139.102Z" fill="#E86A7E"/>
<path d="M816.433 360.379C821.488 362.157 813.283 370.476 811.32 372.779C810.076 372.468 810.54 372.66 809.511 371.777C809.166 368.648 814.301 363.078 816.433 360.379Z" fill="#D5506D"/>
<path d="M169.617 614.761L171.2 615.315C173.271 618.294 171.91 625.79 171.49 629.639C170.351 629.142 169.565 629.091 169.128 628.226C167.573 625.14 168.638 617.955 169.617 614.761Z" fill="#D5506D"/>
<path d="M824.604 687.136C829.999 688.707 823.043 697.26 821.12 699.832C816.653 696.916 822.37 690.629 824.604 687.136Z" fill="#D5506D"/>
<path d="M814.774 704.482C819.707 707.172 811.081 714.038 808.652 716.139C804.912 712.334 811.844 707.417 814.774 704.482Z" fill="#D5506D"/>
<path d="M802.044 719.101C806.978 721.791 798.351 728.657 795.922 730.758C792.183 726.952 799.114 722.035 802.044 719.101Z" fill="#D5506D"/>
<path d="M789.315 733.719C794.248 736.409 785.622 743.275 783.193 745.376C779.454 741.571 786.385 736.654 789.315 733.719Z" fill="#D5506D"/>
<path d="M776.363 746.969C780.503 750.768 770.476 755.355 767.612 756.809C764.9 752.215 772.812 749.112 776.363 746.969Z" fill="#D5506D"/>
<path d="M759.335 757.273C762.496 761.918 751.685 764.088 748.564 764.849C746.976 759.756 755.388 758.546 759.335 757.273Z" fill="#D5506D"/>
<path d="M801.485 379.078C803.12 379.538 802.447 379.102 803.521 380.511C803.193 383.511 797.363 387.806 794.92 389.912C793.455 389.543 794.06 389.904 793.184 388.634C793.534 385.969 799.212 381.227 801.485 379.078Z" fill="#D5506D"/>
<path d="M410.469 170.605C413.09 171.695 416.153 176.435 417.388 178.976C418.467 181.196 418.169 181.057 417.466 182.948C413.995 181.921 410.823 176.188 409.696 172.928C409.342 171.903 409.9 171.597 410.469 170.605Z" fill="#E86A7E"/>
<path d="M325.811 476.806C326.499 476.84 326.05 476.76 327.05 477.377C327.107 479.423 327.483 478.705 326.526 479.977C323.78 480.955 319.554 481.085 316.531 481.339C315.253 480.989 315.328 481.045 314.433 480.073C315.505 476.953 322.919 477.037 325.811 476.806Z" fill="#D5506D"/>
<path d="M395.514 154.059C399.47 154.183 405.584 160.601 405.183 164.848C401.308 164.088 395.575 157.982 395.514 154.059Z" fill="#D5506D"/>
<path d="M359.935 130.37C362.317 130.807 370.599 133.764 371.923 136.023C372.349 136.752 371.96 137.499 371.755 138.573C368.498 137.342 361.27 135.071 359.448 132.269L359.935 130.37Z" fill="#D5506D"/>
<path d="M588.813 190.885C593.982 192.272 587.054 200.303 585.33 202.897C581.105 199.017 585.918 194.469 588.813 190.885Z" fill="#E86A7E"/>
<path d="M378.995 140.559C382.488 140.851 386.771 143.896 389.092 146.451C390.473 147.97 390.119 148.387 389.97 150.174C386.874 149.689 383.234 146.473 380.844 144.412C378.859 142.699 379.1 142.55 378.995 140.559Z" fill="#E86A7E"/>
<path d="M616.988 158.729C618.305 159.148 617.808 158.897 618.826 160.016C618.294 163.045 613.205 166.346 610.473 168.537C609.766 168.58 609.483 168.378 608.731 168.138L608.432 167.041C609.681 163.893 614.234 160.799 616.988 158.729Z" fill="#E86A7E"/>
<path d="M635.01 147.497C636.718 148.091 636.096 147.576 637.046 148.945C636.311 151.445 629.734 154.227 627.336 155.458L625.595 155.25L625.159 154.265C626.16 151.463 632.285 148.876 635.01 147.497Z" fill="#E86A7E"/>
<path d="M420.954 189.63C424.98 190.544 427.894 198.638 426.848 202.148C422.815 201.128 420.145 193.336 420.954 189.63Z" fill="#E86A7E"/>
<path d="M602.081 172.778L603.613 174.128C603.619 177.331 599.095 181.836 596.788 184.572C595.555 183.755 595.979 184.092 595.074 182.839C595.102 179.638 599.836 175.225 602.081 172.778Z" fill="#D5506D"/>
<path d="M831.818 626.796C832.429 626.853 835.811 627.152 836.195 627.271C835.692 629.131 837.739 634.032 834.821 635.372C831.83 633.173 832.226 630.318 831.818 626.796Z" fill="#D5506D"/>
<path d="M682.027 492.244C684.82 492.284 686.946 491.978 689.282 493.363L689.955 494.409C688.032 496.908 684.939 496.037 681.976 495.845L682.027 492.244Z" fill="#E86A7E"/>
<path d="M84.1334 225.992C84.1113 225.613 84.1151 225.316 84.145 225.103C84.2145 224.845 84.4541 224.598 84.8635 224.362C84.9032 224.318 85.0074 224.291 85.1761 224.281C85.3424 224.229 85.5086 224.177 85.6749 224.125C85.8833 224.07 86.0508 224.039 86.1773 224.032C86.3436 223.98 86.4478 223.953 86.49 223.95C86.7406 223.893 87.0086 223.772 87.2939 223.586C87.619 223.355 87.9231 223.126 88.206 222.898C88.5286 222.625 88.8103 222.376 89.0511 222.15C89.2918 221.924 89.473 221.766 89.5946 221.674C90.7561 220.548 91.5108 219.34 91.8587 218.05C92.2487 216.758 92.3981 215.331 92.307 213.771C92.2946 213.56 92.2774 213.265 92.2552 212.885C92.233 212.505 92.1898 212.127 92.1254 211.75C92.1008 211.328 92.0166 210.973 91.8728 210.685C91.7265 210.355 91.5232 210.135 91.2627 210.023C91.1759 209.986 90.9638 209.977 90.6263 209.996C90.3311 210.014 90.1413 210.025 90.0569 210.03C89.0869 210.086 88.1713 210.351 87.3102 210.825C86.4888 211.254 85.6711 211.746 84.8571 212.301C84.0829 212.812 83.2652 213.304 82.4041 213.778C81.5827 214.206 80.6659 214.45 79.6536 214.509C78.9788 214.549 78.4392 214.369 78.035 213.969C77.6283 213.527 77.4064 212.99 77.3695 212.357C77.33 211.683 77.6778 210.752 78.4126 209.567C79.1474 208.381 79.984 207.126 80.9224 205.802C81.8607 204.477 82.7792 203.175 83.6778 201.895C84.574 200.573 85.186 199.459 85.5138 198.551L85.0077 198.58C84.0376 198.637 83.1642 198.899 82.3875 199.368C81.6083 199.794 80.8737 200.26 80.1838 200.766C79.4939 201.272 78.8027 201.757 78.1104 202.22C77.4577 202.639 76.7518 202.871 75.9926 202.915C75.4442 202.947 74.8674 202.854 74.2622 202.636C73.6544 202.375 73.3296 201.886 73.2877 201.169C73.2532 200.578 73.5351 199.969 74.1332 199.342C74.7289 198.672 75.5181 198.055 76.5008 197.49C77.4811 196.882 78.5692 196.311 79.7653 195.776C81.0035 195.238 82.2032 194.766 83.3645 194.359C84.5679 193.951 85.6709 193.632 86.6733 193.404C87.6732 193.134 88.4473 192.983 88.9957 192.951C90.5562 192.86 91.3846 193.637 91.4807 195.282L91.5287 196.105C90.9226 198.044 90.1578 199.803 89.2342 201.381C88.3082 202.916 87.3883 204.557 86.4746 206.303L87.1073 206.266C87.6978 206.231 88.2226 206.159 88.6816 206.047C89.1828 205.933 89.7286 205.859 90.3191 205.825C92.0062 205.726 93.3669 206.197 94.401 207.237C95.4327 208.235 96.2051 209.501 96.718 211.037C96.7303 211.248 96.7562 211.691 96.7956 212.366C96.8748 212.996 96.9193 213.396 96.9291 213.564C97.0942 216.39 96.6454 218.85 95.5827 220.943C94.5176 222.995 92.8719 224.889 90.6458 226.628C89.519 227.625 88.2597 228.164 86.8678 228.245C86.193 228.284 85.5679 228.088 84.9925 227.656C84.4567 227.179 84.1704 226.625 84.1334 225.992ZM98.4646 201.957C98.4122 199.866 98.2033 197.783 97.8377 195.709C97.4722 193.636 97.2294 191.572 97.1095 189.519C97.0708 188.858 97.2388 188.447 97.6135 188.285C97.9861 188.089 98.4159 187.977 98.9031 187.948C99.599 187.908 100.184 188.065 100.659 188.422C101.134 188.778 101.426 189.302 101.537 189.994C102.071 193.769 102.465 197.517 102.717 201.238C103.002 204.922 103.482 208.648 104.156 212.414C105.084 210.37 106.067 208.671 107.105 207.319C108.143 205.966 109.155 205.052 110.14 204.575C111.159 204.097 112.104 204.129 112.973 204.672C113.876 205.178 114.638 206.268 115.259 207.943C115.879 209.582 116.326 211.861 116.602 214.777C116.875 217.659 116.911 221.271 116.711 225.612C116.467 225.626 116.172 225.661 115.827 225.716C115.479 225.737 115.13 225.739 114.78 225.725C114.464 225.708 114.182 225.655 113.932 225.565C113.683 225.475 113.532 225.292 113.481 225.015C113.607 222.389 113.636 220.188 113.567 218.411C113.498 216.635 113.36 215.176 113.154 214.036C112.948 212.896 112.705 212.037 112.427 211.46C112.147 210.848 111.86 210.411 111.565 210.148C111.27 209.886 110.984 209.763 110.706 209.78C110.46 209.759 110.269 209.77 110.131 209.813C109.382 210.136 108.691 210.857 108.058 211.977C107.46 213.094 106.959 214.38 106.555 215.835C106.152 217.29 105.875 218.825 105.725 220.44C105.607 222.018 105.637 223.431 105.815 224.677C105.796 224.958 105.778 225.238 105.759 225.518C105.741 225.799 105.686 226.064 105.596 226.313C105.541 226.561 105.414 226.778 105.215 226.964C105.049 227.114 104.775 227.199 104.392 227.222C103.662 227.264 103.063 227.177 102.596 226.96C102.163 226.706 101.812 226.377 101.544 225.974C101.311 225.569 101.143 225.09 101.041 224.537C100.973 223.982 100.957 223.407 100.992 222.811L98.4646 201.957Z" fill="#817E7F"/>
<path d="M156.33 216.161C156.291 215.814 156.279 215.541 156.296 215.344C156.346 215.104 156.554 214.865 156.917 214.628C156.952 214.586 157.046 214.555 157.2 214.538C157.35 214.482 157.5 214.425 157.65 214.369C157.838 214.309 157.991 214.272 158.106 214.259C158.256 214.203 158.35 214.172 158.389 214.168C158.616 214.103 158.856 213.978 159.108 213.793C159.395 213.565 159.662 213.339 159.91 213.115C160.192 212.849 160.438 212.606 160.648 212.387C160.857 212.168 161.016 212.013 161.122 211.922C162.131 210.831 162.763 209.684 163.017 208.483C163.309 207.277 163.374 205.961 163.211 204.534C163.189 204.341 163.159 204.071 163.119 203.724C163.079 203.376 163.021 203.031 162.942 202.689C162.898 202.303 162.803 201.982 162.657 201.725C162.506 201.429 162.308 201.237 162.063 201.148C161.982 201.118 161.787 201.12 161.478 201.156C161.208 201.186 161.035 201.206 160.957 201.215C160.07 201.316 159.244 201.605 158.477 202.083C157.745 202.518 157.02 203.011 156.301 203.562C155.617 204.07 154.891 204.563 154.125 205.041C153.393 205.476 152.564 205.746 151.639 205.851C151.021 205.922 150.517 205.784 150.126 205.437C149.73 205.053 149.5 204.571 149.434 203.992C149.364 203.375 149.635 202.504 150.25 201.379C150.864 200.254 151.568 199.06 152.362 197.797C153.156 196.535 153.933 195.294 154.693 194.074C155.448 192.816 155.953 191.762 156.208 190.912L155.745 190.965C154.858 191.066 154.07 191.351 153.381 191.82C152.687 192.251 152.037 192.716 151.43 193.215C150.822 193.714 150.212 194.193 149.601 194.654C149.023 195.071 148.387 195.319 147.693 195.398C147.191 195.456 146.657 195.399 146.091 195.229C145.52 195.021 145.197 194.588 145.122 193.933C145.061 193.393 145.289 192.82 145.806 192.214C146.318 191.569 147.011 190.963 147.884 190.394C148.753 189.788 149.723 189.208 150.793 188.657C151.902 188.1 152.979 187.607 154.024 187.175C155.107 186.739 156.103 186.391 157.011 186.132C157.915 185.833 158.618 185.656 159.119 185.598C160.547 185.436 161.346 186.107 161.518 187.611L161.603 188.364C161.145 190.174 160.532 191.826 159.765 193.321C158.993 194.776 158.232 196.328 157.482 197.977L158.061 197.911C158.601 197.849 159.078 197.756 159.494 197.63C159.948 197.5 160.445 197.405 160.985 197.343C162.528 197.168 163.801 197.531 164.802 198.433C165.799 199.296 166.572 200.419 167.12 201.803C167.142 201.996 167.188 202.401 167.259 203.018C167.363 203.592 167.424 203.956 167.442 204.111C167.736 206.695 167.449 208.975 166.58 210.949C165.706 212.885 164.292 214.707 162.338 216.415C161.354 217.386 160.226 217.944 158.953 218.089C158.336 218.16 157.752 218.011 157.202 217.644C156.687 217.234 156.396 216.739 156.33 216.161ZM169.434 206.404C169.17 204.09 169.041 201.76 169.047 199.415C169.049 197.031 169.058 194.705 169.073 192.437C169.038 192.128 169.089 191.888 169.225 191.716C169.362 191.544 169.497 191.353 169.629 191.142C169.624 191.104 169.654 191.022 169.718 190.898C169.782 190.773 169.812 190.692 169.808 190.653C170.228 189.199 171.041 187.934 172.247 186.859C173.449 185.745 174.802 185.102 176.306 184.931C177.155 184.834 177.882 184.869 178.487 185.034C179.088 185.161 179.624 185.413 180.097 185.789C180.565 186.126 181.006 186.565 181.419 187.104C181.828 187.604 182.284 188.178 182.787 188.824C183.175 189.483 183.516 190.245 183.81 191.11C184.104 191.976 184.342 192.867 184.525 193.784C184.746 194.696 184.929 195.614 185.073 196.535C185.212 197.418 185.326 198.245 185.414 199.016C185.482 200.298 185.481 201.666 185.413 203.12C185.378 204.53 185.206 205.937 184.897 207.34C184.584 208.704 184.086 209.992 183.403 211.203C182.759 212.409 181.861 213.449 180.711 214.323C180.244 214.688 179.718 215.041 179.131 215.382C178.584 215.718 178.02 215.918 177.442 215.984C176.091 216.138 174.935 215.938 173.973 215.383C173.046 214.785 172.252 213.996 171.594 213.016C170.974 212.032 170.48 210.955 170.112 209.785C169.778 208.573 169.552 207.446 169.434 206.404ZM174.037 208.225C174.106 208.49 174.204 208.831 174.329 209.246C174.493 209.658 174.677 210.067 174.879 210.473C175.121 210.876 175.394 211.216 175.699 211.494C176.004 211.771 176.369 211.886 176.793 211.838C177.102 211.803 177.382 211.693 177.635 211.508C177.926 211.318 178.159 211.135 178.334 210.959C179.249 210.073 179.935 209.058 180.39 207.912C180.884 206.761 181.218 205.571 181.39 204.34C181.558 203.07 181.61 201.814 181.547 200.57C181.479 199.289 181.379 198.069 181.247 196.912C181.23 196.758 181.201 196.507 181.161 196.16C181.122 195.812 181.063 195.468 180.985 195.125C180.941 194.739 180.899 194.373 180.86 194.025C180.82 193.678 180.794 193.447 180.78 193.331C180.694 192.911 180.533 192.363 180.3 191.686C180.062 190.971 179.771 190.3 179.426 189.675C179.077 189.012 178.642 188.455 178.122 188.007C177.641 187.554 177.091 187.362 176.474 187.432C176.127 187.472 175.735 187.634 175.299 187.918C174.858 188.163 174.443 188.465 174.054 188.822C173.703 189.174 173.398 189.58 173.137 190.04C172.911 190.456 172.82 190.857 172.864 191.243C172.899 191.552 173.005 191.794 173.181 191.969C173.396 192.14 173.526 192.418 173.569 192.804L173.642 193.44C173.617 193.56 173.579 193.916 173.529 194.508C173.514 195.057 173.483 195.647 173.438 196.277C173.392 196.907 173.345 197.519 173.295 198.11C173.279 198.659 173.259 198.994 173.233 199.114C173.189 200.096 173.205 201.09 173.28 202.098C173.395 203.101 173.504 204.065 173.61 204.991C173.623 205.107 173.647 205.319 173.682 205.627C173.718 205.936 173.755 206.264 173.795 206.611C173.873 206.954 173.929 207.28 173.965 207.588C174 207.897 174.024 208.109 174.037 208.225ZM187.407 199.086C187.249 198.265 187.075 197.447 186.886 196.63C186.724 195.778 186.517 194.948 186.263 194.138C186.183 193.438 186.355 192.967 186.779 192.726C187.235 192.48 187.733 192.327 188.274 192.265L189.229 192.157C189.732 192.325 190.097 192.557 190.324 192.854C190.551 193.15 190.718 193.486 190.825 193.861C190.933 194.235 190.994 194.631 191.009 195.049C191.056 195.462 191.118 195.858 191.193 196.237C191.243 196.392 191.29 196.661 191.333 197.043C191.377 197.425 191.422 197.822 191.469 198.236C191.548 198.646 191.623 199.025 191.695 199.371C191.799 199.714 191.904 199.928 192.01 200.012L195.313 191.657C195.464 191.285 195.702 190.968 196.027 190.706C196.38 190.407 196.783 190.265 197.236 190.278C197.943 190.262 198.484 190.345 198.86 190.528C199.232 190.679 199.501 190.923 199.668 191.258C199.864 191.558 199.989 191.947 200.043 192.424C200.129 192.898 200.221 193.42 200.318 193.989C200.34 194.18 200.397 194.544 200.491 195.081C200.581 195.587 200.674 196.124 200.771 196.694C200.9 197.259 201.01 197.795 201.099 198.3C201.221 198.802 201.309 199.147 201.362 199.334L201.553 199.312C201.591 199.082 201.654 198.64 201.741 197.985C201.859 197.327 201.99 196.635 202.133 195.91C202.276 195.184 202.406 194.492 202.525 193.834C202.643 193.176 202.736 192.714 202.802 192.449C202.827 192.381 202.876 192.247 202.95 192.045C203.02 191.811 203.09 191.578 203.16 191.344C203.226 191.079 203.296 190.845 203.37 190.643C203.44 190.41 203.486 190.243 203.507 190.144C203.69 189.769 203.892 189.568 204.115 189.543C204.366 189.482 204.635 189.435 204.921 189.403C205.717 189.312 206.345 189.45 206.806 189.817C207.295 190.148 207.67 190.605 207.929 191.188C208.221 191.767 208.456 192.417 208.635 193.139C208.81 193.828 208.996 194.468 209.192 195.058C209.224 195.054 209.244 195.084 209.251 195.148C209.255 195.18 209.242 195.213 209.214 195.249L213.423 208.841C213.564 208.954 213.641 209.058 213.652 209.154C213.694 209.245 213.725 209.371 213.743 209.53C213.783 209.88 213.648 210.25 213.337 210.64C213.055 210.995 212.739 211.192 212.389 211.232C211.912 211.286 211.335 211.174 210.659 210.897C210.014 210.615 209.613 210.21 209.456 209.68L205.971 198.616L205.689 198.261C205.643 198.428 205.553 198.905 205.417 199.695C205.309 200.448 205.178 201.414 205.022 202.593C204.862 203.739 204.671 205.034 204.449 206.478C204.259 207.918 204.056 209.392 203.841 210.899C203.81 211.193 203.644 211.437 203.344 211.633C203.072 211.793 202.825 211.885 202.602 211.911C201.934 211.987 201.383 211.969 200.952 211.857C200.52 211.745 200.174 211.542 199.915 211.25C199.656 210.957 199.454 210.593 199.307 210.158C199.161 209.723 199.024 209.223 198.895 208.658C198.88 208.53 198.797 208.089 198.647 207.332C198.493 206.544 198.311 205.662 198.104 204.686C197.924 203.675 197.728 202.665 197.517 201.658C197.305 200.65 197.149 199.846 197.048 199.245C197.034 199.118 197.023 199.022 197.016 198.959C197.008 198.895 197.003 198.847 196.999 198.815C196.992 198.752 196.969 198.69 196.93 198.63C196.887 198.538 196.807 198.402 196.69 198.222L195.681 201.673L194.404 209.991L194.264 213.005C194.254 213.2 194.179 213.386 194.038 213.563C193.925 213.705 193.778 213.834 193.598 213.951C193.415 214.037 193.229 214.106 193.042 214.16C192.854 214.213 192.697 214.247 192.57 214.262C191.87 214.342 191.236 214.156 190.669 213.705C190.133 213.25 189.815 212.722 189.715 212.121C189.657 211.902 189.577 211.476 189.472 210.843C189.364 210.178 189.228 209.404 189.062 208.52C188.897 207.636 188.727 206.705 188.551 205.725C188.406 204.742 188.252 203.809 188.086 202.925C187.921 202.041 187.769 201.269 187.629 200.608C187.521 199.943 187.454 199.499 187.429 199.276L187.407 199.086ZM217.259 209.613C216.578 206.467 215.998 203.777 215.517 201.543C215.037 199.308 214.631 197.437 214.297 195.927C213.964 194.418 213.683 193.225 213.454 192.348C213.254 191.436 213.096 190.761 212.982 190.323C212.864 189.852 212.78 189.54 212.73 189.384C212.68 189.229 212.653 189.135 212.649 189.103L212.628 188.912C212.588 188.562 212.698 188.259 212.959 188.004C213.249 187.713 213.552 187.55 213.871 187.513C214.348 187.459 214.866 187.481 215.425 187.578C216.016 187.672 216.436 187.963 216.685 188.45C217.149 189.977 217.52 191.531 217.797 193.111C218.105 194.688 218.382 196.268 218.627 197.852C218.9 199.401 219.191 200.963 219.5 202.54C219.84 204.113 220.29 205.658 220.85 207.173C220.857 207.237 220.887 207.363 220.941 207.55C221.026 207.734 221.098 207.935 221.155 208.154C221.244 208.37 221.315 208.571 221.369 208.759C221.422 208.946 221.453 209.071 221.46 209.135L221.471 209.23C221.475 209.262 221.494 209.292 221.53 209.32C221.573 209.702 221.442 210.104 221.135 210.526C220.828 210.948 220.481 211.149 220.091 211.128C219.992 211.107 219.748 211.087 219.359 211.067C218.998 211.011 218.75 210.959 218.616 210.91C218.517 210.889 218.382 210.839 218.212 210.762C218.038 210.653 217.865 210.544 217.691 210.434C217.549 210.322 217.422 210.191 217.308 210.043C217.194 209.895 217.178 209.751 217.259 209.613ZM210.621 175.117C210.595 174.895 210.748 174.684 211.08 174.485C211.441 174.25 211.716 174.122 211.907 174.1C212.384 174.046 212.926 174.13 213.531 174.351C214.165 174.536 214.513 174.9 214.574 175.441C214.636 175.982 214.598 176.357 214.461 176.566C214.355 176.771 214.032 176.905 213.491 176.967C212.918 177.032 212.308 176.908 211.659 176.595C211.043 176.278 210.697 175.786 210.621 175.117ZM235.923 207.682C235.405 207.096 234.924 206.264 234.478 205.187C234.061 204.073 233.639 202.913 233.211 201.704C232.812 200.46 232.433 199.262 232.076 198.11C231.716 196.926 231.368 195.998 231.034 195.327C230.728 194.621 230.426 194.236 230.129 194.173C229.831 194.11 229.546 194.578 229.273 195.576L226.578 208.842C226.469 209.306 226.315 209.646 226.114 209.862C225.909 210.047 225.552 210.168 225.043 210.226C224.788 210.255 224.514 210.254 224.22 210.223C223.923 210.16 223.638 210.064 223.365 209.934C223.093 209.803 222.848 209.638 222.632 209.437C222.447 209.232 222.323 208.988 222.258 208.706C222.31 208.313 222.31 207.604 222.258 206.578C222.237 205.549 222.167 204.364 222.046 203.024C221.926 201.683 221.782 200.281 221.615 198.817C221.477 197.318 221.319 195.934 221.142 194.664C220.993 193.359 220.85 192.247 220.713 191.328C220.573 190.377 220.47 189.76 220.406 189.477C220.37 189.159 220.333 188.841 220.297 188.523C220.289 188.169 220.3 187.845 220.331 187.551C220.394 187.254 220.512 187.015 220.685 186.834C220.886 186.618 221.209 186.484 221.655 186.434C222.26 186.365 222.845 186.556 223.413 187.007C224.012 187.455 224.344 187.965 224.409 188.538C224.503 189.365 224.55 190.198 224.549 191.037C224.576 191.839 224.636 192.655 224.731 193.482C224.789 193.991 224.838 194.421 224.878 194.771C224.917 195.121 225.03 195.543 225.215 196.038C225.282 195.773 225.39 195.309 225.54 194.647C225.691 193.985 225.853 193.29 226.028 192.561C226.235 191.828 226.415 191.146 226.569 190.516C226.719 189.855 226.827 189.391 226.894 189.125C227.044 188.464 227.309 187.821 227.69 187.197C228.066 186.542 228.617 186.141 229.342 185.994C229.816 185.907 230.26 185.986 230.674 186.229C231.121 186.468 231.514 186.81 231.855 187.255C232.192 187.668 232.485 188.118 232.734 188.606C232.98 189.061 233.17 189.459 233.305 189.798L237.237 201.391L239.863 206.604C239.898 206.633 239.925 206.726 239.943 206.885C239.957 207.013 239.968 207.108 239.976 207.172C240.019 207.554 239.967 207.947 239.82 208.35C239.7 208.718 239.418 208.928 238.973 208.979C238.431 209.04 237.858 208.96 237.253 208.739C236.644 208.486 236.2 208.134 235.923 207.682Z" fill="#817E7F"/>
</g>
<defs>
<clipPath id="clip0_63_419">
<rect width="1031" height="901" fill="white"/>
</clipPath>
</defs>
</svg>
