<svg width="545" height="901" viewBox="0 0 545 901" fill="none" xmlns="http://www.w3.org/2000/svg">
<g clip-path="url(#clip0_59_122)">
<path d="M82.257 0.123959C83.9647 0.122089 85.6723 0.119787 87.38 0.117093C92.0543 0.110995 96.7285 0.111105 101.403 0.112287C106.451 0.112491 111.499 0.106967 116.548 0.102228C126.431 0.0939316 136.314 0.0911725 146.198 0.0906144C154.233 0.0901387 162.268 0.0880813 170.303 0.0849131C193.096 0.0761089 215.889 0.0714917 238.682 0.0722421C239.91 0.072282 241.138 0.072322 242.403 0.0723632C243.633 0.0724041 244.862 0.072445 246.129 0.0724871C266.057 0.0728936 285.984 0.0633213 305.912 0.0492221C326.386 0.0348514 346.859 0.0279498 367.333 0.0288136C378.822 0.0291454 390.312 0.0264071 401.801 0.015634C411.583 0.00652097 421.364 0.00435825 431.146 0.0111429C436.134 0.0144048 441.121 0.0144785 446.109 0.00578905C450.681 -0.00209391 455.253 -0.000627881 459.825 0.00807344C461.472 0.00960484 463.12 0.00780659 464.768 0.00221269C477.041 -0.0366653 489.208 0.391467 500.765 4.94573C501.773 5.33442 501.773 5.33442 502.802 5.73097C508.688 8.10468 513.659 11.2527 518.584 15.2594C519.204 15.73 519.824 16.2005 520.463 16.6854C534.835 28.096 542.209 45.4676 544.593 63.2649C544.86 67.7698 544.864 72.2607 544.848 76.7725C544.85 78.1126 544.854 79.4526 544.858 80.7927C544.866 84.4623 544.862 88.1318 544.857 91.8014C544.852 95.7987 544.86 99.7959 544.866 103.793C544.874 110.795 544.876 117.796 544.872 124.798C544.867 135.21 544.873 145.622 544.881 156.034C544.896 175.713 544.898 195.392 544.896 215.071C544.894 230.268 544.896 245.465 544.9 260.662C544.901 262.846 544.901 265.029 544.902 267.213C544.903 270.503 544.904 273.794 544.904 277.084C544.913 307.677 544.917 338.271 544.913 368.864C544.913 370.017 544.913 371.17 544.913 372.359C544.912 378.204 544.911 384.05 544.91 389.895C544.91 391.056 544.91 392.217 544.91 393.413C544.909 395.761 544.909 398.108 544.909 400.456C544.903 436.982 544.911 473.508 544.93 510.034C544.95 551.075 544.961 592.117 544.957 633.158C544.957 637.535 544.956 641.911 544.956 646.288C544.956 647.366 544.956 648.444 544.956 649.554C544.954 665.817 544.961 682.081 544.972 698.345C544.984 716.844 544.985 735.343 544.973 753.842C544.966 764.191 544.968 774.54 544.982 784.889C544.99 791.808 544.987 798.726 544.976 805.645C544.969 809.583 544.968 813.521 544.979 817.459C545.11 864.511 545.11 864.511 529.006 881.203C516.511 892.342 501.925 900.718 484.757 900.621C484.009 900.625 483.262 900.629 482.491 900.633C479.995 900.643 477.499 900.639 475.003 900.635C473.191 900.64 471.379 900.645 469.567 900.651C464.596 900.665 459.624 900.667 454.653 900.667C449.288 900.668 443.923 900.681 438.559 900.693C426.831 900.716 415.103 900.724 403.376 900.729C396.05 900.732 388.725 900.739 381.399 900.746C361.108 900.765 340.816 900.782 320.525 900.785C319.227 900.785 317.929 900.785 316.591 900.785C313.96 900.786 311.328 900.786 308.697 900.786C307.39 900.786 306.084 900.787 304.738 900.787C303.43 900.787 302.122 900.787 300.775 900.787C279.587 900.791 258.399 900.818 237.211 900.855C215.447 900.893 193.682 900.913 171.918 900.913C159.703 900.914 147.487 900.922 135.272 900.951C124.869 900.976 114.467 900.983 104.065 900.968C98.7605 900.961 93.4567 900.961 88.1526 900.984C83.2892 901.005 78.4262 901.002 73.5628 900.981C71.8111 900.978 70.0594 900.983 68.3078 900.997C49.4187 901.142 32.8033 896.034 18.6859 882.871C6.58728 870.923 0.461077 854.338 0.267401 837.501C0.261039 835.118 0.260183 832.735 0.263615 830.352C0.261964 829.018 0.259878 827.684 0.257395 826.35C0.251835 822.679 0.2525 819.007 0.254174 815.336C0.254906 811.344 0.249879 807.352 0.245596 803.359C0.238015 795.439 0.235818 787.518 0.235262 779.597C0.234348 770.111 0.227681 760.624 0.220913 751.138C0.204847 728.209 0.198942 705.281 0.194155 682.352C0.191818 671.505 0.188213 660.658 0.184454 649.812C0.171614 612.682 0.160886 575.553 0.157436 538.424C0.157215 536.093 0.156995 533.762 0.156772 531.431C0.156552 529.095 0.156337 526.759 0.156116 524.422C0.155673 519.735 0.155223 515.048 0.154773 510.36C0.154663 509.198 0.154557 508.036 0.154445 506.839C0.150813 469.154 0.134883 431.47 0.111567 393.786C0.0869612 353.945 0.0732357 314.103 0.0720401 274.262C0.0718686 269.888 0.0716543 265.514 0.0714066 261.14C0.0713229 259.525 0.0713241 259.525 0.0712387 257.877C0.0700877 240.547 0.0590612 223.217 0.0445108 205.887C0.0301381 188.468 0.0269043 171.048 0.0349477 153.629C0.0394044 143.282 0.0355437 132.935 0.0196986 122.587C0.00993799 115.671 0.0111365 108.755 0.0211411 101.839C0.0265298 97.9016 0.0272635 93.964 0.0146309 90.0263C0.00320853 86.4357 0.00589344 82.8455 0.0192941 79.2549C0.0228354 77.3724 0.0118198 75.4898 0 73.6072C0.070096 62.0914 1.72168 50.4045 6.64737 39.8872C6.95267 39.2185 7.25796 38.5498 7.57251 37.8609C10.1766 32.3563 13.2511 27.7362 17.4013 23.2603C18.1802 22.3682 18.959 21.4761 19.7615 20.5569C36.8386 2.06979 58.325 0.0990458 82.257 0.123959Z" fill="#FDFDFD"/>
<path d="M82.257 0.123959C83.9647 0.122089 85.6723 0.119787 87.38 0.117093C92.0542 0.110995 96.7285 0.111105 101.403 0.112287C106.451 0.112491 111.499 0.106967 116.548 0.102228C126.431 0.0939315 136.314 0.0911724 146.198 0.0906143C154.233 0.0901387 162.268 0.0880813 170.303 0.084913C193.096 0.0761089 215.889 0.0714917 238.682 0.0722421C239.91 0.072282 241.138 0.072322 242.403 0.0723632C243.633 0.072404 244.862 0.0724449 246.129 0.0724871C266.057 0.0728936 285.984 0.0633213 305.912 0.0492221C326.386 0.0348514 346.859 0.0279498 367.333 0.0288136C378.822 0.0291454 390.312 0.0264071 401.801 0.015634C411.583 0.00652097 421.364 0.00435825 431.146 0.0111429C436.134 0.0144048 441.121 0.0144785 446.109 0.00578904C450.681 -0.00209391 455.253 -0.00062788 459.824 0.00807344C461.472 0.00960483 463.12 0.00780659 464.768 0.00221269C477.041 -0.0366653 489.208 0.391467 500.765 4.94573C501.773 5.33442 501.773 5.33442 502.802 5.73097C508.688 8.10468 513.659 11.2527 518.584 15.2594C519.204 15.73 519.824 16.2005 520.463 16.6854C534.835 28.096 542.209 45.4675 544.593 63.2649C544.86 67.7697 544.864 72.2607 544.848 76.7725C544.85 78.1126 544.853 79.4526 544.858 80.7927C544.866 84.4623 544.862 88.1318 544.856 91.8014C544.852 95.7987 544.86 99.7959 544.866 103.793C544.874 110.795 544.876 117.796 544.872 124.798C544.867 135.21 544.873 145.622 544.881 156.034C544.896 175.713 544.898 195.392 544.896 215.071C544.894 230.268 544.896 245.465 544.9 260.662C544.901 262.846 544.901 265.029 544.902 267.213C544.903 270.503 544.904 273.794 544.904 277.084C544.913 307.677 544.917 338.271 544.913 368.864C544.913 370.017 544.913 371.17 544.913 372.359C544.912 378.204 544.911 384.049 544.91 389.895C544.91 391.056 544.91 392.217 544.91 393.413C544.909 395.761 544.909 398.108 544.908 400.456C544.903 436.982 544.911 473.508 544.93 510.034C544.95 551.075 544.961 592.117 544.957 633.158C544.957 637.534 544.956 641.911 544.956 646.288C544.956 647.366 544.956 648.443 544.956 649.554C544.954 665.817 544.961 682.081 544.972 698.344C544.984 716.844 544.985 735.342 544.973 753.842C544.966 764.191 544.968 774.54 544.981 784.889C544.99 791.808 544.987 798.726 544.975 805.645C544.969 809.583 544.968 813.521 544.979 817.459C545.11 864.511 545.11 864.511 529.006 881.203C516.511 892.342 501.925 900.718 484.757 900.621C484.009 900.625 483.262 900.629 482.491 900.633C479.995 900.643 477.499 900.639 475.003 900.635C473.191 900.64 471.379 900.645 469.567 900.651C464.596 900.665 459.624 900.667 454.653 900.667C449.288 900.668 443.923 900.681 438.559 900.693C426.831 900.716 415.103 900.724 403.376 900.729C396.05 900.732 388.724 900.738 381.399 900.746C361.108 900.765 340.816 900.782 320.525 900.784C319.227 900.785 317.929 900.785 316.591 900.785C313.96 900.785 311.328 900.786 308.697 900.786C307.39 900.786 306.084 900.787 304.738 900.787C303.43 900.787 302.122 900.787 300.775 900.787C279.587 900.791 258.399 900.818 237.211 900.855C215.447 900.893 193.682 900.913 171.918 900.913C159.703 900.914 147.487 900.922 135.272 900.951C124.869 900.976 114.467 900.983 104.065 900.968C98.7605 900.961 93.4567 900.961 88.1526 900.984C83.2891 901.005 78.4262 901.002 73.5627 900.981C71.8111 900.978 70.0594 900.983 68.3078 900.997C49.4187 901.142 32.8033 896.034 18.6859 882.871C6.58728 870.923 0.461077 854.337 0.267401 837.5C0.261039 835.118 0.260183 832.735 0.263615 830.352C0.261964 829.018 0.259878 827.684 0.257395 826.35C0.251835 822.679 0.2525 819.007 0.254174 815.336C0.254906 811.344 0.249879 807.351 0.245596 803.359C0.238015 795.439 0.235818 787.518 0.235262 779.597C0.234348 770.111 0.227681 760.624 0.220913 751.138C0.204847 728.209 0.198942 705.28 0.194155 682.352C0.191818 671.505 0.188213 660.658 0.184454 649.811C0.171614 612.682 0.160886 575.553 0.157436 538.424C0.157215 536.093 0.156994 533.762 0.156772 531.431C0.156552 529.095 0.156336 526.758 0.156116 524.422C0.155673 519.735 0.155223 515.047 0.154773 510.36C0.154663 509.198 0.154557 508.036 0.154445 506.839C0.150813 469.154 0.134883 431.47 0.111567 393.786C0.0869612 353.945 0.0732357 314.103 0.0720401 274.261C0.0718686 269.888 0.0716543 265.514 0.0714066 261.14C0.0713229 259.525 0.0713241 259.525 0.0712387 257.877C0.0700877 240.547 0.0590612 223.217 0.0445108 205.887C0.0301381 188.468 0.0269043 171.048 0.0349477 153.629C0.0394044 143.282 0.0355437 132.935 0.0196986 122.587C0.00993799 115.671 0.0111365 108.755 0.0211411 101.839C0.0265298 97.9016 0.0272635 93.964 0.0146309 90.0263C0.00320853 86.4357 0.00589344 82.8455 0.0192941 79.2549C0.0228354 77.3723 0.0118198 75.4898 0 73.6072C0.0700959 62.0914 1.72168 50.4045 6.64737 39.8872C6.95267 39.2185 7.25796 38.5498 7.57251 37.8609C10.1766 32.3563 13.2511 27.7362 17.4013 23.2603C18.1802 22.3682 18.959 21.4761 19.7615 20.5569C36.8386 2.06979 58.325 0.0990458 82.257 0.123959ZM56.7149 10.6143C55.6107 10.7926 55.6107 10.7926 54.4841 10.9746C41.3935 13.3133 30.1405 21 22.153 31.5113C12.7487 45.2818 8.9226 58.2818 9.0263 74.8992C9.02377 76.2409 9.01993 77.5826 9.0149 78.9242C9.00493 82.5935 9.0135 86.2626 9.02524 89.932C9.03469 93.9305 9.02663 97.929 9.02084 101.928C9.01309 108.93 9.01646 115.932 9.02717 122.934C9.04305 133.346 9.04169 143.759 9.03687 154.171C9.02929 171.69 9.03579 189.209 9.05049 206.728C9.06503 224.078 9.07379 241.428 9.07468 258.777C9.07475 259.857 9.0748 260.936 9.07487 262.048C9.0751 266.43 9.07529 270.811 9.07542 275.192C9.07663 315.117 9.09233 355.041 9.11702 394.966C9.14032 432.659 9.1545 470.351 9.15805 508.044C9.15816 509.206 9.15827 510.367 9.15839 511.564C9.15884 516.246 9.15928 520.928 9.15972 525.61C9.15994 527.944 9.16016 530.277 9.16039 532.61C9.16061 534.938 9.16083 537.265 9.16104 539.593C9.16456 576.65 9.17603 613.706 9.18886 650.763C9.19258 661.613 9.19585 672.464 9.19811 683.314C9.20292 706.132 9.21 728.951 9.22627 751.769C9.23292 761.207 9.23807 770.645 9.23874 780.083C9.23929 787.906 9.24313 795.729 9.25151 803.553C9.25564 807.492 9.2582 811.431 9.2564 815.371C9.2548 818.956 9.25781 822.541 9.26446 826.126C9.2668 828.02 9.26427 829.914 9.26154 831.808C9.30657 848.755 12.8358 863.533 24.3609 876.573C39.1156 890.832 57.7725 892.824 77.2163 892.748C78.9796 892.752 80.7429 892.758 82.5062 892.764C87.3159 892.779 92.1254 892.774 96.9351 892.767C102.136 892.762 107.337 892.775 112.538 892.785C122.713 892.802 132.888 892.803 143.063 892.798C151.336 892.794 159.609 892.795 167.882 892.801C169.061 892.801 170.241 892.802 171.456 892.803C173.852 892.804 176.248 892.806 178.644 892.808C201.091 892.821 223.538 892.816 245.985 892.804C266.503 892.794 287.02 892.807 307.538 892.831C328.629 892.856 349.72 892.865 370.811 892.859C382.643 892.855 394.474 892.857 406.306 892.875C416.377 892.89 426.448 892.89 436.519 892.873C441.653 892.864 446.787 892.862 451.921 892.877C456.628 892.891 461.336 892.887 466.043 892.867C467.738 892.863 469.433 892.866 471.128 892.877C490.023 892.985 507.324 888.976 521.488 875.673C533.146 864.121 535.537 850.832 535.718 835.029C535.724 832.66 535.725 830.291 535.721 827.922C535.723 826.604 535.726 825.285 535.728 823.927C535.733 820.28 535.733 816.633 535.731 812.986C535.73 809.014 535.735 805.041 535.739 801.069C535.747 793.196 535.749 785.323 535.75 777.45C535.751 768.018 535.757 758.585 535.764 749.153C535.78 726.36 535.786 703.567 535.791 680.775C535.793 669.991 535.797 659.207 535.801 648.423C535.813 611.502 535.824 574.581 535.828 537.66C535.828 535.343 535.828 533.026 535.828 530.71C535.828 528.388 535.829 526.065 535.829 523.743C535.829 519.085 535.83 514.426 535.83 509.767C535.83 508.612 535.83 507.457 535.831 506.267C535.834 468.804 535.85 431.341 535.873 393.877C535.898 354.259 535.912 314.641 535.913 275.023C535.913 270.674 535.913 266.325 535.914 261.976C535.914 260.37 535.914 260.37 535.914 258.731C535.915 241.502 535.926 224.273 535.941 207.043C535.955 189.727 535.958 172.412 535.95 155.096C535.946 144.811 535.949 134.526 535.965 124.241C535.975 117.366 535.974 110.492 535.964 103.618C535.959 99.7036 535.958 95.7898 535.97 91.8759C535.982 88.3071 535.979 84.7385 535.966 81.1696C535.962 79.2986 535.973 77.4276 535.985 75.5567C535.915 64.1413 534.483 52.2113 529.025 42.0125C528.681 41.3518 528.337 40.6912 527.983 40.0105C520.278 25.8732 507.815 16.1904 492.574 11.259C482.229 9.09487 471.871 8.97117 461.359 8.998C459.66 8.99497 457.961 8.99108 456.261 8.9864C451.629 8.97618 446.996 8.97829 442.363 8.98258C437.352 8.98506 432.342 8.97602 427.331 8.96854C417.528 8.95582 407.725 8.954 397.922 8.95634C389.95 8.95813 381.977 8.95637 374.005 8.95212C372.3 8.95122 372.3 8.95122 370.56 8.95031C368.25 8.9491 365.941 8.94789 363.631 8.94667C341.992 8.9358 320.354 8.93795 298.715 8.94405C278.947 8.94922 259.178 8.93797 239.409 8.91895C219.081 8.89955 198.754 8.89132 178.426 8.89507C167.025 8.89698 155.624 8.89453 144.223 8.88036C134.517 8.86841 124.811 8.86707 115.105 8.87915C110.159 8.88502 105.213 8.88619 100.267 8.87414C95.7281 8.86321 91.1889 8.86647 86.6496 8.88041C85.0192 8.88304 83.3888 8.88075 81.7585 8.87267C73.2843 8.83364 65.0903 9.25328 56.7149 10.6143Z" fill="#F4E5E5"/>
<path d="M148.386 112.958C149.489 112.942 150.592 112.926 151.729 112.909C159.105 112.905 165.468 113.938 172.457 116.271C174.206 116.853 174.206 116.853 175.99 117.447C197.143 125.544 213.401 138.31 224.476 158.276C225.202 159.525 225.202 159.525 225.942 160.8C236.468 180.056 236.735 203.717 230.86 224.468C228.017 233.502 224.097 241.632 218.474 249.286C217.507 250.638 217.507 250.638 216.52 252.017C203.469 268.288 184.434 280.673 163.958 283.829C147.879 285.732 131.411 285.872 116.437 279.29C114.831 278.603 114.831 278.603 113.194 277.903C105.968 274.548 99.6896 270.18 93.4285 265.288C92.5097 264.619 92.5097 264.619 91.5724 263.936C75.4918 251.488 65.4029 229.965 62.4172 210.282C60.3185 187.819 64.4203 165.688 78.7059 147.655C81.7631 144.001 85.0366 140.619 88.4267 137.273C89.1682 136.533 89.9097 135.793 90.6736 135.031C106.677 119.942 126.663 112.895 148.386 112.958Z" fill="#FBCBCF"/>
<path d="M418.547 141.274C421.471 143.041 424.012 144.991 426.55 147.275C427.154 147.799 427.759 148.324 428.382 148.865C439.533 159.186 444.124 173.388 444.714 188.258C444.735 189.639 444.753 191.02 444.767 192.401C444.795 193.929 444.824 195.457 444.853 196.985C444.894 199.353 444.931 201.72 444.958 204.088C445.021 219.075 445.021 219.075 451.559 232.284C450.558 235.285 450.558 235.285 448.257 236.75C441.172 240.213 434.101 243.01 426.55 245.286C429.619 246.954 432.8 248.125 436.088 249.292C443.438 251.91 450.065 254.885 456.561 259.287C453.104 268.187 440.139 273.938 432.095 277.786C426.701 280.075 421.205 281.791 415.546 283.29C414.946 283.467 414.345 283.643 413.727 283.825C408.938 284.846 403.915 284.475 399.04 284.478C397.918 284.49 396.796 284.502 395.64 284.515C384.937 284.533 374.91 283.427 365.027 279.165C363.95 278.711 363.95 278.711 362.851 278.247C353.834 274.302 345.869 268.821 338.518 262.288C338.871 259.673 339.216 258.549 341.241 256.795C347.981 252.813 354.928 250.089 362.28 247.485C365.341 246.612 365.341 246.612 366.528 245.286C365.561 244.994 364.593 244.703 363.597 244.403C355.565 241.903 348.522 239.079 341.519 234.285C342.386 230.377 343.907 226.875 345.485 223.209C348.121 215.762 348.819 208.574 349.021 200.718C349.743 181.336 351.445 163.175 365.027 148.087C379.097 135.178 401.375 132.124 418.547 141.274Z" fill="#C14B63"/>
<path d="M453.343 133.805C469.959 148.649 481.13 168.306 482.755 190.839C483.943 214.687 477.906 237.896 461.626 256.037C460.281 257.464 458.931 258.885 457.562 260.288C456.604 259.78 455.645 259.272 454.658 258.748C444.878 253.661 435.024 249.707 424.55 246.286C427.303 243.534 430.582 242.686 434.178 241.41C439.845 239.35 445.247 237.162 450.559 234.285C449.56 231.594 448.521 229.224 446.995 226.784C444.247 222.005 444.391 216.953 444.311 211.559C444.278 210.035 444.245 208.511 444.211 206.987C444.164 204.613 444.12 202.239 444.08 199.865C443.73 179.861 441.266 163.743 427.238 148.462C416.76 138.481 403.042 137.468 389.314 137.766C379.831 138.318 372.564 142.22 365.528 148.587C353.142 162.592 350.788 179.515 350.237 197.492C349.821 210.762 348.23 222.544 341.519 234.285C342.251 234.566 342.982 234.847 343.735 235.136C346.283 236.187 348.654 237.369 351.085 238.66C356.7 241.513 362.521 243.438 368.529 245.286C365.964 246.996 363.911 248.007 361.069 249.091C360.204 249.427 359.338 249.764 358.445 250.111C356.636 250.806 354.825 251.499 353.014 252.189C347.126 254.484 343.546 258.261 339.018 262.788C324.4 249.372 311.668 226.803 310.567 206.676C310.547 205.886 310.528 205.095 310.508 204.281C310.458 203.398 310.408 202.515 310.356 201.605C309.593 179.056 317.95 158.532 332.391 141.461C364.509 107.329 417.349 102.885 453.343 133.805Z" fill="#FBCBCF"/>
<path d="M384.535 165.277C385.051 165.957 385.567 166.638 386.098 167.339C396.909 180.365 412.097 189.604 429.145 191.58C430.654 191.705 432.165 191.807 433.678 191.873C436.153 192.41 437.048 193.267 438.555 195.28C439.108 200.101 439.015 202.344 436.866 206.719C434.354 209.502 433.23 210.077 429.551 210.282C429.404 210.827 429.257 211.372 429.106 211.934C427.183 218.398 424.281 225.185 418.963 229.6C417.038 231.89 417.254 233.224 417.395 236.179C417.422 237.135 417.45 238.091 417.479 239.076C417.565 241.079 417.656 243.082 417.752 245.085C417.922 251.238 417.663 254.602 413.545 259.287C407.421 265.088 400.893 265.801 392.737 265.671C386.645 264.942 383.115 262.03 379.095 257.6C376.736 254.108 376.446 252.481 376.645 248.306C376.676 247.306 376.501 246.316 376.532 245.286C376.603 243.186 376.899 241.077 377.011 238.978C377.174 232.115 377.174 232.115 373.703 226.436C373.156 225.902 372.61 225.369 372.047 224.819C369.086 221.822 367.785 217.761 366.118 213.954C364.285 210.874 362.611 209.992 359.526 208.282C357.128 203.901 355.843 200.279 356.525 195.28C358.131 192.782 359.365 192.328 362.214 191.467C371.719 188.061 377.449 180.436 381.858 171.633C382.802 169.53 383.699 167.424 384.535 165.277Z" fill="#FBDCDB"/>
<path d="M173.458 167.277C179.817 173.978 179.751 184.511 180.46 193.28C181.121 193.28 181.781 193.28 182.461 193.28C182.956 191.795 182.956 191.795 183.462 190.28C185.837 189.654 185.837 189.654 188.463 189.279C190.814 191.63 190.783 192.199 190.839 195.405C190.726 200.411 189.297 204.176 186.463 208.282C183.274 211.282 183.274 211.282 180.46 211.282C180.275 212.231 180.089 213.18 179.898 214.157C177.172 223.57 169.536 231.818 161.145 236.601C154.173 239.802 146.685 240.758 139.223 238.66C129.737 234.437 122.891 226.462 118.438 217.283C118.087 216.128 117.736 214.972 117.375 213.782C117.066 212.957 116.756 212.132 116.437 211.282C115.653 210.993 114.869 210.704 114.061 210.407C110.001 208.667 109.03 205.23 107.434 201.281C106.23 197.671 106.028 195.066 106.434 191.28C108.934 189.342 108.934 189.342 111.435 188.279C112.936 189.654 112.936 189.654 114.436 191.28C114.436 191.94 114.436 192.6 114.436 193.28C115.097 193.28 115.757 193.28 116.437 193.28C116.463 192.362 116.489 191.444 116.515 190.498C116.859 183.075 117.336 177.55 121.439 171.277C124.563 169.195 125.269 169.023 128.817 169.09C129.567 169.096 130.318 169.102 131.091 169.109C133.443 169.277 133.443 169.277 135.655 169.769C145.105 171.489 156.157 171.845 164.67 167.125C167.906 165.588 170.19 166.124 173.458 167.277Z" fill="#FCDDDB"/>
<path d="M127.094 244.286C127.182 244.901 127.27 245.516 127.36 246.149C127.503 246.958 127.646 247.766 127.793 248.599C127.923 249.399 128.053 250.2 128.187 251.025C129.499 254.178 131.14 254.794 134.214 256.287C137.055 256.743 137.055 256.743 140.058 256.686C141.161 256.689 142.265 256.693 143.401 256.697C144.544 256.686 145.687 256.674 146.864 256.662C148.572 256.68 148.572 256.68 150.315 256.697C158.508 256.741 158.508 256.741 165.744 253.287C167.09 251.307 167.09 251.307 167.651 249.099C168.217 247.211 168.217 247.211 168.795 245.286C176.49 245.014 182.861 247.132 189.837 250.036C190.645 250.372 191.454 250.707 192.287 251.052C197.652 253.365 204.394 256.787 208.971 260.288C201.343 269.289 185.987 277.38 174.636 281.489C155.857 286.761 132.86 287.059 114.889 279.29C113.256 278.603 113.256 278.603 111.591 277.903C102.364 273.69 95.4297 267.788 87.4268 260.288C97.3715 251.624 113.442 244.286 127.094 244.286Z" fill="#D85C77"/>
<path d="M417.755 245.286C417.415 245.286 418.085 245.286 417.755 245.286C417.755 240.525 417.755 249.906 417.755 245.286C420.066 245.286 422.168 245.286 424.549 245.286C426.714 245.741 426.714 245.741 428.531 246.387C429.215 246.628 429.899 246.868 430.603 247.115C431.661 247.509 431.661 247.509 432.739 247.911C433.478 248.179 434.216 248.447 434.977 248.723C442.524 251.527 451.345 254.811 458.061 259.287C453.059 268.788 440.139 273.938 432.095 277.786C426.701 280.075 421.205 281.791 415.546 283.29C414.946 283.467 414.345 283.643 413.727 283.825C408.938 284.846 403.915 284.475 399.04 284.478C397.918 284.49 396.796 284.502 395.64 284.515C384.937 284.533 374.91 283.427 365.027 279.165C364.309 278.862 363.591 278.559 362.851 278.247C353.834 274.302 345.869 268.821 338.518 262.288C338.875 259.756 339.208 258.566 341.136 256.83C346.903 253.368 352.868 250.829 359.15 248.474C360.349 248.021 360.349 248.021 361.572 247.558C366.59 245.748 371.216 244.754 376.531 244.286C376.557 244.866 376.58 245.389 376.61 246.044C376.892 252.391 378.334 256.31 383.12 260.764C389.067 265.254 395.352 265.237 402.541 264.288C408.324 262.713 412.278 260.459 415.546 255.287C416.799 252.782 417.771 251.086 417.755 248.286C417.752 247.3 417.546 245.286 418.047 245.286C420.047 246.786 417.755 246.16 417.755 246.16C420.256 245.66 417.546 246.387 417.755 245.286Z" fill="#F17B87"/>
<path d="M162.453 138.274C165.016 138.563 167.549 138.707 170.124 138.832C172.96 139.369 174.363 140.31 176.458 142.274C176.953 143.759 176.953 143.759 177.458 145.274C178.201 145.811 178.944 146.347 179.709 146.9C184.121 150.709 186.631 155.783 188.462 161.276C189.101 171.978 189.493 184.415 182.46 193.28C181.8 193.28 181.14 193.28 180.46 193.28C180.168 191.821 179.876 190.363 179.584 188.904C179.4 187.995 179.215 187.087 179.025 186.15C178.659 184.292 178.311 182.43 177.986 180.564C176.931 173.888 176.931 173.888 173.457 168.277C170.229 167.18 167.858 166.615 164.665 168.121C163.694 168.662 163.694 168.662 162.703 169.215C154.454 173.367 142.264 172.275 133.442 170.277C127.391 169.631 127.391 169.631 122.001 171.965C119.043 176.341 118.18 180.229 117.874 185.466C117.535 191.083 117.535 191.083 116.436 193.28C115.776 193.28 115.116 193.28 114.436 193.28C109.786 186.773 109.157 180.118 108.433 172.277C108.325 171.311 108.217 170.344 108.105 169.347C107.548 160.608 110.839 153.558 116.417 146.915C128.903 134.819 146.346 133.271 162.453 138.274Z" fill="#D85C77"/>
<path d="M234.402 28.9863C235.315 28.9811 236.227 28.976 237.168 28.9708C240.19 28.9568 243.212 28.9578 246.234 28.9601C248.331 28.9562 250.428 28.9519 252.525 28.9471C256.921 28.9397 261.318 28.94 265.714 28.9452C271.356 28.951 276.997 28.9341 282.638 28.9109C286.969 28.8962 291.299 28.8953 295.629 28.8984C297.71 28.8979 299.79 28.8926 301.871 28.8826C304.776 28.8703 307.681 28.877 310.586 28.8886C311.45 28.8809 312.313 28.8733 313.203 28.8654C319.076 28.9175 319.076 28.9175 321.236 30.6243C322.512 32.2613 322.512 32.2613 322.825 34.8241C322.512 37.2619 322.512 37.2619 320.511 39.2621C317.478 39.461 314.535 39.5348 311.5 39.5209C310.1 39.5262 310.1 39.5262 308.671 39.5315C305.573 39.5404 302.476 39.5345 299.379 39.5277C297.233 39.5291 295.088 39.531 292.942 39.5335C288.441 39.5365 283.941 39.5322 279.44 39.5229C273.66 39.5115 267.881 39.518 262.101 39.53C257.67 39.5372 253.238 39.5349 248.807 39.5298C246.675 39.5284 244.544 39.5301 242.412 39.5347C239.437 39.5398 236.462 39.5321 233.487 39.5209C232.6 39.525 231.712 39.529 230.798 39.5332C224.705 39.4906 224.705 39.4906 222.476 37.2619C222.163 34.2615 222.163 34.2615 222.476 31.2612C226.425 28.6287 229.818 28.9731 234.402 28.9863Z" fill="#F4E5E5"/>
<path d="M127.44 236.285C130.615 237.837 134.637 239.561 137.663 241.383C143.32 244.248 150.225 244.204 156.22 242.496C160.4 240.893 163.315 239.478 166.455 236.285C167.115 236.285 167.775 236.285 168.455 236.285C168.591 238.683 168.69 241.073 168.768 243.473C168.81 244.147 168.852 244.82 168.895 245.514C168.991 249.46 168.611 251.092 166.122 254.213C160.716 258.415 154.7 257.544 148.135 257.6C147.006 257.629 145.877 257.658 144.714 257.688C138.35 257.736 134.21 257.71 129.441 253.287C126.94 250.286 126.9 247.143 126.94 243.786C126.944 243.079 127.435 242.513 127.44 241.785C127.451 240.04 127.421 238.03 127.44 236.285Z" fill="#FBDBDA"/>
<path d="M377.032 231.284C378.204 231.917 378.204 231.917 379.399 232.562C380.415 233.11 381.431 233.657 382.478 234.222C383.489 234.767 384.5 235.313 385.541 235.875C391.784 239.215 398.39 239.409 405.275 237.461C409.139 235.934 412.833 234.134 416.547 232.284C416.467 235.028 416.118 236.737 414.065 238.66C406.781 243.9 400.207 245.396 391.217 244.286C386.628 242.663 382.522 240.704 379.059 237.285C378.724 239.265 378.39 241.245 378.045 243.286C377.711 243.286 377.377 243.286 377.032 243.286C377.032 239.325 377.032 235.365 377.032 231.284Z" fill="#F5BEC0"/>
<ellipse cx="266.992" cy="790.348" rx="54.5198" ry="54.5063" fill="#EDF5E7"/>
<ellipse cx="266.992" cy="786.848" rx="54.5198" ry="54.5063" fill="#A3CE7E"/>
<path d="M292.168 773.346L257.322 808.184L241.482 792.349" stroke="#FDFDFD" stroke-width="12" stroke-linecap="round" stroke-linejoin="round"/>
<path d="M250.062 187.424C250.062 184.828 250.849 182.292 252.321 180.153C253.792 178.013 255.877 176.37 258.302 175.441C260.726 174.512 263.376 174.34 265.9 174.948C268.425 175.556 270.705 176.916 272.441 178.847C272.563 178.978 272.711 179.082 272.875 179.153C273.039 179.224 273.216 179.261 273.395 179.261C273.574 179.261 273.751 179.224 273.915 179.153C274.079 179.082 274.227 178.978 274.349 178.847C276.079 176.903 278.36 175.532 280.889 174.917C283.417 174.301 286.073 174.47 288.503 175.402C290.933 176.333 293.021 177.982 294.491 180.13C295.96 182.278 296.741 184.822 296.728 187.424C296.728 192.768 293.228 196.758 289.728 200.258L276.914 212.655C276.479 213.154 275.943 213.555 275.341 213.831C274.739 214.108 274.086 214.253 273.424 214.257C272.761 214.261 272.106 214.124 271.501 213.856C270.896 213.587 270.355 213.193 269.914 212.699L257.062 200.258C253.562 196.758 250.062 192.791 250.062 187.424Z" fill="#D85C77" stroke="#D85C77" stroke-width="4.66667" stroke-linecap="round" stroke-linejoin="round"/>
<g filter="url(#filter0_d_59_122)">
<rect x="60.3945" y="343.258" width="427" height="88" rx="44" fill="white"/>
<rect x="61.3945" y="344.258" width="425" height="86" rx="43" stroke="#D3D4D9" stroke-width="2"/>
</g>
<g filter="url(#filter1_d_59_122)">
<rect x="60.3945" y="455.258" width="427" height="88" rx="44" fill="white"/>
<rect x="61.3945" y="456.258" width="425" height="86" rx="43" stroke="#D3D4D9" stroke-width="2"/>
</g>
<path d="M294.228 488.897L275.497 500.83C274.861 501.199 274.139 501.393 273.404 501.393C272.669 501.393 271.947 501.199 271.312 500.83L252.562 488.897" stroke="#A0A2A9" stroke-width="4.16667" stroke-linecap="round" stroke-linejoin="round"/>
<path d="M290.062 482.646H256.728C254.427 482.646 252.562 484.512 252.562 486.814V511.817C252.562 514.118 254.427 515.984 256.728 515.984H290.062C292.363 515.984 294.228 514.118 294.228 511.817V486.814C294.228 484.512 292.363 482.646 290.062 482.646Z" stroke="#A0A2A9" stroke-width="4.16667" stroke-linecap="round" stroke-linejoin="round"/>
<g clip-path="url(#clip1_59_122)">
<path d="M284.018 387.258C284.02 389.993 283.056 392.642 281.297 394.737C279.537 396.831 277.095 398.238 274.4 398.709C271.705 399.18 268.931 398.684 266.565 397.31C264.2 395.936 262.395 393.771 261.47 391.196L254.82 396.516C256.888 400.446 260.213 403.57 264.264 405.389C268.315 407.209 272.859 407.618 277.17 406.552C281.481 405.486 285.311 403.007 288.047 399.509C290.784 396.012 292.27 391.698 292.268 387.258" fill="#00AC47"/>
<path d="M284.018 387.258C284.017 389.107 283.573 390.929 282.725 392.573C281.876 394.216 280.647 395.633 279.141 396.706L285.714 401.964C287.776 400.109 289.424 397.841 290.553 395.307C291.682 392.774 292.266 390.031 292.268 387.258" fill="#4285F4"/>
<path d="M260.77 387.258C260.772 385.914 261.01 384.581 261.471 383.319L254.822 377.999C253.31 380.851 252.52 384.03 252.52 387.258C252.52 390.485 253.31 393.664 254.822 396.516L261.471 391.196C261.01 389.934 260.772 388.601 260.77 387.258Z" fill="#FFBA00"/>
<path d="M272.393 375.633C274.853 375.633 277.248 376.419 279.23 377.876L285.32 372.192C283.059 370.243 280.388 368.83 277.504 368.058C274.621 367.285 271.6 367.174 268.668 367.732C265.736 368.291 262.968 369.504 260.57 371.282C258.172 373.06 256.207 375.356 254.82 377.999L261.47 383.319C262.28 381.071 263.764 379.127 265.718 377.752C267.673 376.377 270.003 375.637 272.393 375.633Z" fill="#EA4435"/>
<path d="M292.27 385.758V387.258L288.895 392.508H273.145V384.258H290.77C291.167 384.258 291.549 384.416 291.83 384.697C292.111 384.978 292.27 385.36 292.27 385.758Z" fill="#4285F4"/>
</g>
<g filter="url(#filter2_d_59_122)">
<rect x="60.3945" y="587.258" width="427" height="88" rx="44" fill="url(#paint0_linear_59_122)"/>
</g>
<path d="M196.291 644.69C193.867 644.69 191.707 644.138 189.811 643.034C187.939 641.906 186.463 640.37 185.383 638.426C184.327 636.458 183.799 634.202 183.799 631.658C183.799 629.114 184.327 626.87 185.383 624.926C186.463 622.958 187.939 621.422 189.811 620.318C191.683 619.19 193.831 618.626 196.255 618.626C197.887 618.626 199.423 618.926 200.863 619.526C202.303 620.102 203.575 620.906 204.679 621.938C205.807 622.97 206.671 624.17 207.271 625.538L203.455 627.086C203.023 626.174 202.435 625.37 201.691 624.674C200.971 623.954 200.143 623.402 199.207 623.018C198.271 622.634 197.287 622.442 196.255 622.442C194.671 622.442 193.255 622.838 192.007 623.63C190.783 624.422 189.811 625.514 189.091 626.906C188.395 628.274 188.047 629.858 188.047 631.658C188.047 633.458 188.395 635.054 189.091 636.446C189.811 637.838 190.795 638.93 192.043 639.722C193.315 640.514 194.755 640.91 196.363 640.91C197.419 640.91 198.403 640.706 199.315 640.298C200.251 639.866 201.079 639.278 201.799 638.534C202.543 637.79 203.131 636.926 203.563 635.942L207.379 637.49C206.779 638.906 205.927 640.166 204.823 641.27C203.719 642.35 202.435 643.19 200.971 643.79C199.507 644.39 197.947 644.69 196.291 644.69ZM209.922 644.258V626.258H213.954V629.534C214.674 628.406 215.61 627.566 216.762 627.014C217.914 626.462 219.102 626.186 220.326 626.186V630.038C219.222 630.038 218.178 630.194 217.194 630.506C216.234 630.794 215.454 631.274 214.854 631.946C214.254 632.618 213.954 633.506 213.954 634.61V644.258H209.922ZM222.532 644.258V626.258H226.528V644.258H222.532ZM224.548 622.838C223.9 622.838 223.336 622.61 222.856 622.154C222.4 621.674 222.172 621.11 222.172 620.462C222.172 619.814 222.4 619.262 222.856 618.806C223.336 618.35 223.9 618.122 224.548 618.122C225.196 618.122 225.748 618.35 226.204 618.806C226.684 619.262 226.924 619.814 226.924 620.462C226.924 621.11 226.684 621.674 226.204 622.154C225.748 622.61 225.196 622.838 224.548 622.838ZM236.356 644.69C234.196 644.69 232.516 644.21 231.316 643.25C230.14 642.29 229.552 640.934 229.552 639.182C229.552 637.31 230.176 635.882 231.424 634.898C232.696 633.914 234.46 633.422 236.716 633.422H241.288C241.144 632.102 240.772 631.094 240.172 630.398C239.572 629.702 238.684 629.354 237.508 629.354C236.644 629.354 235.888 629.534 235.24 629.894C234.592 630.254 234.04 630.818 233.584 631.586L230.056 630.29C230.44 629.498 230.944 628.766 231.568 628.094C232.216 627.398 233.02 626.846 233.98 626.438C234.964 626.03 236.14 625.826 237.508 625.826C239.26 625.826 240.724 626.174 241.9 626.87C243.076 627.542 243.94 628.514 244.492 629.786C245.068 631.058 245.356 632.594 245.356 634.394L245.248 644.258H241.54L241.432 642.062C240.952 642.902 240.28 643.55 239.416 644.006C238.576 644.462 237.556 644.69 236.356 644.69ZM236.86 641.306C237.748 641.306 238.528 641.114 239.2 640.73C239.896 640.322 240.424 639.782 240.784 639.11C241.168 638.438 241.36 637.694 241.36 636.878V636.518H238.012C236.404 636.518 235.276 636.746 234.628 637.202C233.98 637.634 233.656 638.258 233.656 639.074C233.656 639.77 233.932 640.322 234.484 640.73C235.06 641.114 235.852 641.306 236.86 641.306ZM248.719 644.258V626.258H252.751V629.534C253.471 628.406 254.407 627.566 255.559 627.014C256.711 626.462 257.899 626.186 259.123 626.186V630.038C258.019 630.038 256.975 630.194 255.991 630.506C255.031 630.794 254.251 631.274 253.651 631.946C253.051 632.618 252.751 633.506 252.751 634.61V644.258H248.719ZM280.705 644.69C278.281 644.69 276.121 644.138 274.225 643.034C272.353 641.906 270.877 640.37 269.797 638.426C268.741 636.458 268.213 634.202 268.213 631.658C268.213 629.114 268.741 626.87 269.797 624.926C270.877 622.958 272.353 621.422 274.225 620.318C276.097 619.19 278.245 618.626 280.669 618.626C282.301 618.626 283.837 618.926 285.277 619.526C286.717 620.102 287.989 620.906 289.093 621.938C290.221 622.97 291.085 624.17 291.685 625.538L287.869 627.086C287.437 626.174 286.849 625.37 286.105 624.674C285.385 623.954 284.557 623.402 283.621 623.018C282.685 622.634 281.701 622.442 280.669 622.442C279.085 622.442 277.669 622.838 276.421 623.63C275.197 624.422 274.225 625.514 273.505 626.906C272.809 628.274 272.461 629.858 272.461 631.658C272.461 633.458 272.809 635.054 273.505 636.446C274.225 637.838 275.209 638.93 276.457 639.722C277.729 640.514 279.169 640.91 280.777 640.91C281.833 640.91 282.817 640.706 283.729 640.298C284.665 639.866 285.493 639.278 286.213 638.534C286.957 637.79 287.545 636.926 287.977 635.942L291.793 637.49C291.193 638.906 290.341 640.166 289.237 641.27C288.133 642.35 286.849 643.19 285.385 643.79C283.921 644.39 282.361 644.69 280.705 644.69ZM302.617 644.69C300.817 644.69 299.209 644.294 297.793 643.502C296.401 642.686 295.309 641.57 294.517 640.154C293.725 638.738 293.329 637.106 293.329 635.258C293.329 633.41 293.713 631.778 294.481 630.362C295.273 628.946 296.365 627.842 297.757 627.05C299.149 626.234 300.745 625.826 302.545 625.826C304.345 625.826 305.941 626.234 307.333 627.05C308.725 627.842 309.805 628.946 310.573 630.362C311.365 631.778 311.761 633.41 311.761 635.258C311.761 637.106 311.377 638.738 310.609 640.154C309.841 641.57 308.761 642.686 307.369 643.502C305.977 644.294 304.393 644.69 302.617 644.69ZM302.617 640.982C303.601 640.982 304.477 640.742 305.245 640.262C306.013 639.758 306.613 639.086 307.045 638.246C307.477 637.382 307.693 636.386 307.693 635.258C307.693 634.13 307.465 633.146 307.009 632.306C306.577 631.442 305.977 630.77 305.209 630.29C304.441 629.786 303.553 629.534 302.545 629.534C301.537 629.534 300.649 629.774 299.881 630.254C299.113 630.734 298.513 631.406 298.081 632.27C297.649 633.134 297.433 634.13 297.433 635.258C297.433 636.386 297.649 637.382 298.081 638.246C298.537 639.086 299.149 639.758 299.917 640.262C300.709 640.742 301.609 640.982 302.617 640.982ZM314.535 644.258V626.258H318.315L318.495 628.814C319.071 627.854 319.815 627.122 320.727 626.618C321.663 626.09 322.731 625.826 323.931 625.826C325.371 625.826 326.595 626.114 327.603 626.69C328.635 627.266 329.415 628.166 329.943 629.39C330.495 630.59 330.771 632.162 330.771 634.106V644.258H326.739V635.042C326.739 633.602 326.571 632.498 326.235 631.73C325.923 630.938 325.467 630.386 324.867 630.074C324.291 629.762 323.607 629.606 322.815 629.606C321.471 629.582 320.427 630.026 319.683 630.938C318.939 631.85 318.567 633.158 318.567 634.862V644.258H314.535ZM341.299 644.69C339.403 644.69 337.951 644.222 336.943 643.286C335.959 642.326 335.467 640.958 335.467 639.182V629.714H332.479V626.258H335.467V620.642H339.463V626.258H344.323V629.714H339.463V638.426C339.463 639.266 339.655 639.902 340.039 640.334C340.447 640.766 341.035 640.982 341.803 640.982C342.043 640.982 342.307 640.934 342.595 640.838C342.883 640.742 343.207 640.562 343.567 640.298L345.043 643.358C344.419 643.79 343.795 644.114 343.171 644.33C342.547 644.57 341.923 644.69 341.299 644.69ZM353.098 644.69C350.938 644.69 349.258 644.21 348.058 643.25C346.882 642.29 346.294 640.934 346.294 639.182C346.294 637.31 346.918 635.882 348.166 634.898C349.438 633.914 351.202 633.422 353.458 633.422H358.03C357.886 632.102 357.514 631.094 356.914 630.398C356.314 629.702 355.426 629.354 354.25 629.354C353.386 629.354 352.63 629.534 351.982 629.894C351.334 630.254 350.782 630.818 350.326 631.586L346.798 630.29C347.182 629.498 347.686 628.766 348.31 628.094C348.958 627.398 349.762 626.846 350.722 626.438C351.706 626.03 352.882 625.826 354.25 625.826C356.002 625.826 357.466 626.174 358.642 626.87C359.818 627.542 360.682 628.514 361.234 629.786C361.81 631.058 362.098 632.594 362.098 634.394L361.99 644.258H358.282L358.174 642.062C357.694 642.902 357.022 643.55 356.158 644.006C355.318 644.462 354.298 644.69 353.098 644.69ZM353.602 641.306C354.49 641.306 355.27 641.114 355.942 640.73C356.638 640.322 357.166 639.782 357.526 639.11C357.91 638.438 358.102 637.694 358.102 636.878V636.518H354.754C353.146 636.518 352.018 636.746 351.37 637.202C350.722 637.634 350.398 638.258 350.398 639.074C350.398 639.77 350.674 640.322 351.226 640.73C351.802 641.114 352.594 641.306 353.602 641.306Z" fill="white"/>
</g>
<defs>
<filter id="filter0_d_59_122" x="60.3945" y="343.258" width="427" height="89.9999" filterUnits="userSpaceOnUse" color-interpolation-filters="sRGB">
<feFlood flood-opacity="0" result="BackgroundImageFix"/>
<feColorMatrix in="SourceAlpha" type="matrix" values="0 0 0 0 0 0 0 0 0 0 0 0 0 0 0 0 0 0 127 0" result="hardAlpha"/>
<feOffset dy="2"/>
<feComposite in2="hardAlpha" operator="out"/>
<feColorMatrix type="matrix" values="0 0 0 0 0.405256 0 0 0 0 0.405256 0 0 0 0 0.427885 0 0 0 0.15 0"/>
<feBlend mode="normal" in2="BackgroundImageFix" result="effect1_dropShadow_59_122"/>
<feBlend mode="normal" in="SourceGraphic" in2="effect1_dropShadow_59_122" result="shape"/>
</filter>
<filter id="filter1_d_59_122" x="60.3945" y="455.258" width="427" height="90" filterUnits="userSpaceOnUse" color-interpolation-filters="sRGB">
<feFlood flood-opacity="0" result="BackgroundImageFix"/>
<feColorMatrix in="SourceAlpha" type="matrix" values="0 0 0 0 0 0 0 0 0 0 0 0 0 0 0 0 0 0 127 0" result="hardAlpha"/>
<feOffset dy="2"/>
<feComposite in2="hardAlpha" operator="out"/>
<feColorMatrix type="matrix" values="0 0 0 0 0.403922 0 0 0 0 0.403922 0 0 0 0 0.427451 0 0 0 0.15 0"/>
<feBlend mode="normal" in2="BackgroundImageFix" result="effect1_dropShadow_59_122"/>
<feBlend mode="normal" in="SourceGraphic" in2="effect1_dropShadow_59_122" result="shape"/>
</filter>
<filter id="filter2_d_59_122" x="60.3945" y="587.258" width="427" height="96" filterUnits="userSpaceOnUse" color-interpolation-filters="sRGB">
<feFlood flood-opacity="0" result="BackgroundImageFix"/>
<feColorMatrix in="SourceAlpha" type="matrix" values="0 0 0 0 0 0 0 0 0 0 0 0 0 0 0 0 0 0 127 0" result="hardAlpha"/>
<feOffset dy="8"/>
<feComposite in2="hardAlpha" operator="out"/>
<feColorMatrix type="matrix" values="0 0 0 0 0.847059 0 0 0 0 0.360784 0 0 0 0 0.466667 0 0 0 1 0"/>
<feBlend mode="normal" in2="BackgroundImageFix" result="effect1_dropShadow_59_122"/>
<feBlend mode="normal" in="SourceGraphic" in2="effect1_dropShadow_59_122" result="shape"/>
</filter>
<linearGradient id="paint0_linear_59_122" x1="60.3945" y1="631.258" x2="487.395" y2="631.258" gradientUnits="userSpaceOnUse">
<stop stop-color="#F47D8D"/>
<stop offset="1" stop-color="#EA6D7E"/>
</linearGradient>
<clipPath id="clip0_59_122">
<rect width="545" height="901" fill="white"/>
</clipPath>
<clipPath id="clip1_59_122">
<rect width="48" height="48" fill="white" transform="translate(248.395 363.258)"/>
</clipPath>
</defs>
</svg>
