<svg width="1344" height="901" viewBox="0 0 1344 901" fill="none" xmlns="http://www.w3.org/2000/svg">
<path d="M0 758.875C1.44028 706.752 0.451757 650.325 0.499767 597.723L0.595 290.295L0.580829 170.761C0.56745 154.312 0.666622 137.63 0.593427 121.227C0.491112 98.1673 7.19354 80.6027 25.3215 65.8111C42.915 51.4561 60.3975 53.775 81.7098 53.6499L126.363 53.4508L260.303 53.5571C295.162 53.2911 330.024 53.2675 364.884 53.487C398.591 53.5067 431.836 47.4548 454.264 78.4907C466.527 95.4613 466.555 109.993 466.39 130.288C466.306 140.628 466.396 151.33 466.411 161.691L466.356 275.855L466.381 379.127C466.37 388.396 466.877 419.886 465.822 427.138C467.498 430.204 467.83 429.624 467.468 432.409L465.904 434.461C466.707 442.099 466.404 452.616 466.404 460.496L466.387 503.062L466.39 640.285L466.373 778.358L466.393 819.314C466.451 840.969 468.021 860.193 453.417 878.141C433.502 902.613 413.169 900.89 384.699 900.945C367.384 901.016 350.069 900.969 332.755 900.811L218.782 900.803C195.738 900.772 166.918 899.977 144.383 901C123.355 899.277 97.7371 901.393 76.2296 900.74C52.6318 900.016 37.6678 902.519 19.177 884.436C-3.49604 862.254 0.25027 837.161 0.268372 808.503L0 758.875Z" fill="#F4E5E5"/>
<path d="M456.935 441.989C457.811 451.44 457.323 463.239 457.301 472.889L457.242 522.576L457.249 680.95L457.246 791.215C457.271 809.589 458.164 830.858 456.544 848.877C454.503 871.602 431.345 891.597 408.88 891.731C383.237 891.888 358.073 891.943 332.651 891.951L177.234 891.849L95.1004 891.912C81.1265 891.927 64.1744 892.573 50.6287 891.062C35.9441 888.237 22.1291 877.244 15.4653 864.001C11.593 856.305 10.0724 850.042 9.98351 841.811C9.78833 823.721 9.90638 805.741 9.90717 787.706L9.90874 683.791L9.91426 371.922L9.90402 193.628L9.91268 139.232C9.92606 117.369 7.62318 96.4079 24.3761 78.9691C35.9094 66.9638 47.8748 62.7021 64.4759 62.6879C146.133 62.6155 227.814 62.6116 309.483 62.6352L378.56 62.6289C402.955 62.6226 423.713 58.944 442.131 78.0186C460.422 96.9611 457.314 116.908 457.312 140.666L457.247 204.998L457.487 433.271C453.848 436.228 449.928 438.546 449.899 443.665L451.478 444.746C454.54 443.97 454.499 443.808 456.935 441.989Z" fill="#FDFDFD"/>
<path d="M361.799 619.071C348.774 627.058 309.031 624.335 293.036 624.327H204.061L127.399 624.406C114.984 624.429 84.9838 625.807 74.4894 622.053C66.4977 619.252 60.0007 613.303 56.5055 605.592C54.3805 600.957 52.8552 593.45 53.1574 588.304C54.7291 561.566 51.5637 531.452 53.3628 505.029C53.6186 500.992 54.4694 497.011 55.8884 493.218C60.9444 480.106 72.133 473.808 85.733 473.722C99.9242 473.63 114.111 473.593 128.303 473.566L219.178 473.61L296.661 473.582C310.975 473.572 341.134 471.957 353.783 476.055C379.054 484.241 374.265 514.637 374.035 534.867C373.998 538.219 373.847 542.831 375.717 546.017C373.928 550.92 373.134 551.407 374.853 555.822C372.962 559.253 373.681 562.919 373.189 566.917C375.149 571.363 372.163 580.081 370.902 585.046C371.246 591.939 372.465 600.752 367.309 605.828C366.785 609.99 366.704 613.429 364.77 617.096C363.92 617.67 362.699 618.551 361.799 619.071Z" fill="#F4E5E5"/>
<path d="M370.902 585.046C368.263 586.297 368.019 586.195 366.146 584.487C365.005 578.814 366.447 574.423 368.97 569.222C369.937 567.223 370.796 567.546 373.188 566.917C375.149 571.362 372.163 580.081 370.902 585.046Z" fill="#F17F90"/>
<path d="M361.8 619.071C358.92 613.917 360.062 602.255 365.559 599.257L366.933 599.958C368.137 602.066 367.646 603.388 367.31 605.828C366.786 609.99 366.705 613.429 364.77 617.096C363.92 617.67 362.7 618.551 361.8 619.071Z" fill="#F17F90"/>
<ellipse cx="653.957" cy="562.628" rx="103.473" ry="103.451" fill="#F4E5E5"/>
<path d="M205.461 535.929C209.245 536.409 209.832 536.449 211.064 539.84C208.7 550.644 172.748 567.515 193.312 584.448C207.414 596.055 221.371 569.136 229.594 568.569C233.085 570.67 232.599 573.377 230.57 576.469C223.097 585.51 213.745 595.858 200.989 595.74C194.769 595.693 188.835 593.12 184.556 588.611C180.427 584.196 178.238 578.318 178.478 572.283C179.011 557.986 195.568 544.829 205.461 535.929Z" fill="#F17F90"/>
<path d="M241.13 504.95C251.367 504.525 258.469 506.76 264.433 516.313C274.978 533.199 256.6 552.643 243.367 561.739C241.488 563.029 238.874 563.596 236.619 562.943L236.126 561.235C238.034 554.35 244.223 549.448 249.408 544.42C257.126 536.889 264.178 524.945 252.443 516.494C237.212 505.517 228.56 529.209 218.004 531.444C215.574 530.649 216.538 531.358 215.089 529.139C214.08 519.515 232.605 507.169 241.13 504.95Z" fill="#F17F90"/>
<path d="M231.629 535.245C234.435 535.678 234.254 535.686 236.694 537.196C241.102 544.971 221.915 559.095 216.227 563.974C213.888 564.084 213.898 563.934 211.633 563.163C209.765 560.952 210.276 562.211 210.171 559.213C213.143 552.312 225.72 541.351 231.629 535.245Z" fill="#F17F90"/>
<path d="M148.31 389.391C134.112 374.009 124.862 359.371 118.545 339.193C105.28 296.825 120.231 247.513 152.984 217.65C176.797 195.759 208.357 184.262 240.674 185.705C272.94 187.559 303.154 202.126 324.695 226.213C346.278 250.023 357.348 281.528 355.402 313.603C353.512 343.005 340.622 368.037 320.816 389.352C320.362 389.822 319.907 390.292 319.452 390.762C296.867 413.211 266.235 425.687 234.389 425.41C201.283 425.382 171.666 412.854 148.31 389.391Z" fill="#FBCBCF"/>
<path d="M156.361 350.52C170.864 332.067 167.906 313.911 168.563 291.657C169.505 259.432 185.797 223.807 220.18 216.727C224.293 215.881 229.79 216.813 233.649 216.288C271.402 211.155 295.87 246.209 299.871 280.003C302.848 305.135 295.475 328.846 312.537 350.304C295.817 362.273 283.224 366.828 262.824 368.786C262.178 365.28 261.996 362.558 261.714 359.031C258.909 359.503 248.477 366.887 240.842 367.954C227.358 369.84 219.569 365.967 208.815 358.229L207.788 359.306C207.524 362.077 207.303 365.591 206.71 368.25C188.416 368.138 170.688 361.895 156.361 350.52Z" fill="#D85C77"/>
<path d="M220.816 256.749C236.96 279.41 258.273 291.922 286.023 295.194C292.824 295.996 294.127 313.861 280.093 318.658C274.761 331.887 272.272 335.071 262.486 345.756C262.249 350.133 262.068 354.677 261.712 359.031C258.907 359.503 248.475 366.888 240.84 367.955C227.356 369.84 219.567 365.967 208.813 358.23L207.786 359.306L207.826 346.762C198.271 335.87 195.445 332.161 190.677 318.658C182.768 315.808 176.812 307.74 180.513 298.906C182.425 294.34 185.253 294.851 189.074 293.199C204.546 286.512 213.74 271.256 220.816 256.749Z" fill="#F4E5E5"/>
<path d="M207.827 346.762C228.84 358.801 241.546 360.091 262.487 345.756C262.25 350.132 262.069 354.677 261.713 359.031C258.908 359.503 248.476 366.887 240.84 367.954C227.357 369.84 219.568 365.967 208.814 358.229L207.787 359.306L207.827 346.762Z" fill="#FBCBCF"/>
<path d="M207.787 359.306L208.814 358.229C219.568 365.967 227.357 369.84 240.841 367.954C248.476 366.887 258.908 359.503 261.713 359.031C261.995 362.558 262.177 365.28 262.823 368.786L263.496 369.941C279.432 370.365 308.994 379.092 320.817 389.352C320.362 389.822 319.908 390.292 319.453 390.762C296.868 413.211 266.235 425.687 234.389 425.41C201.283 425.382 171.666 412.854 148.311 389.391C164.356 378.211 186.65 371.008 206.154 369.606L206.709 368.25C207.302 365.591 207.524 362.077 207.787 359.306Z" fill="#F17B87"/>
<path d="M207.787 359.306L208.814 358.229C219.567 365.967 227.356 369.84 240.84 367.954C248.475 366.887 258.907 359.503 261.712 359.031C261.994 362.558 262.177 365.28 262.823 368.786L263.495 369.941C263.615 371.336 263.658 372.737 263.622 374.137C263.077 404.695 202.447 406.532 206.154 369.606L206.708 368.25C207.302 365.591 207.523 362.077 207.787 359.306Z" fill="#F4E5E5"/>
<path d="M291.068 772.023C222.227 771.04 149.646 773.636 80.5443 771.315C59.3485 767.491 52.9207 752.949 51.541 734.812C47.5106 681.824 65.9533 673.924 113.947 676.575C121.222 676.977 135.465 676.646 143.601 676.631L289.644 676.402C263.424 708.53 266.389 740.344 291.068 772.023Z" fill="#F4E5E5"/>
<path d="M289.644 676.402C306.389 661.231 321.821 652.749 345.332 653.969C363.743 654.999 380.96 663.411 393.085 677.299C405.331 691.085 412.041 710.018 410.696 728.462C409.226 746.725 400.557 763.659 386.598 775.525C372.406 787.737 353.914 793.757 335.253 792.238C316.994 790.68 304.754 783.441 291.068 772.023C266.389 740.344 263.424 708.53 289.644 676.402Z" fill="#D85C77"/>
<path d="M369.772 689.732C373.99 689.433 375.327 689.551 377.112 693.281C377.266 699.104 359.745 749.747 354.507 757.482C353.781 758.552 351.041 759.197 349.348 758.985C344.272 758.363 335.693 742.264 332.418 737.322C326.125 729.721 300.739 726.432 303.493 715.809C307.714 710.734 321.175 707.232 327.953 704.801L369.772 689.732Z" fill="white"/>
<path d="M367.114 698.466C367.297 698.757 367.48 699.056 367.663 699.348C357.496 707.932 345.815 719.68 335.557 728.871C330.754 726.251 326.492 724.504 321.462 722.372C318.165 721.113 314.651 719.452 311.402 717.996C329.119 712.661 349.387 704.832 367.114 698.466Z" fill="#D85C77"/>
<path d="M363.776 714.102C363.727 717.336 351.732 747.552 349.99 752.053L345.985 745.364L340.093 734.93C347.345 728.163 356.065 720.16 363.776 714.102Z" fill="#D85C77"/>
<path d="M186.628 88.6202C213.637 87.7845 241.222 88.9357 268.274 88.4314C272.861 88.3456 279.779 88.019 283.563 90.7046C286.368 95.2874 285.029 97.5481 281.206 100.756C277.318 101.091 260.724 101.34 257.507 101.039C245.827 99.9457 191.106 103.37 184.525 99.0699C181.529 94.6099 183.077 91.988 186.628 88.6202Z" fill="#F4E5E5"/>
<path d="M436.327 452.556C438.266 453.809 438.403 453.646 439.3 455.705C438.773 460.678 430.08 468.085 426.176 471.902C423.749 469.933 423.94 470.662 422.997 468.119C423.976 462.676 431.994 456.506 436.327 452.556Z" fill="#D85C77"/>
<path d="M412.5 479.396C415.319 480.927 415.413 480.639 415.827 483.444C414.007 488.83 409.735 493.548 406.203 498.183C403.527 497.121 403.685 497.223 402.78 494.957C403.663 489.49 409.003 483.815 412.5 479.396Z" fill="#F17F90"/>
<path d="M394.509 506.563C396.645 507.138 395.94 506.894 397.861 508.145C398.964 512.41 392.753 521.766 390.379 526.164C388.236 525.629 388.347 525.747 386.831 524.158C385.852 519.57 391.89 510.985 394.509 506.563Z" fill="#F17F90"/>
<path d="M375.716 546.017C377.289 542.445 377.941 539.848 381.047 537.613L382.617 537.597C385.036 541.744 380.6 552.886 377.09 555.318L374.853 555.821C373.133 551.407 373.927 550.919 375.716 546.017Z" fill="#F17F90"/>
<path d="M359.988 629.52C362.992 630.575 361.829 629.709 363.742 632.03C364.869 636.578 364.733 642.512 363.102 646.926L360.255 646.352C357.365 643.275 358.135 633.163 359.988 629.52Z" fill="#F17F90"/>
<path d="M457.488 433.271C460.104 431.181 463.09 429.112 465.822 427.138C467.498 430.204 467.831 429.624 467.469 432.409L465.904 434.461C463.31 436.473 458.927 439.615 456.936 441.989C454.5 443.809 454.541 443.97 451.479 444.746L449.9 443.665C449.929 438.546 453.849 436.228 457.488 433.271Z" fill="#D85C77"/>
<path d="M1163.82 73.8805L1227.3 73.6468C1244.57 73.687 1262.7 70.8479 1275.79 84.2114C1280.26 88.7344 1283.45 94.3464 1285.06 100.489C1286.43 105.87 1286.85 118.617 1286.3 124.12C1284.36 143.389 1246.37 199.755 1238.31 216.293C1244.11 220.391 1235.27 303.441 1238.31 310.028C1240.31 340.948 1233.04 393.982 1238.31 423.837C1238.31 524.718 1233.66 484.88 1238.31 608.892C1231.57 623.41 1239.45 635.879 1236.87 657.084C1235.64 658.815 1241.61 661.42 1240.31 663.096L1240.13 767.035C1240.09 781.222 1241.38 807.425 1238.31 820.157C1235.72 831.008 1230.07 840.875 1222.01 848.586C1200.21 869.69 1172.79 864.662 1145.17 865.339C1109.91 866.212 1073.7 864.127 1038.54 865.3C1029.51 864.788 1017.23 865.134 1007.87 865.142L950.241 865.245C939.915 865.26 927.952 865.882 917.784 864.82C889.773 861.9 866.13 837.775 864.659 809.455C864.005 796.802 864.297 784.346 864.32 771.945C864.501 748.59 864.548 725.236 864.485 701.889L864.383 451.671L864.375 234.53L864.367 176.338C864.328 145.929 861.015 119.328 887.908 98.324C895.094 92.6947 903.586 88.9673 912.597 87.4856C925.812 85.4318 949.281 86.0204 963.33 85.996L1050.98 86.0936L1106.69 86.0393C1115.65 86.0181 1131.58 85.579 1139.98 86.668C1147.87 78.3153 1152.68 75.7423 1163.82 73.8805Z" fill="#FDFDFD"/>
<path d="M1163.82 73.8805L1227.29 73.6468C1244.57 73.687 1262.7 70.8479 1275.79 84.2114C1280.25 88.7344 1283.45 94.3464 1285.06 100.489C1286.43 105.87 1286.85 118.617 1286.3 124.12C1284.36 143.389 1290.43 181.917 1282.37 198.455C1273.69 211.613 1265.13 217.358 1248.87 217.849C1244.64 217.421 1235.28 217.639 1230.68 217.605C1215.69 217.49 1200.49 217.635 1185.5 217.721C1166.64 217.829 1147.83 219.022 1136.88 199.71C1134.44 195.323 1132.9 190.491 1132.35 185.5C1131.84 181.205 1131.96 163.201 1132.17 158.171C1132.9 139.752 1129.65 112.693 1134.64 95.566C1136.45 91.6442 1137.54 90.1672 1139.98 86.668C1147.87 78.3153 1152.68 75.7423 1163.82 73.8805Z" fill="#D85C77"/>
<path d="M1186.2 116.967C1198.21 115.984 1202.27 118.515 1209.71 127.547C1210.48 126.589 1211.26 125.645 1212.05 124.715C1216.06 120.053 1221.28 116.904 1227.54 116.577C1232.72 116.301 1237.78 118.237 1241.45 121.902C1257.05 137.46 1242.34 156.972 1230.18 168.532C1223.78 174.826 1217.3 180.517 1209.34 184.721C1189.76 172.04 1148.78 135.165 1186.2 116.967Z" fill="#F4E5E5"/>
<path d="M1038.54 865.3C1029.51 864.788 1017.23 865.134 1007.87 865.142L950.241 865.245C939.915 865.26 927.952 865.882 917.784 864.82C889.773 861.9 866.13 837.775 864.659 809.455C864.005 796.802 864.297 784.346 864.32 771.945C864.501 748.59 864.548 725.236 864.485 701.889L864.383 451.671L864.375 234.531L864.367 176.338C864.328 145.929 861.015 119.328 887.908 98.324C895.094 92.6947 903.586 88.9673 912.597 87.4856C925.812 85.4319 949.281 86.0205 963.33 85.9961L1050.98 86.0937L1106.69 86.0394C1115.65 86.0181 1131.58 85.579 1139.98 86.6681C1137.54 90.1673 1136.46 91.6443 1134.65 95.566C1130.18 94.4605 1113.72 94.8933 1108.26 94.8996L1059.9 94.9177L971.736 94.8516C935.303 94.8162 887.207 86.9946 875.213 133.835C873.481 140.588 873.615 147.423 873.584 154.372C873.529 170.58 873.631 186.806 873.639 203.021L873.584 342.532L873.599 651.38L873.615 755.066C873.615 772.48 873.395 790.043 873.702 807.456C873.875 817.442 876.913 825.012 881.863 833.345C887.42 842.709 900.949 852.521 911.716 854.472C925.497 856.974 944.724 856.29 959.072 856.251L1028.64 856.07L1132.39 856.101C1140.56 856.109 1148.74 856.195 1156.91 856.117C1175.44 855.952 1192.42 858.58 1208.68 847.65C1219.85 840.214 1227.56 828.592 1230.07 815.412C1231.82 806.142 1230.94 766.523 1230.94 755.161L1230.93 618.669L1230.92 354.759L1230.92 265.679C1230.92 250.493 1231.32 232.537 1230.68 217.605C1235.28 217.639 1235.99 217.178 1240.22 217.605V218.597C1239.67 240.84 1240.2 264.192 1240.2 286.545L1240.16 406.713L1240.31 663.096L1240.13 767.035C1240.09 781.222 1241.38 807.425 1238.31 820.157C1235.72 831.008 1230.07 840.875 1222.01 848.586C1200.21 869.69 1172.79 864.662 1145.17 865.339C1109.91 866.212 1073.7 864.127 1038.54 865.3Z" fill="#F4E5E5"/>
<path d="M964.865 434.711C921.68 387.589 923.821 314.67 969.698 270.16C1015.57 225.651 1088.54 225.701 1134.35 270.274C1180.17 314.845 1182.21 387.767 1138.96 434.83C1116.57 459.194 1084.98 473.051 1051.88 473.028C1018.79 473.006 987.225 459.105 964.865 434.711Z" fill="#FBCBCF"/>
<path d="M1022.44 408.988C1022.67 406.255 1023 403.251 1023.11 400.531C1041.61 418.255 1060.84 418.774 1079.87 401.499L1079.87 410.153C1088.29 404.361 1131.19 426.754 1138.96 434.83C1116.57 459.194 1084.97 473.051 1051.88 473.028C1018.79 473.005 987.224 459.105 964.864 434.71C981.439 420.119 1000.67 412.232 1022.44 408.988Z" fill="#D85C77"/>
<path d="M1022.44 408.988C1022.67 406.255 1023 403.251 1023.11 400.531C1041.61 418.255 1060.84 418.774 1079.87 401.499L1079.87 410.153C1079.95 411.692 1080.14 413.69 1080.05 415.196C1079.19 429.368 1058.5 431.812 1047.8 430.928C1036.63 430.003 1029.87 427.519 1022.91 419.618C1022.61 416.196 1022.56 412.448 1022.44 408.988Z" fill="#F4E5E5"/>
<path d="M1001.47 333.16C993.654 300.496 994.772 271.789 1034.76 261.23C1046.92 258.019 1060.15 260.577 1072.03 263.403C1076.58 264.252 1081.76 262.873 1085.71 265.794C1087.91 267.422 1089.59 270.989 1091.5 272.698C1109.22 288.53 1107.17 311.205 1101.56 332.639C1116.46 341.162 1109.36 361.428 1094.8 365.891L1094.36 367.028C1088.89 381.127 1080.5 394.425 1065.92 400.474C1056.63 404.376 1046.16 404.377 1036.87 400.478C1020.85 393.614 1014.15 381.035 1007.77 365.965C992.977 361.62 986.114 337.136 1001.47 333.16Z" fill="#F4E5E5"/>
<path d="M1001.47 333.16C993.653 300.496 994.771 271.789 1034.76 261.23C1046.92 258.019 1060.15 260.577 1072.03 263.403C1076.58 264.252 1081.75 262.873 1085.71 265.794C1087.91 267.422 1089.59 270.989 1091.5 272.698C1109.22 288.53 1107.17 311.205 1101.56 332.639C1100.09 335.659 1097.66 339.216 1095.82 342.112C1090.17 316.232 1094.4 292.001 1062.97 307.787C1052.25 313.169 1028.31 302.36 1017.95 308.038C1010.13 312.321 1008.54 333.363 1006.77 341.242C1004.98 338.779 1003.14 335.755 1001.47 333.16Z" fill="#D85C77"/>
<path d="M1044.76 525.716C1098.1 520.31 1145.7 559.252 1150.95 612.61C1156.2 665.96 1117.11 713.432 1063.73 718.531C1010.57 723.607 963.322 684.719 958.088 631.582C952.862 578.444 991.624 531.098 1044.76 525.716Z" fill="#F5AAB9"/>
<path d="M1025.94 582.827C1041.1 582.15 1045.74 585.904 1054.86 597.549C1060.62 589.633 1066.77 583.622 1077.09 582.78C1083.91 582.198 1090.67 584.448 1095.77 589.004C1101.64 594.323 1104.27 601.924 1104.38 609.722C1104.61 627.042 1090.79 640.749 1079.38 652.143C1071.37 659.815 1064.12 666.283 1054.89 672.491C1039.52 663.309 1012.61 637.712 1006.7 620.078C1001.26 603.86 1008.88 587.973 1025.94 582.827Z" fill="#F4E5E5"/>
<path d="M1008.22 129.838C1019.69 129.468 1093.12 128.075 1098.4 130.745C1100.18 131.647 1101.25 133.006 1101.64 134.998C1101.98 136.807 1101.35 138.665 1100.13 140.013C1098.63 141.659 1097.09 141.854 1094.99 142.023C1075.97 141.638 1025.65 143.181 1004.02 141.165C1001.48 140.929 995.646 130.96 1008.22 129.838Z" fill="#F4E5E5"/>
<path d="M532.85 560.814C535.853 558.603 540.046 559.059 542.505 561.861C544.964 564.662 544.873 568.879 542.295 571.571C539.718 574.262 535.509 574.537 532.604 572.2C530.863 570.807 529.873 568.675 529.921 566.448C529.969 564.213 531.051 562.136 532.85 560.814Z" fill="#F17F90"/>
<path d="M633.987 544.79C637.521 545.742 637.474 545.569 639.662 547.906C641.905 560.315 599.504 577.658 618.837 598.329C637.505 618.292 654.081 582.04 665.068 582.45C668.546 585.723 667.256 589.697 665.06 593.112C660.644 597.888 653.136 606.237 647.879 609.613C634.633 618.111 616.232 615.734 607.714 601.523C603.812 594.922 602.71 587.045 604.653 579.633C607.635 567.971 624.039 550.44 633.987 544.79Z" fill="#D85C77"/>
<path d="M675.039 509.671C675.912 509.64 676.778 509.624 677.652 509.616C694.384 509.443 706.67 521.073 706.245 538.211C705.906 551.872 694.242 563.195 685.034 572.016C681.642 575.265 678.226 577.374 673.433 577.075C664.799 571.732 681.571 559.378 686.474 554.618C694.904 545.954 700.586 533.443 689.245 523.89C671.969 509.333 656.394 539.99 646.493 540.533C643.211 538.07 642.794 533.002 645.54 530.012C654.52 520.255 661.478 512.079 675.039 509.671Z" fill="#D85C77"/>
<path d="M663.816 544.821C667.153 544.931 667.389 544.829 670.136 546.521C673.559 552.092 668.357 556.868 664.469 560.944C658.991 566.673 653.254 572.543 647.382 577.862C644.266 578.122 642.928 577.988 640.496 576.139C639.898 574.801 639.457 574.415 639.607 573.023C640.378 565.901 658.621 549.259 663.816 544.821Z" fill="#D85C77"/>
<path d="M669.46 341.848C660.873 336.262 629.636 320.488 625.008 314.44L625.425 312.51C633.775 308.367 820.588 260.183 824.208 261.172C825.286 261.467 825.436 262.338 825.947 263.236C826.01 268.704 816.337 282.931 813.071 288.607L783.982 338.732C778.678 347.843 750.517 399.356 745 401.152C738.216 398.734 718.894 381.036 711.96 375.244C704.184 382.553 695.786 390.747 687.774 397.661L686.09 398.929C684.752 398.359 684.949 398.575 683.863 397.681C680.337 391.543 671.144 350.599 669.46 341.848Z" fill="#D85C77"/>
<path d="M691.418 358.416C696.526 362.308 707.623 370.862 711.959 375.244C704.184 382.552 695.786 390.747 687.774 397.661C685.46 393.23 691.496 367.381 691.418 358.416Z" fill="#D85C77"/>
<path d="M683.862 397.681C684.366 397.266 684.87 396.852 685.381 396.438C686.499 389.133 686.83 362.95 691.418 358.416C691.497 367.381 685.46 393.23 687.774 397.661L686.09 398.929C684.752 398.358 684.948 398.575 683.862 397.681Z" fill="#F17F90"/>
<path d="M780.827 560.252C783.188 559.127 785.974 559.363 788.115 560.866C790.255 562.376 791.412 564.918 791.137 567.522C790.869 570.127 789.216 572.377 786.816 573.416C783.195 574.974 778.993 573.353 777.364 569.765C775.726 566.185 777.269 561.951 780.827 560.252Z" fill="#F17F90"/>
<path d="M509.471 560.729C513.33 560.39 516.76 563.176 517.221 567.024C517.683 570.863 515.008 574.381 511.179 574.963C508.592 575.357 505.996 574.31 504.404 572.233C502.813 570.155 502.479 567.378 503.534 564.986C504.589 562.593 506.865 560.957 509.471 560.729Z" fill="#F5AAB9"/>
<path d="M807.708 560.299C810.053 559.142 812.831 559.355 814.972 560.85C817.113 562.345 818.278 564.879 818.002 567.475C817.727 570.072 816.066 572.314 813.666 573.33C810.092 574.84 805.968 573.235 804.355 569.702C802.741 566.177 804.229 562.006 807.708 560.299Z" fill="#F5AAB9"/>
<path d="M833.764 560.228C837.329 558.741 841.43 560.386 842.972 563.927C844.515 567.467 842.933 571.591 839.415 573.196C837.093 574.25 834.378 573.975 832.316 572.464C830.254 570.961 829.16 568.459 829.459 565.925C829.766 563.384 831.403 561.212 833.764 560.228Z" fill="#FBCBCF"/>
<path d="M483.539 560.37C485.872 559.661 488.406 560.259 490.175 561.935C491.943 563.619 492.673 566.114 492.085 568.482C491.498 570.851 489.684 572.716 487.335 573.377C483.76 574.376 480.046 572.314 479.007 568.75C477.966 565.185 479.988 561.448 483.539 560.37Z" fill="#FBCBCF"/>
<path d="M572.009 368.642C573.997 368.489 575.423 368.749 576.623 370.321L576.309 371.692C573.195 375.713 562.435 378.867 557.153 380.743L556.114 381.153C553.723 380.485 554.753 381.115 553.114 378.92L553.365 377.3C556.827 373.372 566.709 370.523 572.009 368.642Z" fill="#F17F90"/>
<path d="M533.975 384.314C535.941 384.677 535.217 384.516 536.987 385.901L537.156 387.563C534.969 391.454 522.759 397.145 518.233 399.526C515.735 398.737 515.5 397.927 515.3 395.764C517.998 391.405 528.85 386.841 533.975 384.314Z" fill="#D85C77"/>
<path d="M497.482 404.643C499.723 405.197 499.926 405.649 500.93 407.336C499.5 412.004 488.855 417.628 484.069 420.742C481.691 420.475 482.583 420.743 480.515 419.307L480.254 417.473C482.614 413.163 492.83 407.522 497.482 404.643Z" fill="#F17F90"/>
<path d="M613.1 356.169C615.776 357.06 614.918 356.251 616.468 358.077L616.051 359.965C612.376 363.7 601.894 365.726 596.506 367.044C593.709 366.212 594.471 367.034 593.245 365.199L593.825 363.272C598.164 359.413 607.505 357.501 613.1 356.169Z" fill="#F17F90"/>
<path d="M644.801 349.186C647.438 348.889 648.839 348.432 651.184 349.614L651.357 350.32C649.531 354.495 644.518 354.745 640.583 355.345C637.442 356.122 637.017 356.355 634.483 355.344L634.271 353.824C637.615 349.592 639.496 349.979 644.801 349.186Z" fill="#F17F90"/>
<path d="M1257.35 0C1260.29 0.33993 1260.27 0.203013 1262.92 1.81453C1263.87 3.26474 1264.23 4.27274 1264.15 6.23914C1263.49 22.2505 1262.89 38.789 1261.18 54.6909C1261.07 55.7218 1259.24 57.5937 1258.64 58.2429C1256.64 58.1398 1252.28 57.6811 1252.49 54.8704C1253.28 43.7817 1252.5 7.44934 1257.35 0Z" fill="#F5AAB9"/>
<path d="M1307.57 21.2126C1309.53 21.7862 1309.63 21.9924 1311.46 22.9831C1312.08 24.0485 1312.88 24.9219 1312.59 25.9519C1310.36 33.8467 1286.13 63.6078 1281.28 68.2945C1277.87 67.1755 1277.04 66.8049 1275.97 63.585C1276.63 58.2689 1302.81 25.586 1307.57 21.2126Z" fill="#F5AAB9"/>
<path d="M1336.27 64.2443C1340.58 63.6573 1341.1 63.0514 1343.99 66.3406C1344.69 74.1771 1306.49 83.5432 1299.33 85.9078C1295.3 86.996 1294.99 87.4839 1291.9 84.6622C1289.71 76.4008 1328.34 66.9284 1336.27 64.2443Z" fill="#F5AAB9"/>
</svg>
